<?xml version="1.0" encoding="UTF-8"?>
<svg fill-rule="evenodd" id="Ebene_1" xmlns="http://www.w3.org/2000/svg" version="1.1" viewBox="779 401 362 277">
  
  <defs>
    
  </defs>
  <path fill="#F5507D" d="M874.342,599.633c-6.092,0-6.769,7.58-6.769,9.747,0,4.332,1.762,8.664,6.769,8.664,4.74,0,7.042-4.062,7.042-8.664,0-3.249-1.896-9.747-7.042-9.747Z"></path>
  <path fill="#F5507D" d="M866.958,480.232c4.737,0,6.632-5.008,6.632-9.477s-1.895-9.476-6.632-9.476c-4.198,0-6.499,4.332-6.499,9.476s2.302,9.477,6.499,9.477Z"></path>
  <path fill="#F5507D" d="M877.32,558.343c-3.248,0-4.331,3.655-4.331,6.227,0,3.249,1.489,7.31,5.143,7.31s4.334-4.467,4.334-7.04c0-2.843-1.762-6.497-5.146-6.497Z"></path>
  <path fill="#F5507D" d="M927.607,472.381l-3.654,26.127c-.136,1.083-.407,2.571,1.083,2.571h4.874c1.353,0,1.219-1.489,1.083-2.571l-3.384-26.127Z"></path>
  <path fill="#F5507D" d="M1055.154,413.117h-245.68c-9.69,0-17.547,7.856-17.547,17.547v162.374c0,40.784,33.062,73.846,73.846,73.846h245.751c9.69,0,17.547-7.856,17.547-17.547v-162.302c0-40.824-33.094-73.918-73.917-73.918ZM963.207,450.179c0-7.581,6.769-11.372,13.401-11.372s13.267,3.791,13.267,11.372v53.473c0,4.061,3.927,5.415,6.229,5.415s6.226-1.489,6.226-5.415v-53.473c0-7.581,6.769-11.372,13.404-11.372s13.265,3.791,13.265,11.372v58.617c0,17.464-18.005,26.263-32.895,26.263s-32.897-8.799-32.897-26.263v-58.617ZM834.874,523.283v-67.554c0-9.477,3.654-16.381,13.807-16.381h22.745c16.785,0,28.7,15.027,28.7,31.407,0,23.962-15.839,33.304-36.552,32.761-.676,0-2.032,0-2.032,2.032v17.735c0,7.58-6.769,11.371-13.401,11.371s-13.267-3.791-13.267-11.371ZM909.135,637.132c-6.499-.406-10.83-4.468-14.213-9.477-6.363,8.529-12.185,13.537-23.015,13.537-16.109,0-27.754-13.537-27.754-28.835,0-12.048,5.686-17.599,14.216-25.179,1.216-1.084,1.083-2.573.407-3.384-4.064-5.145-7.311-11.643-7.311-18.141,0-15.568,12.591-23.014,26.668-23.014,12.861,0,23.284,7.175,23.284,20.578,0,8.258-3.654,14.756-9.07,20.984-1.623,1.894.679,4.061,2.981,6.362,1.489,1.489,4.33-1.489,8.257-1.489,5.143,0,8.798,6.497,8.798,10.829,0,3.656-2.302,6.634-3.791,7.988-1.352,1.218-.134,1.624,10.426,16.516,4.873,6.769-1.762,13.268-9.883,12.726ZM931.804,519.355h-8.394c-5.143,0-1.083,15.298-16.379,15.298-7.175,0-15.03-2.437-12.454-13.809l15.973-70.53c1.895-8.394,9.07-11.507,16.652-11.507s14.756,3.113,16.785,11.507l16.652,70.53c2.708,11.372-5.28,13.809-12.454,13.809-15.297,0-11.236-15.298-16.38-15.298ZM1018.982,639.839c-5.416,0-11.642-2.165-12.318-8.393l-3.657-37.229-6.226,36.145c-.949,5.822-4.198,9.477-11.372,9.477-8.934,0-11.642-4.602-12.725-9.477l-8.124-36.28-2.299,37.364c-.407,6.227-6.905,8.393-12.321,8.393-9.204,0-12.589-3.926-11.912-13.131l4.737-69.584c.676-9.34,8.394-13.131,17.871-13.131,8.257,0,15.566,3.249,17.462,11.777l5.686,25.857,5.686-25.857c1.895-8.528,9.206-11.777,17.465-11.777,9.477,0,17.058,3.791,17.868,13.131l6.092,69.584c.813,9.205-2.708,13.131-11.912,13.131ZM1067.173,580.273h7.445c6.498,0,9.747,5.28,9.747,11.644,0,5.821-3.249,11.642-9.747,11.642h-7.445c-3.251,0-5.416,2.165-5.416,5.821s2.165,5.821,5.416,5.821h7.988c6.902,0,10.965,4.603,10.965,12.183,0,5.551-3.384,11.913-10.965,11.913h-26.265c-10.154,0-13.808-6.904-13.808-16.38v-62.003c0-9.477,3.654-16.381,13.808-16.381h26.265c6.902,0,10.965,4.603,10.965,12.184,0,5.551-3.384,11.913-10.965,11.913h-7.988c-3.251,0-5.416,2.167-5.416,5.821s2.165,5.821,5.416,5.821ZM1076.11,534.112h-26.535c-10.153,0-13.807-6.904-13.807-16.381v-67.552c0-7.581,6.768-11.372,13.401-11.372s13.267,3.791,13.267,11.372v55.775c0,3.384,1.083,5.278,5.146,5.278h8.528c5.956,0,10.016,5.01,10.016,11.372s-4.06,11.507-10.016,11.507Z"></path>
</svg>