<?xml version="1.0" encoding="UTF-8"?>
<svg id="Ebene_1" xmlns="http://www.w3.org/2000/svg" version="1.1" viewBox="0 0 397.651 443.89">
  
  
  <path class="st0" fill="#F5507D" d="M216.005,82.79c-3.927.988-5.823,5.279-10.831,6.062l-12.168-.855c-12.074-.848-23.822.772-35.443,3.497l-1.116.495c-.312.139-.451.612-.303.843.368.574.944.589,1.612.56l18.539-.794,14.362.113,5.176.856,17.575,2.484-6.74,4.7c3.277.152,5.488-2.118,7.822-4.282,2.727.224,5.512.603,8.363,1.62-2.042,2.017-4.495,1.811-5.884,4.066,3.116.198,5.627-1.47,7.992-2.922,1.575-.967,2.798-.03,3.947.3.14,1.615-1.785,3.383-3.414,3.506-2.477.187-3.344,1.328-5.165,2.451-5.129,3.164-9.814,6.34-14.104,10.682-.473.478-1.187.726-1.175,1.424.009.496.433,1.438.881,1.506.44.067,1.614-.287,2.021-.675,4.937-4.716,15.055-12.527,20.222-13.285,1.121-.164,2.288.213,3.523-.588.825-.535,1.721-1.352,1.528-2.684.527,0,1.02-.264,1.321-.717,4.132,1.187,8.039,2.895,12.011,4.482.019.992-.483,1.338-1.225,1.833l-13.133,8.773-14.282,12.126-.673,1.211c-.187.336.77,1.226,1.131.89,8.681-8.052,18.067-14.819,28.005-21.295,1.147-.747,2.301-1.251,3.02-2.401,5.006,2,9.998,4.367,14.47,7.417-5.057,3.171-9.872,6.617-14.254,10.889l-14.246,13.888c-3.048,2.971-6.651,5.364-8.799,9.342,7.881-5.121,13.321-11.933,20.125-17.52l6.997-5.746c4.082-3.352,7.702-7.01,12.024-9.885,2.691,1.41,5.52,2.939,7.818,4.939-.673.941-1.629,1.893-2.742,2.55-4.902,2.896-9.134,6.334-13.279,10.302-1.852,1.773-4.573,2.843-5.208,5.847l20.231-14.957c1.104-.816,1.941-1.975,2.226-3.098l9.261,6.359c.293.201-.136,1.15-.264,1.141l-5.109,4.567-27.509,20.15-7.138,5.606-8.544,7.519c-.423.372-.524.982-.259,1.333.403.535,1.024.557,1.605.033,4.767-4.309,9.733-7.791,14.991-11.523l29.232-20.753,5.905-5.585c4.527,2.935,8.262,6.8,12.063,10.518l-20.214,14.586-5.895,3.421c-7.328,5.372-14.454,10.575-21.11,16.801-3.248,3.037-7.522,5.387-8.753,10.143,10.733-8.991,20.987-17.05,32.083-24.711l11.056-6.842c3.726-2.306,9.326-8.227,15.15-11.132l7.921,8.797c-1.376.449-2.501,1.232-3.7,2.16l-12.676,9.815-25.629,20.918-15.835,13.617c-.249.408.451,1.391.952,1.332l7.935-5.889,31.56-25.256c3.849-3.08,7.643-5.6,11.297-8.866,2.498-2.233,5.363-3.88,7.251-6.605l8.554,11.381c-12.619,6.313-23.211,15.375-33.239,25.505l-16.13,14.391-13.165,12.202c-.562.521-.328,1.887.438,2.161l24.571-19.752c6.18-4.968,11.583-10.153,17.651-15.119l6.359-5.205c.451-.369.895-.718.966-1.173.117-.753-.481-1.127-1.133-1.815-.538-.567.88-1.672,1.484-1.864.731-.232,1.704.634,2.497,1.159l10.412-9.302c2.656,3.332,4.763,7.282,6.879,10.957-2.72,2.963-6.65,3.924-8.789,6.745.77.486,1.093.458,1.313.455.362-.004.644.253.574.624-.268,1.423-3.529.44-3.911,2.712-.577,3.432-4.123,1.653-4.44,2.765l-.617,2.161c-1.858,1.148-4.068,2.973-5.726,4.39l-6.903,5.9-22.344,18.994-8.927,8.396c-.47.442-.754.797-.622,1.257.138.481,1.073.758,1.682.285,13.598-10.562,26.662-21.367,39.521-32.847l11.524-8.71c.659-.498,1.719-2.228,2.007-2.987.015-1.366.12-2.365,1.205-3.528l5.1-5.483c4.094,5.957,7.147,12.68,9.318,19.503l-8.21,5.438-16.641,12.108-18.693,14.654-10.912,9.244c-3.433,2.908-7.416,5.412-8.981,10.5l24.373-19.271c7.455-5.894,14.89-11.034,22.587-16.6l14.649-10.593c.953-.689,1.68-1.609,3.087-1.524l2.091,6.537-19.548,14.517-7.842,5.985-12.57,13.567c6.616-5.569,12.719-10.754,19.725-15.598,6.39-4.418,12.199-9.072,18.074-14.128.89-.766,1.676-1.475,2.842-1.595l2.223,9.885-33.178,24.547-14.554,11.945c.207.164.489.283.65.312l11.136-8.128,21.238-14.966,11.921-8.295c1.104-.768,2.009-1.617,3.369-1.403l.567,2.868.875,11.539c-1.077.051-1.988.764-3.054,1.5l-21.769,15.036c-.432.298-1.407.509-1.422,1.015-.011.389,1.089,1.274,1.593.934l19.284-12.986c1.871-1.26,3.494-2.73,5.499-3.139l.07,12.617c-2.311.496-4.207,1.683-6.31,2.975l-16.418,10.089c-7.817,4.803-14.661,10.265-21.872,16.082l-33.152,26.744-64.803,52.995-24.707,20.234-14.22,11.074c-2.015,1.569-4.096,3.229-5.082,5.232l-13.865-4.179c-.028-1.364.946-1.789,1.93-2.502l23.378-16.946,37.655-29.006,18.762-14.669c10.371-8.109,20.79-15.873,29.804-25.908l-23.888,17.469c-1.985.623-3.575,1.553-5.23,2.882l-28.009,22.509c-1.033.83-1.605,1.777-3.165,1.055l-29.437,22.196-28.082,20.901-10.382-4.419c1.014-1.608,2.292-2.771,3.957-3.918,16.193-11.16,31.43-23.003,46.811-35.295l17.306-13.831c7.566-6.046,14.926-11.729,22.062-18.546-3.096.359-4.741,2.739-6.838,4.459l-18.611,13.569-21.282,14.988-24.22,17.778-23.155,16.531c-.761.544-1.21.947-1.176,1.812l-10.509-5.517c3.189-2.787,6.595-4.85,10.277-6.944,6.904-3.927,12.935-8.672,18.999-13.704l8.251-6.847,39.025-30.983,4.686-3.458c.559-.412.65-.806.428-1.128-.22-.32-.927-.684-1.398-.351l-14.13,9.984-10.856,7.557-19.243,14.081-16.074,11.541-13.475,9.553-11.538,7.642-7.757-5.042c.242-1.469,1.289-2.013,2.368-2.883,9.308-7.502,17.909-15.443,27.875-22.078l16.919-12.37c1.259-.921,2.429-1.003,3.796-2.116l12.989-10.567c3.058-2.488,6.102-4.606,8.706-7.793-4.964,1.743-8.112,5.25-12.09,7.907l-21.731,14.511-21.74,15.647-17.156,12.739c-1.621,1.203-3.325,2.154-4.339,3.949-3.033-2.104-5.965-4.345-8.712-6.742,4.737-5.364,10.186-9.645,15.457-14.361l7.583-6.785,4.976-4.876c12.196-10.643,24.937-20.174,37.832-29.878,1.904-1.433,3.861-2.52,4.83-4.891-4.636,1.879-7.936,4.45-11.821,7.104-19.17,13.09-37.312,27.032-55.017,42.013l-9.046,7.134-7.288-7.052,48.273-41.039,14.658-12.03c-.154-.137-.416-.441-.559-.681l-5.323,3.11c-20.938,14.831-40.939,30.535-60.586,47.032l-5.82-6.67,9.542-8.165,12.839-11.371c6.698-5.932,12.697-11.995,19.717-17.636l22.881-18.384-.677-.606-7.824,4.699c-15.392,10.399-29.76,21.578-43.946,33.558l-16.006,13.719c-2.271-2.736-4.306-5.6-6.198-8.615,8.14-5.302,12.153-14.408,19.899-19.978,7.651-5.501,14.597-11.225,21.829-17.318l23.396-19.711c.503-.423.839-.959.595-1.363-.182-.302-1.113-.409-1.534-.101l-15.951,11.648-26.627,20.457-11.244,9.486-6.336,5.77-6.953,6.45c-2.308-3.677-4.643-7.387-6.597-11.242l23.336-20.564,36.835-32.102c2.193-1.911,4.016-3.578,6.834-5.14-3.156-1.559-4.462,1.035-6.62,2.499-15.266,10.353-29.354,21.566-43.277,33.647l-17.298,15.01c-.753.654-1.439,1.163-2.506,1.328-1.591-3.14-3.023-6.417-4.199-9.744l9.732-8.148,24.498-22.066,19.035-16.688,26.871-22.979-.738-.52-22.769,16.585-18.143,14.043c-6.143,4.755-11.864,9.339-17.649,14.565l-22.652,20.097c-1.563-3.778-2.83-7.725-3.768-11.71l4.362-3.46c3.903-3.326,7.703-7.023,11.996-9.829-.56-1.528.047-2.036,1.01-3.025,12.927-13.282,27.452-24.123,41.686-36.008,16.22-13.543,32.176-26.463,49.303-39.015l-31.001,20.497-26.679,20.601c-17.426,13.457-33.741,27.623-49.081,43.401-.868.893-1.631,1.462-2.798,1.728-.935-3.974-1.673-8.041-2.294-12.088,1.203-.285,2.117-1.151,3.025-1.948l5.849-5.139,22.64-19.883,17.084-15.752c7.611-7.018,14.861-13.657,22.91-20.241l35.033-28.652-.811-.602-17.23,12.363-34.855,27.207-13.121,11.058-14.349,12.744-24.301,22.232c-.891.815-1.552,1.442-2.7,1.242l-1.08-12.588c.162.247.537.455.795.419.405-.056.631-.391,1.101-.835,26.281-24.848,53.382-48.495,81.434-71.335l6.325-5.379c10.823-9.205,21.654-17.805,33.359-26.066-3.591-.122-5.262,2.958-7.961,4.465-14.175,9.108-27.167,19.193-40.461,29.565l-18.456,14.399-14.15,11.807c-13.404,11.184-26.298,22.485-38.726,34.757-1.092,1.079-1.829,1.845-3.235,1.335.009-2.48-.295-4.841-.609-7.558l.877-5.077c19.226-18.255,39.222-35.58,60.12-52.163l10.092-8.373c-.552-3.319,2.486-4.005,5.047-5.961l16.656-12.725,22.002-16.902c-7.416,3.139-13.121,7.775-19.541,11.966-10.703,6.985-20.586,14.354-30.473,22.411l-20.316,16.557c-14.094,11.487-27.74,22.994-40.221,36.196-.777.822-1.143,1.458-2.276,1.41l1.544-9.048c.189-1.109-.539-2.196.489-3.552-3.906,1.819-6.58,6.616-11.071,8.707,1.663-6.921,3.649-13.764,6.302-20.364,1.339.101,2.502-.586,3.437-1.686l6.6-7.762c.61-.717,2.223-.741,3.044-1.041l4.786-7.727c.558-.9,1.523-1.184,2.249-2.581.786-1.513,1.764-3.912,3.232-4.61,1.451-.69,2.657-.989,3.841-2.644l2.833-3.96c1.08-1.51,1.634-2.933,1.078-4.644.187-.095.502-.369.445-.627,4.518-1.289,7.749-6.983,9.88-8.657l9.026-7.092c1.308-1.027,2.199-2.081,3.765-3.056-3.319.327-5.229,4.009-5.517.738,4.98-4.888,10.567-9.114,16.185-13.238,1.174.712,2.146,3.678.906,4.365-1.476.818-2.828,1.091-4.201,2.239-2.084,1.743-4.885,2.44-7.004,4.89,1.003.621,2.388-.384,3.188-1.315,1.093.049,1.691.29,2.861.703,2.861-3.233,6.345-5.545,9.45-8.457l9.781-9.172c.916-.859,1.027-2.339.009-3.067,14.501-8.515,29.791-15.045,46.66-19.407-1.935-1.737-3.977-.051-5.631.295-.189-.572-.284-1.454.01-2.048.217-.439,1.596-.365,1.981-.698,1.981-1.718,4.34-1.585,6.428-2.831l10.042-5.994,1.971-.577c.299-.088.318-.849.164-1.422,14.511-2.291,33.794-1.758,48.47.828ZM187.228,102.267c3.12-.836,5.379-3.097,7.146-5.327-1.46-.745-1.79.592-2.345.934-2.042,1.256-4.393,1.867-4.801,4.393ZM139.346,108.635l1.247-1.73c3.704-2.398,7.126-4.603,9.966-7.986l-4.725,2.312-11.254,7.644c1.79.374,3.088.28,4.766-.239ZM178.8,102.147c.733-.479.08-1.491-.694-.936l-9.25,6.646c.092.244.488.467.854.228l9.091-5.938ZM169.848,104.681l-6.207,4.476c2.781-.5,4.711-2.338,6.207-4.476ZM201.579,106.58c-2.874-.39-3.84,1.723-5.422,2.942-1.819,1.822-4.524,2.684-4.944,5.78l10.367-8.722ZM155.718,111.992c.603-.162.95-.581.976-.781.214-1.635-16.472,7.836-20.536,12.454l19.56-11.674ZM137.053,118.684c-.8.913.127.971.456.969.709-.004,1.023-.583.81-.952-.189-.328-.797-.552-1.266-.017ZM135.006,121.391c1.105-.508.129-1.904-.707-.948-.498.314-.991.385-1.16.569-.201.219.004.819.299.866.246.039.698-.088,1.568-.488ZM131.519,123.195c1.344-.7.04-1.905-.787-.829-1.596.723.022,2.184.787.829ZM34.714,194.934l-3.469,8.243c-.104.247.032.711.243.887,1.317-1.732,1.685-3.776,2.578-5.656,8.5-7.892,17.731-14.711,27.015-22.005l23.512-18.472,13.664-10.407c1.833-1.396,2.536-1.144,3.722-3.545.78-1.579,3.652-3.571,5.238-4.77l10.22-7.722,7.718-4.312c1.683-.941,3.241-1.559,4.904-3.265-1.514.264-2.422.129-3.936.083l-4.937,2.713c-2.065-.058-3.35-.024-5.036,1.236l-10.521,7.868-20.21,15.444-19.071,14.867-25.902,21.794c-1.113.937-1.621,1.751-3.247,1.733-.385.744-.499,2.541-1.617,2.769.492-1.51-1.061-1.955-1.067-.428.372.589,1.232.9,1.334,1.366.153.693-.95,1.139-1.135,1.577ZM136.125,123.653c-1.819.23-3.203,1.134-3.718,2.717,1.702-.194,3.037-.729,3.718-2.717ZM65.534,162.698c3.397-3.599,7.386-5.861,11.003-8.84l9.781-8.055,19.938-15.672c1.228-.965,2.222-2.091,2.366-3.7-3.16.964-5.05,2.785-7.416,4.35-10.534,6.971-24.16,18.38-32.969,27.452-2.182,2.248-5.103,3.621-6.505,6.817,1.547-.125,2.683-1.168,3.801-2.352ZM142.06,128.212l-.288.288.288.288.288-.288-.288-.288ZM83.956,136.266l-.288.288.288.288.288-.288-.288-.288ZM153.858,138.599c-2.029.089-3.021.9-3.677,2.248,1.76-.186,2.847-1.053,3.677-2.248ZM164.631,162.133c-.101.989-1.206,2.459.036,3.516l-.021,83.895c-1.15,1.66-.224,3.697-.004,5.264.845,6.013,3.864,11.133,9.448,14.33,5.942,3.402,12.956,4.231,19.684.705,4.908-2.573,10.46-8.433,10.444-15.345l-.203-92.022c-.022-10.087-9.086-17.698-18.316-18.065-11.325-.45-19.983,7.094-21.068,17.722ZM277.383,150.052c1.151-.479,2.653-1.403,2.358-3.144l-10.927,8.417c5.199.187,5.231-3.884,8.569-5.272ZM141.485,165.606l-.288.288.288.288.288-.288-.288-.288ZM136.579,169.514c2.075-.451,2.659-1.663,3.674-2.707-1.819.406-3.12,1.274-3.674,2.707ZM140.996,188.039c1.617-.102,2.297-1,2.528-2.121-1.241.36-2.207.874-2.528,2.121ZM301.145,211.697l12.632-8.15c6.504-4.196,12.854-8.765,17.442-15.621l-12.243,8.758-7.034,5.05c-3.735,2.682-7.606,4.847-10.976,8.003l-.53,1.008c-.145.277.412,1.144.709.952ZM299.116,241.545l-.288.288.288.288.288-.288-.288-.288ZM70.637,252.952l10.459-10.772c-2.285.689-4.037,2.036-5.458,3.447l-8.99,8.926c1.704.664,2.943-.524,3.988-1.6ZM113.296,251.9l-.288.288.288.288.288-.288-.288-.288ZM293.457,257.931l-.375.01.375.01h.388l.375-.01-.375-.01h-.388ZM129.979,283.541l-.288.288.288.288.288-.288-.288-.288ZM139.085,295.589c1.065-.528.067-1.648-.604-.625-.642.257-1.324.701-1.275,1.018.05.324.591.503.84.33l1.038-.722ZM263.779,298.287c-.275-.348-1.618-.255-1.812.899-.072.426.526.544.785.279.156-.161.703-.068,1.028-1.178ZM261.764,299.849c-2.359-.768-2.914-.236-3.716,1.091.675.507,1.735.604,2.477.479.541-.091,1.395-1.164,1.24-1.57ZM172.551,313.457l-.288.288.288.288.288-.288-.288-.288Z"></path>
  <path class="st0" fill="#F5507D" d="M356.09,278.926c-.89,6.088-2.656,12.019-4.462,17.895-1.824-.304-2.434.734-3.094,1.914l-2.449,4.377c-2.516,3.02-5.346,5.524-7.003,9.117-1.128,2.446-3.615,3.437-4.866,5.488l-4.108,6.732c-.01-.696-.806-1.264-1.101-1.046l-24.197,17.873-23.682,16.594-13.331,9.676c-.633.46-1.273,1.184-1.524,1.679-.264.519.35,1.648.516,2.421l-6.753,5.347-5.805,3.469-15.896,11.177-14.635,10.134c-.172.119-1.311-.193-1.325.015l-.058.844-8.634,1.05-7.982.65c-.657-.693-1.699-.63-3.52-.653l11.726-8.759c.485.831.049,1.369-.024,1.785.855.328,2.181.903,3.001.506,5.473-2.646,9.47-6.9,14.316-10.423l13.978-10.162,13.033-9.458,11.101-8.421,4.771-5.059,9.614-8.77,3.448-2.929c-.03-.124-.032-.385-.319-.757l-13.263,9.191c-6.354,5.268-12.263,10.555-19.129,15.267-6.004,4.12-11.473,8.919-18.884,11.584l29.564-23.32c6.225-4.91,12.189-9.333,19.115-13.072.801-.476,1.208-2.028,2.434-2.046,1.018-.015,1.975.14,3.007,1.159l9.924-7.414c10.362-7.742,20.488-15.235,30.263-23.704l7.878-6.026c1.244-.951,3.11-.682,3.038-3.531,1.073.601,1.226,1.264,1.662,1.259l4.502-7.654c-2,.568-2.189,1.606-3.366,1.47l.678-3.837c.435-2.462,1.738-4.651,1.788-6.94.361.018,1.11.098,1.452-.277l5.868-6.433c1.047.898,1.648,1.639,2.732,2.019Z"></path>
  <path class="st0" fill="#F5507D" d="M345.147,313.544l-5.586,11.173c-.904-.318-1.246-.092-1.849.594l-7.047,8.016c-2.026,2.305-3.825,3.77-5.479,6.579-3.002,5.099-8.06,8.86-12.411,12.778l-1.21,3.517c.811-.478,1.874-.934,2.362-1.733,1.509-2.468,3.639-3.966,5.635-5.895,1.622-1.568,3.059-2.536,5.544-1.488-10.399,14.003-23.268,25.893-37.944,35.797-7.455,5.031-14.793,9.206-22.776,12.598.626-3.809,2.91-6.964,6.124-9.086l16.606-10.962c1.302-.86,1.733-2.039,2.74-3.089l6.775-7.061,2.714.558c.658-1.915,2.388-1.683,3.7-1.498,2.122-5.241,7.055-6.282,5.694-9.047-2.846,1.082-4.597,2.9-6.673,4.544l-11.58,9.173c-9.089,7.2-17.902,14.337-27.702,20.546-1.409.893-1.606,1.413-2.552,2.841-1.765,2.665-5.938,4.138-5.531,7.195-8.922,3.791-18.229,6.406-27.794,8.143-.054-4.095,5.336-4.894.381-5.903,1.696-.737,4.102-.494,5.586-1.917l3.228-3.096,13.066-9.33,14.679-10.357.712,2.515c1.18-.376,1.824-1.085,2.095-1.598.587-1.113-3.243-3.284-1.057-4.04,2.854-.987,4.609-2.805,7.66-4.391l-5.713,7.266,11.645-7.708,17.856-14.076c-2.617.165-4.081,1.476-5.843,2.702l-7.004,4.873-10.872,7.436c1.442-3.71,4.802-5.142,7.627-7.261l17.39-13.048,8.27-6.124,19.923-14.56c.814-.595,1.217-1.819,2.078-1.983.136.367.141.641.135.97-.006.305.463.445.578.022.074-.27.097-.546.066-.779,1.279-.168,1.878-1.429,2.856-2.316,3.217-2.915,6.315-5.806,7.921-9.935.533-1.369.9-2.813,2.378-3.478l2.593,1.921ZM297.39,354.303l-.288.288.288.288.288-.288-.288-.288ZM263.189,380.829c1.463-.608.134-1.82-.571-.628-1.44.55-.108,1.862.571.628ZM261.277,382.437c.941-2.122-1.791-.647-4.214,2.657.042.011.479.116.749.308l3.465-2.965ZM252.564,390.884c1.891-1.65,3.529-3.235,4.607-5.43-1.764.166-3.697.144-4.251,1.231l-1.898,3.723-6.419,6.676c3.648,1.081,3.965-2.714,7.961-6.201Z"></path>
  <path class="st0" fill="#F5507D" d="M329.398,327.352l-.779-.214c-.102-.303-.018-.482.095-.75.153-.365.556-.303.591.022l.093.942Z"></path>
  <path class="st0" fill="#F5507D" d="M109.784,109.049c-18.745,9.923-35.31,23.474-48.951,39.992l-3.744,4.848c-.996-.39-2.278-.414-3.131.451l-8.246,8.361c-.408.413-.066,1.635.276,1.786.379.167,5.771-3.702,5.286-3.074-.233,1.506-.952,2.689-1.828,3.722-.872-.283-1.496-.004-2.231.955-1.548,2.022-4.749,3.671-5.618,6.131-.688,1.947-.85,2.807-2.305,4.299-3.658,3.75-6.922,7.878-11.043,11.029,6.451-16.048,15.842-30.908,26.973-43.813,3.136-.761,4.914-3.679,7.333-5.524,2.587-1.972,4.705-4.077,7.235-6.048l8.742-6.811c5.162-4.021,9.995-7.998,15.596-11.415,1.445-.882,3.112-2.068,3.773-3.465.312-.658-.542-1.858-1.174-1.76-.455.071-1.06.265-1.821.054,12.149-7.785,25.263-14.027,38.931-18.623l-18.481,14.49c-2.88-.222-5.407,1.777-5.573,4.415Z"></path>
  <path class="st3" fill="#F5507D" d="M18.093,262.831l.186,3.324,4.015-3.181c.7-.555,1.462-.859,2.191-.866l.427,4.123c-1.348.696-3.897,1.746-4.235,3.438-.462,2.312,1.155,4.422,1.438,6.347-.495.223-.587.712-.584,1.196l-2.188-7.378c-.271-.971-.476-2.201-.685-3.594-1.631.72-1.508,2.039-1.24,3.511.505,2.77.355,5.322.692,8.089l.695,5.709.857-.016-.301-3.196c.896.373,1.816.46,2.791.302l2.397,8.611c3.005,10.792,7.239,20.792,12.231,30.534,4.709,9.19,10.363,17.968,16.449,26.358-1.083.116-1.586,1.156-2.52,1.639l-4.287,2.263c-22.93-31.636-35.649-75.906-30.617-115.377l1.173-9.201c.133-1.042.384-1.855.944-2.521.4,1.777-.08,3.419-.282,5.417l-.696,6.861c-.866,8.535-.892,16.729.131,25.323l-.108,1.889c-.019.332.602.605,1.126.396Z"></path>
  <path class="st0" fill="#F5507D" d="M296.191,118.155l-3.694,3.142c-.869.733-1.708,1.238-1.765,2.292-7.02-5.074-13.959-10.199-21.774-14.396l-12.324-6.619c.471-1.853,3.042-1.909,4.304-4.79-2.584-.317-6.445,1.413-8.81,2.997-.852-.524-2.329-.878-3.373-1.298-.005-.441.099-.958.542-1.208l4.964-2.794-2.653-1.248c-.743-4.066-2.693,1.667-8.072,3.15l-5.742-1.812c.059-2.746,4.928-2.633,4.711-5.967-2.328.047-3.696,1.665-5.46,2.715l-3.175,2.024-14.218-3.626c1.512-1.179,3.507-1.049,4.625-3.104-2.243-.593-3.907,1.229-5.324,2.624-1.128,1.11-2.665-.162-3.562-.26-.387-3.803,3.073-4.608,2.237-7.219,8.054,1.677,16.18,3.055,24.189,5.736,4.336,1.452,8.501,2.594,12.642,4.527l10.29,4.804c11.48,5.36,21.674,12.669,31.441,20.333Z"></path>
  <path class="st3" fill="#F5507D" d="M130.453,394.269l-.899,4.569c-21.886-8.092-41.683-20.986-58.67-36.99.997-.77,1.883-1.426,2.652-2.662,16.447,15.428,35.667,27.398,56.918,35.084Z"></path>
  <path class="st3" fill="#F5507D" d="M350.168,162.118l-6.044,5.181c-5.265-10.135-12.127-19.371-19.57-28.068,1.831-.602,2.771-2.088,4.424-3.192,7.728,8.057,14.972,16.75,21.19,26.078Z"></path>
  <path class="st0" fill="#F5507D" d="M359.132,243.2c-.75,1.408-.77,3.378.013,4.768.003,1.24.188,2.52.08,3.72-.813-.043-.76.819-.071.789l-.945,11.955c-1.399,2.599-3.791,3.302-6.406,4.929-.771.48-1.181,2.817-2.792,2.195l1.701-9.813c6.54-4.173,8.491-5.844,7.387-13.878-2.379,1.012-4.444,2.275-6.779,2.189l-.179-14.803c1.352-.011,2.336-1.178,3.034-2.008,1.273-1.513-2.681-4.023,2.959-8.407l1.999,18.364Z"></path>
  <path class="st0" fill="#F5507D" d="M315.492,136.802c-.775,2.441-2.721,4.115-5.227,4.607l-3.967-4.488c1.829-1.165,3.927-2.086,3.497-4.716-2.011.911-3.522,2.031-4.795,3.502l-12.547-10.875,5.329-5.428c6.485,5.088,12.68,10.843,17.71,17.399Z"></path>
  <path class="st3" fill="#F5507D" d="M264.388,395.48l-9.683,4.115c-.408-3.057,3.766-4.529,5.531-7.195.945-1.428,1.143-1.948,2.552-2.841,9.799-6.21,18.613-13.346,27.702-20.546l11.58-9.173c2.076-1.645,3.828-3.463,6.673-4.544,1.361,2.765-3.572,3.806-5.694,9.047-1.312-.185-3.042-.417-3.7,1.498l-2.714-.558-6.775,7.061c-1.007,1.049-1.438,2.229-2.74,3.089l-16.606,10.962c-3.214,2.122-5.498,5.277-6.124,9.086Z"></path>
  <path class="st3" fill="#F5507D" d="M55.222,143.735c.408-.975,1.115-1.512,1.93-2.437,11.086-12.581,23.797-23.587,37.754-32.531.761.211,1.367.017,1.821-.054.632-.098,1.486,1.102,1.174,1.76-.661,1.397-2.328,2.583-3.773,3.465-5.601,3.417-10.434,7.394-15.596,11.415l-8.742,6.811c-2.53,1.971-4.648,4.076-7.235,6.048-2.42,1.844-4.197,4.763-7.333,5.524Z"></path>
  <path class="st0" fill="#F5507D" d="M218.869,403.815c.113,2.017-.876,3.902-1.768,5.704-9.977,1.812-20.257,2.24-30.393,1.439.127-1.788,2.974-2.939,3.283-5.57,9.668.064,19.345.003,28.877-1.573Z"></path>
  <path class="st1" fill="#001E50" d="M116.44,29.072c-1.39-9.973,6.314-18.154,15.57-20.212l-2.502,3.776c3.844-1.548,3.163-6.055,10.347-3.531-3.637,3.298-7.372,5.636-11.157,8.221l-12.258,11.746Z"></path>
  <path class="st0" fill="#F5507D" d="M50.927,332.78c7.122,9.192,14.323,18.346,22.609,26.406-.768,1.237-1.654,1.892-2.652,2.662-8.725-8.219-16.635-17.586-23.295-27.419l3.338-1.649Z"></path>
  <path class="st3" fill="#F5507D" d="M167.534,81.962c.154.574.135,1.335-.164,1.422l-1.971.577-10.042,5.994c-2.088,1.247-4.447,1.114-6.428,2.831-.384.333-1.764.259-1.981.698-.294.594-.199,1.476-.01,2.048-4.145.868-8.012,2.482-12.248,3.782l-6.7,2.056c-.261-1.173.715-1.17,1.376-1.642,5.664-4.048,11.713-6.676,17.707-9.886l10.783-6.345c3.208-.733,6.454-1.028,9.678-1.537Z"></path>
  <path class="st3" fill="#F5507D" d="M360.542,179.32c-3.16.44-1.75,4.888-7.384,7.12l-6.004-13.308c1.616-2.509,4.09-4.004,6.468-5.833l6.919,12.021Z"></path>
  <path class="st0" fill="#F5507D" d="M365.66,189.581c-.188.737-.462,1.436-1.09,2.061l-4.908,4.885c-.704.701-1.303,1.281-2.271,1.497l-4.232-11.582c5.634-2.232,4.223-6.68,7.384-7.12l5.118,10.26Z"></path>
  <path class="st0" fill="#F5507D" d="M374.222,212.838l-9.651,8.2c-.311.261-.67.796-1.008.845-.26.038-.689-.304-.851-.512l-1.74-9.847c1.541.487,2.378-.621,3.487-1.543,2.479-2.06,4.91-3.844,6.661-6.567l3.102,9.424Z"></path>
  <path class="st0" fill="#F5507D" d="M348.914,192.105l4.757,15.293c.286,2.14-3.458,5.723-5.381,5.335l-4.757-17.616c3.178-1.269,3.778-4.533,5.38-3.012Z"></path>
  <path class="st0" fill="#F5507D" d="M157.856,83.499l-10.783,6.345c-5.995,3.209-12.043,5.837-17.707,9.886-.661.472-1.637.469-1.376,1.642-1.105.339-2.421.69-3.387,1.117-.505-.204-.869-.65-.842-1.029.188-2.68,11.812-7.061,14.005-12.474l.396.029c.378.027.806-.147.701-.571,6.207-2.093,12.632-3.49,18.993-4.943Z"></path>
  <path class="st0" fill="#F5507D" d="M341.644,175.263l-5.161,3.716-7.875-13.817c1.218-3.34,4.024-3.659,4.322-5.548l8.713,15.65Z"></path>
  <path class="st0" fill="#F5507D" d="M330.401,155.785c-2.139.685-3.105,3.289-5.889,3.066l-9.55-12.201,5.926-3.587,9.513,12.722Z"></path>
  <path class="st3" fill="#F5507D" d="M172.875,404.671c.129,2.174-2.819,1.81-3.027,4.541-6.823-.708-13.588-2.313-20.247-3.968,1.814-.456,2.047-2.387,2.532-4.156l20.742,3.583Z"></path>
  <path class="st3" fill="#F5507D" d="M356.09,278.926c-1.084-.38-1.685-1.121-2.732-2.019l-5.868,6.433c-.342.375-1.091.295-1.452.277.04-1.855,1.167-3.363,1.576-5.335l1.395-6.727c1.611.622,2.021-1.716,2.792-2.195,2.615-1.626,5.007-2.33,6.406-4.929l-2.118,14.494Z"></path>
  <path class="st0" fill="#F5507D" d="M377.215,224.688c-1.007.24-1.75,1.034-2.723,1.606-1.129.664-2.443-.064-3.296-1.232l-6.974,6.183-.934-7.046c.62-.041,1.3-.291,1.944-.809l7.343-5.905c.82-.659,1.234-1.692,2.353-1.842l2.286,9.045Z"></path>
  <path class="st3" fill="#F5507D" d="M49.445,165.134l-.466.93-5.075,8.768-4.786,7.727c-.82.3-2.434.324-3.044,1.041l-6.6,7.762c-.935,1.1-2.097,1.787-3.437,1.686l2.211-5.501c4.121-3.151,7.385-7.279,11.043-11.029,1.455-1.492,1.618-2.352,2.305-4.299.869-2.46,4.069-4.11,5.618-6.131.734-.959,1.358-1.238,2.231-.955Z"></path>
  <path class="st3" fill="#F5507D" d="M49.385,167.641l-.405-1.577c.492.096.922-.176,1.206-.564,2.345-3.195,4.319-6.464,6.95-9.108.556,1.711.002,3.134-1.078,4.644l-2.833,3.96c-1.184,1.655-2.39,1.954-3.841,2.644Z"></path>
  <path class="st3" fill="#F5507D" d="M324.75,131.631c-1.35,1.051-3.066,1.817-3.714,3.489-4.903-5.73-10.161-11.163-15.958-15.995l.734-3.352c6.82,4.632,13.239,9.917,18.937,15.857Z"></path>
  <path class="st1" fill="#001E50" d="M168.851,73.991c.296-.139.484-.339.577-.701,2.979-.884,5.434-3.248,8.189-5.146.137.751.414,1.88,1.075,1.794.482-.063,5.295-4.607,9.541-6.54-.243,3.221-2.572,4.61-3.718,6.73-3.236,5.983-8.461,4.623-8.704,4.096-.17-.369-.018-.948-.849-1.742-.755,3.297-5.363,2.964-6.16,2.51-.193-.11-.041-.821.05-1ZM177.153,70.682l-.288.288.288.288.288-.288-.288-.288ZM176.003,71.833l-.288.288.288.288.288-.288-.288-.288Z"></path>
  <path class="st1" fill="#001E50" d="M169.427,73.29c-.025.218-.794-.036-.577.701-1.382.647-2.297,1.796-4.428,1.894-.137-1.274-.986-4.76.149-5.933,4.976-5.138,10.036-7.906,14.908-12.364,1.114,1.974-.825,2.528-1.257,3.393-3.671,7.332-8.064,9.46-8.794,12.309Z"></path>
  <path class="st3" fill="#F5507D" d="M137.766,88.985c-2.193,5.413-13.816,9.795-14.005,12.474-.027.379.337.825.842,1.029l-14.819,6.561c.166-2.638,2.693-4.637,5.573-4.415l18.481-14.49c1.292-.434,2.536-1.26,3.928-1.159Z"></path>
  <path class="st0" fill="#F5507D" d="M369.247,198.124c.094,2.126-1.685,2.969-3.21,4.21-2.119,1.724-3.64,4.122-6.202,4.691l-1.316-5.204c1.102-.02,1.839-.663,2.636-1.499l6.294-6.504,1.798,4.307Z"></path>
  <path class="st3" fill="#F5507D" d="M371.12,203.414c-1.751,2.724-4.182,4.508-6.661,6.567-1.109.922-1.946,2.03-3.487,1.543l-1.137-4.499c2.563-.569,4.083-2.968,6.202-4.691,1.525-1.24,3.304-2.083,3.21-4.21l1.873,5.29Z"></path>
  <path class="st0" fill="#F5507D" d="M379.868,239.587l-6.037,5.061c-.136-2.131-1.138-4.011-2.238-5.128,1.097-2.03,3.108-3.976,4.687-5.597,2.549-2.619-.287-4.926,1.354-6.723l2.235,12.387Z"></path>
  <path class="st3" fill="#F5507D" d="M355.863,217.809c-2.288,1.179-3.988,4.14-3.927,6.749.022.948,1.285,1.558,1.851,1.529,1.556-.08,1.612-2.191,3.165-2.412-.008.403.144.819.181,1.16-5.64,4.385-1.686,6.894-2.959,8.407-.698.83-1.683,1.997-3.034,2.008l-.714-9.659c-.031-.413.315-1.169-.405-1.332l-.51-4.808c.947.319,1.647.003,2.435-.729l3.29-3.012c.842.442.4,1.558.628,2.098Z"></path>
  <path class="st1" fill="#001E50" d="M142.948,34.524c-2.145,2.782-6.115,5.052-10.084,3.692,1.737-2.25,3.93-3.741,6.23-5.311l10.769-7.351-6.914,8.97Z"></path>
  <path class="st2" fill="#001E50" d="M23.204,279.551l.587,2.798c1.135,5.41,2.512,10.845,4.609,15.974l2.25,5.506,4.083,9.069c.636,1.414,1.283,2.827,2.201,4.045l.722,2.424c-.274.068-.5.164-.876.417-4.992-9.742-9.226-19.742-12.231-30.534l-2.397-8.611-.053-1.124c-.012-.257-.317-.541-.555-.579l-.014-1.725c-.004-.484.089-.973.584-1.196.196,1.331.838,2.341,1.088,3.534Z"></path>
  <path class="st2" fill="#001E50" d="M19.748,218.514l-.949,5.854-.271,5.132c-.152,2.871-.388,5.719-.607,8.566-.294,3.819-.587,7.604-.388,11.43l.369,7.091.196,5.085-.015.582.01.576c-.524.21-1.145-.064-1.126-.396l.108-1.889c-1.023-8.594-.997-16.787-.131-25.323l.696-6.861c.203-1.998.682-3.64.282-5.417-.33-1.467.251-3.038.587-4.435l1.237.004Z"></path>
  <path class="st3" fill="#F5507D" d="M189.992,405.389c-.309,2.631-3.156,3.783-3.283,5.57l-13.398-1.322c1.465-.004,3.451.328,5.06-.429,1.234-.581,1.666-2.718,1.974-3.883l9.647.064Z"></path>
  <path class="st0" fill="#F5507D" d="M353.622,167.299c-2.378,1.83-4.851,3.324-6.468,5.833l-3.031-5.834,6.044-5.181,3.454,5.182Z"></path>
  <path class="st3" fill="#F5507D" d="M320.889,143.063l-5.926,3.587-4.698-5.241c2.506-.492,4.452-2.166,5.227-4.607,2.378,1.533,3.765,4.08,5.396,6.261Z"></path>
  <path class="st0" fill="#F5507D" d="M53.231,346.143l2.991,4.123-5.43,5.805-4.368-6.027,4.287-2.263c.934-.482,1.437-1.523,2.52-1.639Z"></path>
  <path class="st0" fill="#F5507D" d="M290.582,106.627c2.112.369,3.909,1.456,5.806,2.745l9.425,6.402-.734,3.352-4.42-3.684-11.201-8.455c.492-.384.828-.412,1.124-.36Z"></path>
  <path class="st3" fill="#F5507D" d="M367.449,193.817l-6.294,6.504c-.797.837-1.534,1.479-2.636,1.499l-1.128-3.798c.968-.216,1.567-.796,2.271-1.497l4.908-4.885c.628-.625.903-1.324,1.09-2.061l1.789,4.237Z"></path>
  <path class="st0" fill="#F5507D" d="M44.092,322.364l5.767,8.922c-1.14.561-1.933,1.381-2.448,2.376-.547-.258-1.125-.687-1.556-1.361l-4.912-7.674c.463-1.303,1.675-1.938,3.149-2.263Z"></path>
  <path class="st3" fill="#F5507D" d="M217.629,82.755c.835,2.611-2.624,3.416-2.237,7.219l-10.218-1.122c5.008-.783,6.903-5.074,10.831-6.062.451-.114,1.162-.131,1.625-.035Z"></path>
  <path class="st3" fill="#F5507D" d="M30.318,208.257c-.848.232-1.01.945-1.175,1.729-.814.009-1.558.466-2.288,1.218l-7.106,7.309-1.237-.004,1.225-5.098c4.49-2.091,7.165-6.888,11.071-8.707-1.028,1.357-.299,2.443-.489,3.552Z"></path>
  <path class="st3" fill="#F5507D" d="M330.401,155.785l2.53,3.827c-.299,1.889-3.104,2.208-4.322,5.548l-4.097-6.31c2.784.223,3.75-2.38,5.889-3.066Z"></path>
  <path class="st1" fill="#001E50" d="M190.664,73.999c-1.192.757-3.273.259-4.843-.097,3.098-4.496,6.706-6.495,11.048-9.279.607,2.164-.69,2.987-1.732,4.194l-4.473,5.182Z"></path>
  <path class="st0" fill="#F5507D" d="M173.991,404.784c-.301.591.583,1.021.574.078l5.781.463c-.309,1.165-.74,3.302-1.974,3.883-1.609.758-3.595.425-5.06.429l-1.046.003c.05-.644-.542-.695-.873-.649l-1.02.14-.523.081c.207-2.731,3.155-2.366,3.027-4.541l1.115.113Z"></path>
  <path class="st0" fill="#F5507D" d="M343.252,178.811l1.645,3.929c.07.167.363.417.504.479l.043,1.298c-1.785.132-2.471,2.393-4.882,3.057l-2.19-4.613c1.47-1.707,2.707-3.621,4.879-4.15Z"></path>
  <path class="st3" fill="#F5507D" d="M374.929,215.643c-1.12.15-1.533,1.183-2.353,1.842l-7.343,5.905c-.644.518-1.324.768-1.944.809l-.577-2.829c.161.207.59.549.851.512.338-.049.698-.584,1.008-.845l9.651-8.2.707,2.805Z"></path>
  <path class="st0" fill="#F5507D" d="M328.978,136.039c-1.653,1.104-2.593,2.589-4.424,3.192l-3.518-4.111c.648-1.673,2.364-2.439,3.714-3.489l4.228,4.408Z"></path>
  <path class="st3" fill="#F5507D" d="M354.743,213.287c-2.365,1.252-3.249,3.959-5.341,4.152l-1.11-4.707c1.923.388,5.667-3.195,5.381-5.335.589,1.893,1.116,3.83,1.071,5.889Z"></path>
  <path class="st0" fill="#F5507D" d="M355.863,217.809c.717,1.7,1.128,3.954,1.089,5.866-1.553.22-1.609,2.331-3.165,2.412-.566.029-1.829-.581-1.851-1.529-.061-2.609,1.639-5.57,3.927-6.749Z"></path>
  <path class="st1" fill="#001E50" d="M212.132,40.915c-2.363,4.061-4.976,5.346-9.533,4.016,3.217-3.601,5.048-5.293,9.533-4.016Z"></path>
  <path class="st0" fill="#F5507D" d="M152.134,401.088c-.485,1.769-.718,3.7-2.532,4.156l-5.621-1.397,4.137-3.762,4.016,1.003Z"></path>
  <path class="st3" fill="#F5507D" d="M343.252,178.811c-2.172.529-3.409,2.442-4.879,4.15l-1.889-3.982,5.161-3.716,1.607,3.548Z"></path>
  <path class="st0" fill="#F5507D" d="M136.109,396.64c-.951,1.395-1.701,2.879-3.23,3.427l-3.325-1.229.899-4.569,5.656,2.371Z"></path>
  <path class="st0" fill="#F5507D" d="M68.378,375.82c-1.536-1.207-3.074-2.945-4.482-4.371l3.118-1.708c1.699.633,2.745,2.28,3.348,3.831l-1.984,2.248Z"></path>
  <path class="st3" fill="#F5507D" d="M148.118,400.085l-4.137,3.762-4.01-1.49c1.242-.963,2.249-2.013,3.002-3.486l5.145,1.214Z"></path>
  <path class="st0" fill="#F5507D" d="M77.064,383.886c-1.262-1.125-3.044-1.995-3.683-3.742,3.412-1.289,5.412-1.938,7.04,1.014l-3.357,2.728Z"></path>
  <path class="st3" fill="#F5507D" d="M345.444,184.517c.912.966,1.373,2.242,1.717,3.508-2.521-.521-3.174,1.483-5.15,2.826-1.077-.536-1.052-2.443-1.448-3.277,2.411-.664,3.097-2.925,4.882-3.057Z"></path>
  <path class="st1" fill="#001E50" d="M166.606,63.615l-2.126,4.918-.212-8.169,3.995-2.391c-.385.8-1.139,1.393-.916,2.134.392,1.306-.138,2.115-.74,3.508Z"></path>
  <path class="st3" fill="#F5507D" d="M297.782,119.404l-5.329,5.428-1.72-1.244c.057-1.053.895-1.559,1.765-2.292l3.694-3.142,1.591,1.248Z"></path>
  <path class="st0" fill="#F5507D" d="M40.031,315.083l2.039,3.893c-.785,1.074-1.591,1.969-2.793,2.414l-1.62-2.022-.722-2.424c1.011-.626,1.736-1.558,3.096-1.861Z"></path>
  <path class="st3" fill="#F5507D" d="M348.914,192.105c-1.602-1.521-2.203,1.743-5.38,3.012-.229-.849-1.286-1.971-1.089-2.994,1.638-1.061,3.5-1.994,4.71-3.51.976.933,1.372,2.244,1.76,3.492Z"></path>
  <path class="st1" fill="#001E50" d="M198.258,40.54c-1.56,2.484-4.471,4.859-7.896,3.877l3.88-3.586c.695-.642,2.197-.995,4.016-.291Z"></path>
  <path class="st3" fill="#F5507D" d="M290.582,106.627c-.296-.052-.633-.024-1.124.36l-10.156-6.355c-.06-.464.317-.573.629-.684l10.08,5.484c.522.284.657.787.571,1.196Z"></path>
  <path class="st0" fill="#F5507D" d="M142.973,398.871c-.753,1.473-1.76,2.523-3.002,3.486l-3.083-.767c.482-1.463,1.299-2.639,2.205-4.004,1.316.417,2.611.986,3.88,1.285Z"></path>
  <path class="st0" fill="#F5507D" d="M354.732,213.776c-.008.384.143.756.535.735.073.369.018.81-.032,1.2l-3.29,3.012c-.789.733-1.488,1.049-2.435.729l-.109-2.014c2.092-.193,2.977-2.901,5.341-4.152l-.011.49Z"></path>
  <g>
    <path class="st3" fill="#F5507D" d="M379.868,239.587l-6.037,5.061c-.136-2.131-1.138-4.011-2.238-5.128,1.097-2.03,3.108-3.976,4.687-5.597,2.549-2.619-.287-4.926,1.354-6.723l-.418-2.512c-1.007.24-1.75,1.034-2.723,1.606-1.129.664-2.443-.064-3.296-1.232l-6.974,6.183c1.533,19.113.74,38.107-3.763,57.073-2.49.123-4.312.396-4.369.865-.182,1.492-1.778,6.35-2.769,10.31-.991,3.961-3.286,11.367-3.867,14.511-.581,3.144-13.856,23.412-15.103,26.139-.484,1.057-3.491,4.748-7.391,9.324l11.982-10.5c-.799,1.237-1.604,2.469-2.414,3.696.151.031.279.033.399.022l-15.668,13.386c-4.928,5.652-10.06,11.43-13.082,14.852-5.307,6.009-17.567,14.947-30.776,22.617l-11.354,9.7-.03-.371,9.248-8.103c-3.34,1.89-6.719,3.686-10.043,5.32-17.267,8.488-53.133,13.969-53.133,13.969l-1.206,1.096c-14.718,1.308-29.53.487-44.383-1.86l-5.258-.831c-4.484-.708-8.783-1.401-13.055-3.136-1.275-.518-2.859-.273-3.889-.161-1.413-1.352-3.177-1.6-5.12-2.214-14.078-4.449-27.053-10.769-39.707-18.452l-20.607-14.964-4.319-3.862c-.887,1.203-1.955,2.058-3.291,2.478-.212-1.081.098-1.451.503-2.331-.974.414-1.553.555-1.926.335-.612-.361-.859-1.254-.33-1.799.667-.687,1.435-1.03,2.215-1.421l-9.934-10.265-5.559-6.403-5.43,5.805c3.95,5.45,8.399,10.612,13.104,15.379l3.118-1.708c1.699.633,2.745,2.28,3.348,3.831l-1.984,2.248c1.109.872,2.263,3.275,3.76,3.681l.671.674c.086.087.432.022.572-.031,3.412-1.289,5.412-1.938,7.04,1.014l-3.357,2.728c15.105,13.467,36.005,25.842,55.317,33.344,19.959,7.754,40.792,12.175,61.857,13.054l-1.947,1.771,19.797,1.069s42.596-8.555,45.959-9.446c3.363-.891,17.311-5.881,21.088-7.485,3.777-1.604,24.561-12.96,24.561-12.96l16.515-10.712,16.262-13.464s11.067-10.807,13.269-14.158c2.202-3.351,12.591-19.462,13.547-21.991.956-2.529,10.094-14.937,11.641-18.282,1.547-3.344,4.939-28.247,4.939-28.247,0,0-.805-1.146-1.768-2.531,1.66-8.254,2.692-16.668,3.075-25.208.453-10.106.412-19.527-1.307-29.054Z"></path>
    <path class="st3" fill="#F5507D" d="M321.259,356.071c1.985-2.277,3.933-4.529,5.701-6.603l-51.696,45.298c.715-.404,1.427-.813,2.137-1.226l43.858-37.469Z"></path>
  </g>
  <path class="st0" fill="#F5507D" d="M74.543,369.671c-.887,1.203-1.955,2.058-3.291,2.478-.212-1.081.098-1.451.503-2.331-.974.414-1.553.555-1.926.335-.612-.361-.859-1.254-.33-1.798.667-.687,1.435-1.03,2.215-1.421l2.829,2.737Z"></path>
  <path class="st1" fill="#001E50" d="M223.432,40.151c2.248-1.771.328,6.299-6.092,4.8l6.092-4.8Z"></path>
  <path class="st3" fill="#F5507D" d="M139.093,397.586c-.906,1.365-1.723,2.541-2.205,4.004l-4.008-1.524c1.528-.548,2.278-2.032,3.23-3.427l2.984.946Z"></path>
  <path class="st1" fill="#001E50" d="M193.597,53.995c-1.776,3.442-4.445,5.495-7.793,6.958,1.707-3.189,4.507-5.62,7.793-6.958Z"></path>
  <path class="st3" fill="#F5507D" d="M44.092,322.364c-1.474.325-2.686.96-3.149,2.263l-1.666-3.237c1.202-.445,2.008-1.34,2.793-2.414.56,1.07,1.353,2.353,2.022,3.388Z"></path>
  <path class="st1" fill="#001E50" d="M206.721,74.347c-.78.932-2.886.465-3.551-.054,1.152-1.771,2.043-3.195,3.734-4.487.284,1.284.726,3.455-.183,4.541Z"></path>
  <path class="st1" fill="#001E50" d="M142.916,9.903l-7.76,7.516-.628-.518,7.408-7.623c.525-.54,1.402.218.981.626Z"></path>
  <path class="st0" fill="#F5507D" d="M347.16,188.025c.047.171.016.411-.006.588-1.209,1.516-3.072,2.449-4.71,3.51l-.435-1.272c1.977-1.342,2.63-3.346,5.15-2.826Z"></path>
  <path class="st1" fill="#001E50" d="M336.943,125.117c-1.674,3.208-4.076,5.913-4.745,4.513-.575-1.202,2.016-3.207,4.745-4.513Z"></path>
  <path class="st1" fill="#001E50" d="M178.577,50.173c-1.846,2.157-3.874,4.084-6.333,5.795,1.559-2.461,2.914-5.369,6.333-5.795Z"></path>
  <path class="st1" fill="#001E50" d="M279.93,99.947c-.312.111-.689.22-.629.684-2.214-1.385-4.959-1.928-6.858-3.842.101-.19.467-.435.821-.254l6.666,3.411Z"></path>
  <path class="st1" fill="#001E50" d="M196.39,26.434c-.933,2.568-2.603,3.65-4.685,4.672,1.084-2.184,2.449-3.988,4.685-4.672Z"></path>
  <path class="st3" fill="#F5507D" d="M50.927,332.78l-3.338,1.649c.412-.34.074-.649-.179-.768.515-.995,1.308-1.815,2.448-2.376.274.424.928.98,1.068,1.494Z"></path>
  <path class="st1" fill="#001E50" d="M313.368,108.217c-1.433,1.205-2.075,2.142-3.181,2.632-.202-.139-.641-.207-.632-.21,1.362-2.272,3.503-3.868,3.813-2.423Z"></path>
  <path class="st3" fill="#F5507D" d="M359.145,247.968c-.783-1.39-.763-3.36-.013-4.768l.013,4.768Z"></path>
  <path class="st1" fill="#001E50" d="M132.662,19.524c-.447.613-1.164.722-1.448.687-.237-.03-.505-.42-.137-.696l1.042-.781c.799-1.007,1.795.253.543.79Z"></path>
  <path class="st1" fill="#001E50" d="M129.083,21.002c.43-.76,1.081-.348,1.188-.079.135.337.017.682-.294.866-.225.133-.999.091-.894-.787Z"></path>
  <path class="st1" fill="#001E50" d="M315.871,105.922c-.92.997-1.92.104-.552-.505.556-1.768,2.372-.067.552.505Z"></path>
  <path class="st3" fill="#F5507D" d="M172.264,409.64c-.661.002-1.311-.183-1.893-.509l1.02-.14c.33-.045.923.006.873.649Z"></path>
  <polygon class="st1" fill="#001E50" points="223.271 17.457 223.659 17.457 224.034 17.467 223.659 17.478 223.271 17.478 222.895 17.467 223.271 17.457"></polygon>
  <path class="st1" fill="#001E50" d="M214.068,17.142c-1.544-1.389-2.616-.272-3.709.739-3.42,3.164-7.357,5.511-11.536,8.177-1.384-2.016.896-2.178,1.831-2.856,3.04-2.204,5.308-4.772,7.618-7.567-1.781-.435-2.163,1.101-3.044,1.687-3.866,2.576-7.471,5.031-10.731,8.283-2.536,2.529-4.714,5.295-7.975,7.11-.379.211-1.687.037-2.005.301-.313.259.588,1.633.215,1.857-2.739,1.65-2.916,4.834-11.567,3.376l4.733-4.442c1.76-1.652,3.093-2.818,4.698-4.694,1.67-1.953,4.865-3.459,5.327-6.293.242-1.482.521-1.941,1.86-3.218l4.574-4.361c-.198-.094-.448-.187-.689-.467l-13.459,10.332-16.664,13.358c-1.726,1.384-5.048.551-7.242.087,2.378-3.891,5.998-5.877,9.115-8.651l15.312-13.626c-2.121-.259-2.625,1.474-4.642,1.574.185-1.102.822-1.556,1.762-2.581-5.635-1.241-12.752,7.105-17.281,11.513l-6.675,6.498-4.907,4.509c-2.377-.626-4.22.144-7.1.769.79-1.908,2.61-3.027,4.258-4.342l12.058-9.621-1.75-1.099,4.617-4.969c-1.636.51-2.366.045-3.275-.691l-15.459,9.158c-6.867,4.068-10.826,14.305-16.738,10.833,1.333-1.316,2.537-1.555,3.228-3.415-2.153.351-3.599-.19-5.248-.389-.499-.06-1.213,1.032-1.333,1.409-.121.382.735,1.008,1.121,1.484-.693.586-2.87.746-3.868.116-1.745-1.102-2.582-3.87-2.581-5.81,3.303-2.709,7.019-3.866,10.268-6.205l10.041-7.23c3.321-2.391,5.44-5.989,8.112-9.03l19.461-.053,28.64.07,38.726-.162-.743,2.188c1.457.117,1.532-1.285,2.051-2.127,6.543-.535,13.426,2.609,17.448,8.12,5.145,7.051,3.873,17.284-2.452,22.891-1.055-.924-1.886-1.211-3.256-1.36,1.388-2.169,4.064-2.839,4.922-5.763l-12.002,4.166c4.226-4.153,7.905-8.364,12.587-11.841.765-.568-.324-2.486-.896-2.156-6.333,3.661-11.697,8.593-17.178,13.359-1.942,1.688-4.269,2.504-6.53,1.464l1.538-2.238c-3.071-.703-4.157,3.487-6.719,2.413,2.055-1.186,3.212-2.912,5.02-4.254,7.395-5.488,14.824-10.611,20.828-17.611.288-.336.341-.904.263-1.225-.073-.297-.494-.505-.791-.293l-.87.621c-7.445,4.104-14.773,8.176-20.868,14.176-3.378,3.326-6.34,6.68-10.331,9.42-2.173.152-4.308.118-6.309-.276l4.215-4.559-1.859-.72c3.613-4.049,7.438-6.952,11.727-9.867l7.865-5.344c3.366-2.287,7.293-3.898,9.646-7.957l-11.642,7.098c.228-1.8,1.706-2.514,2.697-4.168-1.229.251-2.98.153-4.347.856-5.501,2.825-10.253,6.417-15.254,9.985l-6.823,6.176c6.707-.012,10.759-8.78,18.499-11.508l-9.197,8.415-7.145,8.184c-3.03,3.471-7.108,4.732-11.411,3.155,1.241-1.431,2.52-2.035,2.764-3.711-2.171-.432-2.845,2.241-3.937,2.957-1.972.766-4.213.709-6.528.619.737-1.364,1.878-2.207,3.404-2.489,2.653-.924,5.379-2.39,6.159-5.432,6.251-3.458,11.473-8.051,17.356-12.831ZM150.115,11.427l-.288.288.288.288.288-.288-.288-.288ZM146.123,21.267l4.167-3.693c-.656-1.706.28-2.856,1.586-4.167-1.13-.862-1.815.207-2.172.084-.267-.092-.531-.75-.876-1.749l-9.959,6.552-14.108,14.286,18.387-11.424c-2.59,3.526-6.496,5.345-8.647,9.453,4.996-2.04,7.83-5.98,11.622-9.342ZM164.043,15.202c1.066.272,1.336-.183,1.6-.375.417-.304.549-1.352-.369-1.379-.565-.017-1.205,1.362-1.232,1.754ZM195.563,13.728l-.288.288.288.288.288-.288-.288-.288ZM181.181,15.454l-.288.288.288.288.288-.288-.288-.288ZM214.548,16.029l-.288.288.288.288.288-.288-.288-.288ZM203.617,29.836l-.288.288.288.288.288-.288-.288-.288ZM134.359,30.987c0-.354-.287-.641-.641-.641s-.641.287-.641.641.287.641.641.641.641-.287.641-.641ZM129.151,34.359c1.828-.104,2.179-1.328,2.683-2.017-1.169.672-2.724.606-2.683,2.017Z"></path>
  <polygon class="st1" fill="#001E50" points="194.412 52.854 194.423 53.229 194.423 53.618 194.412 53.993 194.402 53.618 194.402 53.229 194.412 52.854"></polygon>
  <path class="st1" fill="#001E50" d="M324.113,116.395l6.426-4.621c-.264,1.053-.769,1.742-.173,2.345l10.985-9.519,7.461-6.907c2.457-2.274,5.345-3.826,7.173-6.41l-.628-.522-9.424,6.097.692-2.764-12.819,9.829-7.936,6.462c-2.348,1.912-5.504,2.74-7.409,5.55-1.216-.995-.536-2.385-.76-3.003-1.095-.664-1.641,1.062-2.093,1.538-.464.488-1.443-.435-1.236-.831l.744-1.423,19.982-16.738,6.026-5.516c.739-.676,2.087-1.01.861-2.596-.985,2.314-2.886,1.829-4.207,2.749l-4.723,3.289c-3.335,2.322-5.989,5.312-10.192,6.624.937-2.678,3.163-4.738,5.212-6.304,1.837-1.404,1.338-3.241,2.389-4.393l7.951-8.715-.314-.59-22.66,18.723-10.193,8.892-2.778-2.022,4.991-4.968c2.294-2.284,4.309-4.422,6.611-6.686l17.961-17.669c9.229-9.079,21.789-4.64,30.933,3.88,4.983,4.643,9.029,10.273,10.549,17.092,1.554,6.971-1.896,14.051-7.038,18.54l-5.576,4.868-9.494,8.9-10.537,9.68-1.823-1.821c3.411-4.474,8.09-7.214,11.82-11.271l9.086-9.882,5.724-8.871-13.954,11.002c-3.419,2.695-6.33,5.688-10.446,7.631l10.5-12.178c2.048-2.376,4.007-4.562,6.292-6.259-.079,1.514-.87,1.939-1.269,2.937,2.104-.875,3.07-2.392,4.593-3.778,2.712-2.469,5.84-4.398,7.758-7.893-2.985.946-4.674,3.174-6.982,4.757-5.807,3.984-11.87,7.279-17.374,11.883-1.781,1.49-3.722,3.35-6.076,3.185l11.87-12.942,6.097-6.497c.306-.326.4-.919.259-1.207-.218-.446-.88-.501-1.492-.058l-8.353,6.032-19.249,15.216c-1.329,1.05-2.73,1.162-2.924,3.724l-4.901-4.142c.783-1.447,2.681-1.414,4.089-2.427ZM339.387,78.736l-.288.288.288.288.288-.288-.288-.288ZM348.591,92.543l-.288.288.288.288.288-.288-.288-.288ZM357.796,97.146l-.288.288.288.288.288-.288-.288-.288Z"></path>
  <path class="st3" fill="#F5507D" d="M138.162,89.013c.18-.173.452-.488.701-.571.105.425-.323.599-.701.571Z"></path>
  <rect class="st1" fill="#001E50" x="170.047" y="58.685" width=".407" height=".407" transform="translate(8.224 137.633) rotate(-45)"></rect>
  <path class="st1" fill="#001E50" d="M170.541,57.752l1.438-1.443.273.273-1.137,1.18c-.178.286-.425.3-.575-.01Z"></path>
  <path class="st0" fill="#F5507D" d="M72.81,380.175l-.671-.674.671.674Z"></path>
  <rect class="st1" fill="#001E50" x="181.552" y="56.384" width=".407" height=".407" transform="translate(13.222 145.095) rotate(-45)"></rect>
  <rect class="st1" fill="#001E50" x="155.089" y="24.743" width=".407" height=".407" transform="translate(27.844 117.115) rotate(-45)"></rect>
  <circle class="st1" fill="#001E50" cx="127.966" cy="22.357" r=".495"></circle>
  <rect class="st1" fill="#001E50" x="226.425" y="17.264" width=".407" height=".407" transform="translate(54.027 165.367) rotate(-45)"></rect>
  <rect class="st1" fill="#001E50" x="133.803" y="17.264" width=".407" height=".407" transform="translate(26.898 99.873) rotate(-45)"></rect>
  <path class="st3" fill="#F5507D" d="M328.619,327.138l.779.214c.031.233.007.509-.066.779-.115.422-.584.282-.578-.022.006-.329,0-.604-.135-.97Z"></path>
  <path class="st3" fill="#F5507D" d="M351.629,296.821c-1.758,5.72-3.792,11.341-6.482,16.723l-2.593-1.921c-1.478.665-1.845,2.108-2.378,3.478-1.606,4.129-4.704,7.02-7.921,9.935-.978.887-1.578,2.148-2.856,2.316l-.093-.942c-.035-.325-.438-.386-.591-.022-.113.268-.197.447-.095.75-.862.164-1.264,1.388-2.078,1.983l-19.923,14.56-8.27,6.124-17.39,13.048c-2.825,2.119-6.185,3.551-7.627,7.261l10.872-7.436,7.004-4.873c1.763-1.227,3.227-2.537,5.843-2.702l-17.856,14.076-11.645,7.708,5.713-7.266c-3.051,1.586-4.806,3.404-7.66,4.391-2.186.756,1.643,2.927,1.057,4.04-.271.514-.915,1.222-2.095,1.598l-.712-2.515-14.679,10.357-13.066,9.33-3.228,3.096c-1.484,1.423-3.89,1.18-5.586,1.917,4.954,1.009-.435,1.808-.381,5.903l-9.809,1.782c.892-1.803,1.881-3.687,1.768-5.704,1.514-.25,3.182-.009,4.606-.922-.511-.394-.921-.285-1.16-.261l.058-.844c.014-.207,1.154.104,1.325-.015l14.635-10.134,15.896-11.177,5.805-3.469,6.753-5.347c-.166-.773-.78-1.902-.516-2.421.252-.495.891-1.219,1.524-1.679l13.331-9.676,23.682-16.594,24.197-17.873c.295-.218,1.091.35,1.101,1.046l4.108-6.732c1.251-2.05,3.738-3.041,4.866-5.488,1.657-3.593,4.488-6.096,7.003-9.117l2.449-4.377c.66-1.18,1.27-2.219,3.094-1.914Z"></path>
  <path class="st3" fill="#F5507D" d="M355.267,214.511c-.393.021-.544-.351-.535-.735.186.181.485.481.535.735Z"></path>
  <path class="st3" fill="#F5507D" d="M345.4,183.219c-.141-.062-.434-.312-.504-.479.185.074.498.298.504.479Z"></path>
  <circle class="st1" fill="#001E50" cx="337.948" cy="124.185" r=".495"></circle>
  <rect class="st1" fill="#001E50" x="331.129" y="111.037" width=".407" height=".407" transform="translate(18.386 266.869) rotate(-45)"></rect>
  <path class="st3" fill="#F5507D" d="M359.154,252.477c-.689.029-.742-.832.071-.789l-.071.789Z"></path>
  <rect class="st1" fill="#001E50" x="317.322" y="104.134" width=".407" height=".407" transform="translate(19.224 255.084) rotate(-45)"></rect>
  <circle class="st1" fill="#001E50" cx="344.852" cy="97.146" r=".495"></circle>
  <path class="st2" fill="#001E50" d="M164.641,254.809l.004-5.264.021-83.895-.036-3.516c1.085-10.628,9.744-18.172,21.068-17.722,9.23.367,18.294,7.978,18.316,18.065l.203,92.022c.015,6.912-5.536,12.772-10.444,15.345-6.728,3.527-13.742,2.697-19.684-.705-5.585-3.197-8.604-8.317-9.448-14.33ZM195.674,163.409l-5.805,7.318,3.356-.837-16.099,12.671c-2.498,1.966-4.69,3.887-7.936,4.666l.218,11.458,16.021-16.351c-.634-.585-1.005-1.072-1.006-1.454-.001-.539,1.17-.836,1.455-1.13l8.169-8.398c1.84-1.892,3.066-4.259,5.604-5.417,1.427-7.484-4.065-15.329-11.934-16.734-.661.93-.476,2.056-.483,3.143l-13.276,12.648c-1.627,1.55-2.663,3.392-4.911,4.472l.371,17.201,4.63-6.048c3.722-4.861,7.041-9.549,11.514-13.799,1.695-1.61,2.402-4.327,5.298-4.816l-4.957,7.374c4.442-2.475,7.059-6.117,10.815-9.159.478,1.284-.339,2.3-1.046,3.191ZM171.692,164.341c-.134-.585-1.981-.616-2.281-.043-.376.717-.467,2.042.185,3.06.748-.596,2.045-1.64,2.097-3.017ZM169.572,213.541c1.294-4.581,5.77-7.421,7.876-11.676,1.444-2.918,3.702-5.03,5.878-7.38l7.736-8.356c3.483-3.762,9.085-8.807,8.545-12.583-.241-1.685,1.112-4.044-.367-6.12l-10.781,13.232c-.477.585.306,1.383.878.912,1.937-2.249,4.038-3.927,6.389-5.79.883-.699,1.492-2.162,3.161-1.435l-8.003,8.151c-1.777,1.81-3.275,3.489-5.148,5.243l-6.519,6.104c-2.933,2.747-5.8,5.322-7.886,8.837-3.189.824-2.254,5.349-1.759,10.861ZM178.485,215.307l17.496-13.114.717,2.162c.305-1.876,1.635-2.848,3.13-3.842l-.245-15.783c-.041-2.678,1.008-4.612-.319-7.538-.447,3.223-2.172,4.41-3.85,6.406l-12.062,14.349c6.82-2.481,11.235-11.327,15.561-7.122l-12.923,14.396c-2.773,3.089-5.132,6.241-7.506,10.084ZM182.906,197.822l-.288.288.288.288.288-.288-.288-.288ZM181.756,198.973l-.288.288.288.288.288-.288-.288-.288ZM186.358,201.274l-.288.288.288.288.288-.288-.288-.288ZM175.301,231.327l15.501-12.636,5.454-3.778,3.752-3.196-.353-8.802-23.889,23.715-6.506,3.997c-.199,1.765-.405,3.317.238,5.419,1.729-2.094,3.797-3.084,5.804-4.72ZM181.617,207.723c.921-1.403,3.292-2.035,2.672-4.444l-7.214,6.303c-2.502,2.186-4.704,4.6-7.922,5.848l.25,6.867c5.715-3.226,8.71-9.234,12.214-14.573ZM194.128,206.179c.15.31.396.296.575.01l1.137-1.18-.273-.273-1.438,1.443ZM197.592,224.744c-.11.537-.216,1.253-.693,1.722l-5.497,5.404-10.152,8.623c4.683-.393,7.53-7.433,12.513-8.574-2.952,5.548-8.147,9.137-13.635,11.52l-.191.252c-.904,1.19-2.377,3.179-4.135,1.613-1.431,2.127-3.397,3.777-6.413,4.462-.354,2.447-.489,4.95.826,7.741l12.209-13.392c4.547,1.064,7.751-6.117,12.452-8.785-1.921,4.629-5.508,6.961-7.781,10.964,4.762-2.511,8.823-5.338,12.71-8.974l.116-12.527c.037-.715-.161-1.247-1.112-1.262.646-.756,1.148-1.55,1.114-2.654l-.234-7.673-6.86,8.083-7.34,9.352c-1.918,2.443-4.678,3.839-5.946,7.151l10.446-7.32,7.603-5.727ZM173.067,224.392c-1.59-.331-2.669.363-3.737,1.023-.189,1.418-.208,2.53.335,3.592l3.402-4.615ZM169.506,244.523l9.285-9.42-.57-.476-7.263,5.631c-.425.329-.796-.126-.78-.33.027-.343.246-.94-.628-1.491-.294,1.865-.598,3.815-.044,6.085ZM192.138,254.685c.157,1.132-.323,1.618-.395,2.087-.032.207.673.249.863.145l.948-.518,6.04-6.31c.825-3.251.111-6.853.11-10.417-2.703,4.27-5.711,7.874-8.987,11.746-1.824,2.156-4.022,3.834-4.559,7.038,2.104-1.421,3.783-3.02,5.98-3.771ZM179.705,242.922c.239-.329.692-.63.614-1.462l-3.121,2.338c1.257.442,1.684-.379,2.118-.745l.388-.131ZM194.82,244.247l-.508-.433-4.549,4.339c.206.048.536.172.738.341,1.571-1.237,3.109-2.607,4.319-4.246ZM187.8,249.901c.15.31.396.296.575.01l1.137-1.18-.273-.273-1.438,1.443ZM187.509,250.75l-.288.288.288.288.288-.288-.288-.288ZM172.522,261.659c3.118-2.511,6.258-5.04,8.566-8.695l-9.036,6.754c-.366.728-.352,1.351.47,1.941ZM183.654,260.14c.72-1.05,1.303-2.116,1.74-3.391l-9.993,7.685c1.358,1.105,2.364,1.459,3.919,2.022l4.333-6.315ZM198.439,257.078l-.288.288.288.288.288-.288-.288-.288ZM190.385,257.653l-.288.288.288.288.288-.288-.288-.288ZM197.864,258.228l-.288.288.288.288.288-.288-.288-.288ZM197.642,259.954c0-.354-.287-.641-.641-.641s-.641.287-.641.641.287.641.641.641.641-.287.641-.641ZM194.873,262.482c.606.135.879-.357.973-.522.096-.169.155-.64-.295-.829-.191-.08-.474,1.397-.679,1.351Z"></path>
  <path class="st2" fill="#001E50" d="M197.592,224.744c.147-.237.471-.399.663-.563-.216.253-.417.378-.663.563Z"></path>
  <path class="st2" fill="#001E50" d="M198.254,224.181l.554-.649c-.107.201-.262.514-.554.649Z"></path>
  <path class="st3" fill="#F5507D" d="M345.053,255.389c-2.282.173-3.805,1.865-5.721,3.098-8.344,5.369-16.236,10.557-24.018,16.857l-45.121,36.531-56.413,47.042-21.261,17.364-20.201,17.75c-2.167,1.904-4.562,3.614-5.301,6.465l-8.601-1.999c.985-2.003,3.067-3.663,5.082-5.232l14.22-11.074,24.707-20.234,64.803-52.995,33.152-26.744c7.211-5.817,14.056-11.278,21.872-16.082l16.418-10.089c2.102-1.292,3.998-2.479,6.31-2.975l.074,2.315Z"></path>
  <path class="st3" fill="#F5507D" d="M27.683,224.889c-.349-2.623.667-5.099,1.091-7.583,1.133.048,1.498-.588,2.276-1.41,12.481-13.202,26.127-24.71,40.221-36.196l20.316-16.557c9.887-8.058,19.77-15.426,30.473-22.411,6.421-4.19,12.125-8.827,19.541-11.966l-22.002,16.902-16.656,12.725c-2.561,1.956-5.599,2.643-5.047,5.961l-10.092,8.373c-20.899,16.583-40.894,33.908-60.12,52.163Z"></path>
  <path class="st3" fill="#F5507D" d="M27.39,244.394l.024-6.869c1.406.51,2.143-.256,3.235-1.335,12.428-12.271,25.322-23.572,38.726-34.757l14.15-11.807,18.456-14.399c13.294-10.371,26.286-20.457,40.461-29.565,2.699-1.506,4.369-4.587,7.961-4.465-11.705,8.261-22.537,16.861-33.359,26.066l-6.325,5.379c-28.052,22.84-55.153,46.487-81.434,71.335-.47.444-.696.779-1.101.835-.258.036-.633-.173-.795-.419Z"></path>
  <path class="st3" fill="#F5507D" d="M144.552,394.319l-6.281-2.019,28.082-20.901,29.437-22.196c1.56.723,2.132-.225,3.165-1.055l28.009-22.509c1.654-1.33,3.244-2.259,5.23-2.882l23.888-17.469c-9.014,10.035-19.432,17.799-29.804,25.908l-18.762,14.669-37.655,29.006-23.378,16.946c-.983.713-1.958,1.138-1.93,2.502Z"></path>
  <path class="st3" fill="#F5507D" d="M29.295,262.354l-.825-5.372c1.149.201,1.809-.426,2.7-1.242l24.301-22.232,14.349-12.744,13.121-11.058,34.855-27.207,17.23-12.363.811.602-35.033,28.652c-8.049,6.583-15.299,13.223-22.91,20.241l-17.084,15.752-22.64,19.883-5.849,5.139c-.908.797-1.822,1.663-3.025,1.948Z"></path>
  <path class="st3" fill="#F5507D" d="M34.065,198.408c.474-.997.502-2.364.648-3.474.184-.438,1.288-.883,1.135-1.577-.103-.467-.962-.777-1.334-1.366.006-1.527,1.559-1.083,1.067.428,1.118-.228,1.232-2.025,1.617-2.769,1.626.018,2.134-.797,3.247-1.733l25.902-21.794,19.071-14.867,20.21-15.444,10.521-7.868c1.685-1.26,2.971-1.294,5.036-1.236l4.937-2.713c1.514.046,2.422.181,3.936-.083-1.663,1.706-3.22,2.325-4.904,3.265l-7.718,4.312-10.22,7.722c-1.586,1.199-4.458,3.191-5.238,4.77-1.186,2.401-1.889,2.149-3.722,3.545l-13.664,10.407-23.512,18.472c-9.284,7.294-18.514,14.113-27.015,22.005Z"></path>
  <path class="st3" fill="#F5507D" d="M32.792,279.552l-1.203-5.11c1.167-.266,1.929-.835,2.798-1.728,15.34-15.778,31.654-29.945,49.081-43.401l26.679-20.601,31.001-20.497c-17.127,12.552-33.083,25.472-49.303,39.015-14.234,11.885-28.758,22.726-41.686,36.008-.963.989-1.57,1.497-1.01,3.025-4.293,2.806-8.093,6.503-11.996,9.829l-4.362,3.46Z"></path>
  <path class="st3" fill="#F5507D" d="M112.234,379.91l-5.048-3.057,11.538-7.642,13.475-9.553,16.074-11.541,19.243-14.081,10.856-7.557,14.13-9.984c.47-.332,1.177.031,1.398.351.222.322.131.715-.428,1.128l-4.686,3.458-39.025,30.983-8.251,6.847c-6.064,5.032-12.095,9.777-18.999,13.704-3.682,2.094-7.088,4.158-10.277,6.944Z"></path>
  <path class="st3" fill="#F5507D" d="M127.889,387.881l-5.146-2.454c-.034-.865.414-1.268,1.176-1.812l23.155-16.531,24.22-17.778,21.282-14.988,18.611-13.569c2.097-1.72,3.742-4.1,6.838-4.459-7.136,6.817-14.496,12.499-22.062,18.546l-17.306,13.831c-15.381,12.292-30.617,24.135-46.811,35.295-1.665,1.147-2.942,2.31-3.957,3.918Z"></path>
  <path class="st3" fill="#F5507D" d="M38.373,296.373c-.579-1.637-1.17-3.555-1.813-5.111l22.652-20.097c5.785-5.226,11.506-9.81,17.649-14.565l18.143-14.043,22.769-16.585.738.52-26.871,22.979-19.035,16.688-24.498,22.066-9.732,8.148Z"></path>
  <path class="st3" fill="#F5507D" d="M86.315,362.016l-5.206-4.542,9.046-7.134c17.705-14.98,35.847-28.922,55.017-42.013,3.885-2.653,7.186-5.225,11.821-7.104-.969,2.371-2.925,3.458-4.83,4.891-12.896,9.704-25.636,19.235-37.832,29.878l-4.976,4.876-7.583,6.785c-5.271,4.716-10.72,8.997-15.457,14.361Z"></path>
  <path class="st3" fill="#F5507D" d="M45.269,311.439l-2.697-5.322c1.067-.165,1.753-.675,2.506-1.328l17.298-15.01c13.923-12.081,28.011-23.295,43.277-33.647,2.158-1.464,3.464-4.058,6.62-2.499-2.818,1.562-4.641,3.229-6.834,5.14l-36.835,32.102-23.336,20.564Z"></path>
  <path class="st3" fill="#F5507D" d="M64.464,340.144l-3.475-4.187,16.006-13.719c14.187-11.98,28.554-23.159,43.946-33.558l7.824-4.699.677.606-22.881,18.384c-7.02,5.641-13.02,11.704-19.717,17.636l-12.839,11.371-9.542,8.165Z"></path>
  <path class="st3" fill="#F5507D" d="M54.791,327.342l-2.925-4.661,6.953-6.45,6.336-5.77,11.244-9.486,26.627-20.457,15.951-11.648c.421-.307,1.352-.201,1.534.101.243.404-.093.94-.595,1.363l-23.396,19.711c-7.232,6.093-14.178,11.817-21.829,17.318-7.746,5.57-11.759,14.676-19.899,19.978Z"></path>
  <path class="st3" fill="#F5507D" d="M73.821,350.423l-3.537-3.609c19.647-16.497,39.649-32.201,60.586-47.032l5.323-3.11c.143.24.405.544.559.681l-14.658,12.03-48.273,41.039Z"></path>
  <path class="st3" fill="#F5507D" d="M99.429,371.811l-4.402-3.053c1.013-1.794,2.718-2.745,4.339-3.949l17.156-12.739,21.74-15.647,21.731-14.511c3.979-2.657,7.126-6.164,12.09-7.907-2.604,3.187-5.648,5.305-8.706,7.793l-12.989,10.567c-1.368,1.113-2.537,1.195-3.796,2.116l-16.919,12.37c-9.966,6.634-18.567,14.575-27.875,22.078-1.079.87-2.126,1.414-2.368,2.883Z"></path>
  <path class="st3" fill="#F5507D" d="M319.652,164.965l-10.412,9.302c-.793-.525-1.766-1.39-2.497-1.159-.604.192-2.022,1.296-1.484,1.864.653.688,1.251,1.062,1.133,1.815-.071.455-.515.803-.966,1.173l-6.359,5.205c-6.068,4.967-11.471,10.152-17.651,15.119l-24.571,19.752c-.765-.274-1-1.64-.438-2.161l13.165-12.202,16.13-14.391c10.027-10.13,20.619-19.192,33.239-25.505l.709,1.189ZM308.321,171.934l-.288.288.288.288.288-.288-.288-.288Z"></path>
  <path class="st3" fill="#F5507D" d="M337.759,200.51c-1.408-.085-2.135.835-3.087,1.524l-14.649,10.593c-7.697,5.566-15.132,10.706-22.587,16.6l-24.373,19.271c1.565-5.088,5.549-7.592,8.981-10.5l10.912-9.244,18.693-14.654,16.641-12.108,8.21-5.438,1.259,3.957Z"></path>
  <path class="st3" fill="#F5507D" d="M327.181,177.051l-5.1,5.483c-1.085,1.163-1.19,2.161-1.205,3.528-.288.759-1.348,2.489-2.007,2.987l-11.524,8.71c-12.859,11.48-25.923,22.285-39.521,32.847-.609.473-1.544.196-1.682-.285-.132-.46.151-.815.622-1.257l8.927-8.396,22.344-18.994,6.903-5.9c1.658-1.417,3.868-3.242,5.726-4.39l.617-2.161c.317-1.112,3.863.667,4.44-2.765.382-2.272,3.643-1.289,3.911-2.712.07-.372-.212-.629-.574-.624-.221.003-.543.031-1.313-.455,2.139-2.822,6.068-3.782,8.789-6.745l.651,1.13Z"></path>
  <path class="st3" fill="#F5507D" d="M310.388,152.395c-1.888,2.725-4.753,4.372-7.251,6.605-3.654,3.266-7.448,5.786-11.297,8.866l-31.56,25.256-7.935,5.889c-.5.06-1.201-.924-.952-1.332l15.835-13.617,25.629-20.918,12.676-9.815c1.199-.928,2.324-1.711,3.7-2.16l1.154,1.226Z"></path>
  <path class="st3" fill="#F5507D" d="M301.313,142.372c-5.824,2.905-11.424,8.826-15.15,11.132l-11.056,6.842c-11.096,7.661-21.35,15.72-32.083,24.711,1.231-4.756,5.506-7.106,8.753-10.143,6.657-6.226,13.783-11.429,21.11-16.801l5.895-3.421,20.214-14.586,2.316,2.266Z"></path>
  <path class="st3" fill="#F5507D" d="M286.934,129.588l-5.905,5.585-29.232,20.753c-5.258,3.733-10.224,7.215-14.991,11.523-.58.525-1.202.503-1.605-.033-.264-.351-.163-.961.259-1.333l8.544-7.519,7.138-5.606,27.509-20.15,5.109-4.567c1.268-1.133,2.312.789,3.173,1.347Z"></path>
  <path class="st3" fill="#F5507D" d="M65.534,162.698c-1.118,1.185-2.254,2.228-3.801,2.352,1.402-3.196,4.322-4.57,6.505-6.817,8.808-9.072,22.435-20.481,32.969-27.452,2.366-1.565,4.255-3.386,7.416-4.35-.144,1.609-1.138,2.735-2.366,3.7l-19.938,15.672-9.781,8.055c-3.617,2.979-7.606,5.241-11.003,8.84Z"></path>
  <path class="st3" fill="#F5507D" d="M343.336,223.69c-1.361-.214-2.265.635-3.369,1.403l-11.921,8.295-21.238,14.966-11.136,8.128c-.161-.029-.443-.149-.65-.312l14.554-11.945,33.178-24.547.582,4.012Z"></path>
  <path class="st3" fill="#F5507D" d="M340.531,209.794c-1.166.12-1.952.829-2.842,1.595-5.875,5.056-11.685,9.711-18.074,14.128-7.005,4.844-13.109,10.029-19.725,15.598l12.57-13.567,7.842-5.985,19.548-14.517.681,2.747Z"></path>
  <path class="st3" fill="#F5507D" d="M265.717,115.157c-4.321,2.875-7.941,6.533-12.024,9.885l-6.997,5.746c-6.803,5.587-12.244,12.399-20.125,17.52,2.148-3.978,5.751-6.371,8.799-9.342l14.246-13.888c4.381-4.271,9.196-7.717,14.254-10.889l1.847.968Z"></path>
  <path class="st3" fill="#F5507D" d="M105.909,114.645c1.018.728.907,2.208-.009,3.067l-9.781,9.172c-3.105,2.912-6.589,5.225-9.45,8.457-1.17-.413-1.768-.654-2.861-.703-.8.93-2.185,1.935-3.188,1.315,2.119-2.449,4.92-3.146,7.004-4.89,1.373-1.149,2.725-1.421,4.201-2.239,1.24-.687.267-3.653-.906-4.365,4.806-3.528,9.852-6.797,14.99-9.814Z"></path>
  <path class="st3" fill="#F5507D" d="M234.545,101.155c-.302.453-.795.716-1.321.717l-1.548.002c-.207-.078-.62-.184-.976-.072-.322.101-.508.747-.367,1.139-.661.002-1.461.055-1.97.577-.368.378-.391,1.072-.189,1.625-5.168.758-15.285,8.569-20.222,13.285-.406.388-1.58.742-2.021.675-.448-.068-.872-1.011-.881-1.506-.012-.698.702-.946,1.175-1.424,4.29-4.342,8.974-7.518,14.104-10.682,1.82-1.123,2.688-2.264,5.165-2.451,1.629-.123,3.554-1.891,3.414-3.506l5.638,1.62Z"></path>
  <path class="st3" fill="#F5507D" d="M301.145,211.697c-.297.191-.854-.676-.709-.952l.53-1.008c3.37-3.155,7.241-5.321,10.976-8.003l7.034-5.05,12.243-8.758c-4.588,6.856-10.938,11.425-17.442,15.621l-12.632,8.15Z"></path>
  <path class="st3" fill="#F5507D" d="M249.4,106.773c-.719,1.15-1.874,1.654-3.02,2.401-9.938,6.477-19.324,13.244-28.005,21.295-.362.335-1.318-.555-1.131-.89l.673-1.211,14.282-12.126,13.133-8.773c.742-.496,1.244-.841,1.225-1.833l2.844,1.136Z"></path>
  <path class="st3" fill="#F5507D" d="M344.778,238.097l.132,2.36c-2.005.409-3.628,1.879-5.499,3.139l-19.284,12.986c-.505.34-1.605-.545-1.593-.934.015-.507.99-.717,1.422-1.015l21.769-15.036c1.066-.736,1.976-1.449,3.054-1.5Z"></path>
  <path class="st3" fill="#F5507D" d="M274.764,120.742c-.286,1.123-1.122,2.282-2.226,3.098l-20.231,14.957c.636-3.005,3.356-4.074,5.208-5.847,4.145-3.968,8.376-7.407,13.279-10.302,1.113-.657,2.068-1.609,2.742-2.55l1.229.645Z"></path>
  <path class="st3" fill="#F5507D" d="M57.581,155.765c4.772-6.759,11.247-12.271,17.153-18.067.288,3.272,2.198-.411,5.517-.738-1.566.974-2.457,2.028-3.765,3.056l-9.026,7.092c-2.131,1.674-5.362,7.368-9.88,8.657Z"></path>
  <path class="st3" fill="#F5507D" d="M70.637,252.952c-1.045,1.077-2.285,2.265-3.988,1.6l8.99-8.926c1.421-1.41,3.172-2.757,5.458-3.447l-10.459,10.772Z"></path>
  <path class="st3" fill="#F5507D" d="M155.718,111.992l-19.56,11.674c4.063-4.618,20.749-14.089,20.536-12.454-.026.2-.373.618-.976.781Z"></path>
  <path class="st3" fill="#F5507D" d="M277.383,150.052c-3.337,1.388-3.37,5.459-8.569,5.272l10.927-8.417c.295,1.742-1.207,2.666-2.358,3.144Z"></path>
  <path class="st3" fill="#F5507D" d="M136.125,123.653c-.682,1.988-2.017,2.524-3.718,2.717.515-1.583,1.9-2.487,3.718-2.717Z"></path>
  <path class="st3" fill="#F5507D" d="M261.764,299.849c.156.406-.699,1.479-1.24,1.57-.741.125-1.801.028-2.477-.479.802-1.327,1.357-1.859,3.716-1.091Z"></path>
  <path class="st3" fill="#F5507D" d="M153.858,138.599c-.83,1.194-1.917,2.062-3.677,2.248.656-1.347,1.648-2.159,3.677-2.248Z"></path>
  <path class="st3" fill="#F5507D" d="M164.641,254.809c-.22-1.566-1.146-3.603.004-5.264l-.004,5.264Z"></path>
  <path class="st3" fill="#F5507D" d="M140.996,188.039c.321-1.247,1.287-1.761,2.528-2.121-.23,1.121-.911,2.019-2.528,2.121Z"></path>
  <path class="st3" fill="#F5507D" d="M139.085,295.589l-1.038.722c-.25.174-.791-.006-.84-.33-.049-.317.633-.761,1.275-1.018.671-1.023,1.668.098.604.625Z"></path>
  <path class="st3" fill="#F5507D" d="M135.006,121.391c-.87.4-1.322.527-1.568.488-.295-.047-.5-.647-.299-.866.169-.184.662-.255,1.16-.569.836-.956,1.812.44.707.948Z"></path>
  <path class="st3" fill="#F5507D" d="M263.779,298.287c-.324,1.11-.871,1.018-1.028,1.178-.258.265-.857.148-.785-.279.195-1.155,1.537-1.247,1.812-.899Z"></path>
  <path class="st3" fill="#F5507D" d="M136.579,169.514c.554-1.433,1.855-2.301,3.674-2.707-1.015,1.043-1.6,2.256-3.674,2.707Z"></path>
  <path class="st3" fill="#F5507D" d="M131.519,123.195c-.765,1.355-2.383-.106-.787-.829.827-1.076,2.131.129.787.829Z"></path>
  <path class="st3" fill="#F5507D" d="M164.666,165.65c-1.242-1.058-.137-2.527-.036-3.516l.036,3.516Z"></path>
  <path class="st3" fill="#F5507D" d="M137.053,118.684c.469-.535,1.076-.311,1.266.017.213.369-.1.948-.81.952-.329.002-1.256-.056-.456-.969Z"></path>
  <polygon class="st3" fill="#F5507D" points="293.457 257.931 293.845 257.931 294.22 257.941 293.845 257.951 293.457 257.951 293.081 257.941 293.457 257.931"></polygon>
  <rect class="st3" fill="#F5507D" x="298.913" y="241.629" width=".407" height=".407" transform="translate(-83.392 282.338) rotate(-45)"></rect>
  <rect class="st3" fill="#F5507D" x="129.776" y="283.626" width=".407" height=".407" transform="translate(-162.627 175.041) rotate(-45)"></rect>
  <rect class="st3" fill="#F5507D" x="141.282" y="165.69" width=".407" height=".407" transform="translate(-75.864 148.634) rotate(-45)"></rect>
  <rect class="st3" fill="#F5507D" x="172.348" y="313.541" width=".407" height=".407" transform="translate(-171.312 213.906) rotate(-45)"></rect>
  <rect class="st3" fill="#F5507D" x="83.752" y="136.35" width=".407" height=".407" transform="translate(-71.968 99.361) rotate(-45)"></rect>
  <rect class="st3" fill="#F5507D" x="141.857" y="128.296" width=".407" height=".407" transform="translate(-49.254 138.089) rotate(-45)"></rect>
  <rect class="st3" fill="#F5507D" x="113.092" y="251.984" width=".407" height=".407" transform="translate(-145.14 153.976) rotate(-45)"></rect>
  <path class="st2" fill="#001E50" d="M146.123,21.267c-3.792,3.361-6.626,7.302-11.622,9.342,2.151-4.108,6.057-5.928,8.647-9.453l-18.387,11.424,14.108-14.286,9.959-6.552c.344.999.608,1.656.876,1.749.357.123,1.042-.946,2.172-.084-1.305,1.312-2.242,2.461-1.586,4.167l-4.167,3.693ZM148.01,15.185c1.128-.485.172-1.027-.063-.933-.21.083-.694.576-.913.85-.093.116.322.365.976.084ZM143.517,20.343c1.152.602,1.646-.305,1.627-.851l-1.627.851Z"></path>
  <path class="st2" fill="#001E50" d="M164.043,15.202c.026-.393.667-1.771,1.232-1.754.917.027.785,1.075.369,1.379-.264.192-.534.647-1.6.375Z"></path>
  <path class="st2" fill="#001E50" d="M129.151,34.359c-.041-1.411,1.514-1.345,2.683-2.017-.504.69-.855,1.914-2.683,2.017Z"></path>
  <circle class="st2" fill="#001E50" cx="133.719" cy="30.987" r=".641"></circle>
  <rect class="st2" fill="#001E50" x="203.414" y="29.921" width=".407" height=".407" transform="translate(38.337 152.802) rotate(-45)"></rect>
  <rect class="st2" fill="#001E50" x="214.344" y="16.113" width=".407" height=".407" transform="translate(51.302 156.487) rotate(-45)"></rect>
  <rect class="st2" fill="#001E50" x="180.977" y="15.538" width=".407" height=".407" transform="translate(41.936 132.725) rotate(-45)"></rect>
  <rect class="st2" fill="#001E50" x="195.36" y="13.812" width=".407" height=".407" transform="translate(47.368 142.389) rotate(-45)"></rect>
  <rect class="st2" fill="#001E50" x="149.911" y="11.511" width=".407" height=".407" transform="translate(35.684 109.578) rotate(-45)"></rect>
  <path class="st3" fill="#F5507D" d="M205.7,404.332l-5.638.17c-1.79.054-2.85.048-4.3-.028.077-.349.122-1.113.546-1.447l32.464-25.53,16.166-13.248,21.019-15.752,12.125-8.564c6.936-3.879,13.184-7.94,19.735-12.448l26.936-18.538,13.618-9.452c1.19-.826,1.972-2.017,3.308-2.271,1.192-.226,1.698-1.731,1.892-2.829,1.177.136,1.367-.902,3.366-1.47l-4.502,7.654c-.436.005-.589-.658-1.662-1.259.072,2.848-1.794,2.579-3.038,3.531l-7.878,6.026c-9.776,8.469-19.901,15.963-30.263,23.704l-9.924,7.414c-1.033-1.02-1.989-1.174-3.007-1.159-1.226.018-1.633,1.57-2.434,2.046-6.926,3.739-12.89,8.162-19.115,13.072l-29.564,23.32c7.41-2.665,12.88-7.464,18.884-11.584,6.866-4.712,12.774-9.999,19.129-15.267l13.263-9.191c.287.372.289.633.319.757l-3.448,2.929-9.614,8.77-4.771,5.059-11.101,8.421-13.033,9.458-13.978,10.162c-4.846,3.523-8.843,7.777-14.316,10.423-.82.396-2.146-.178-3.001-.506.073-.416.509-.953.024-1.785l-11.726,8.759c1.821.023,2.863-.04,3.52.653ZM234.683,377.89l-.288.288.288.288.288-.288-.288-.288ZM224.535,387.095c0-.273-.222-.495-.495-.495s-.495.222-.495.495.222.495.495.495.495-.222.495-.495ZM222.503,388.516c-1.103-.274-2.79.457-3.283,2.051,1.359-.069,2.249-.315,3.283-2.051ZM218.627,391.663c.809-.448.363-1.322-.306-1.189-1.517,1.165-2.98,2.238-3.66,4.108,1.894-.225,2.553-1.738,3.966-2.919Z"></path>
  <path class="st2" fill="#001E50" d="M168.851,73.991c-.217-.737.552-.483.577-.701-.093.361-.281.562-.577.701Z"></path>
  <path class="st2" fill="#001E50" d="M295.945,414.96c-2.418.23-4.973,1.786-6.5,3.641l-14.85,6.233-32.091,8.903-20.637,2.904c-2.012.283-3.718.439-5.355,1.136-1.143-1.026-2.665-.669-3.991-.629l-14.37.438-17.86-1.075-2.734-.558-8.04-1.009-6.411-1.234-6.979-1.362-1.607-.492-8.744-2.379-4.472-1.484-5.798-1.955-5.79-2.15c-1.502-.558-2.964-1.329-4.614-1.337-.13-.125-.381-.269-.462-.443-.417-.891-1.827-.719-2.399-1.122-.655-.462-1.562-.565-2.118-.785-1.017-.729-2.136-1.469-3.529-1.426-.384-.443-.747-.47-1.176-.328-1.426-1.593-3.288-2.368-5.088-2.876-.184-.052-.351-.313-.485-.424-.733-.604-1.647-.865-2.496-1.168-.286-.102-.72-.476-.971-.683-1.523-1.256-3.444-2.304-5.287-2.873-.351-.288-.799-.796-1.308-1l-1.697-.678c-.204-.082-.394-.227-.55-.399-1.379-1.52-3.507-2.557-5.304-3.477-.29-.149-.347-.683-.962-.493-1.344-1.542-3.822-2.5-5.108-3.692l-1.204-1.115c-25-18.203-45.148-41.877-58.911-69.904-12.45-25.078-19.006-52.493-18.146-80.595.571-18.655,3.728-36.478,9.858-53.891,22.082-62.733,76.45-107.159,141.965-118.686l.079-26.699-26.013-.037c-9.701-.014-17.768-6.714-20.753-15.853-2.249-6.886-1.357-13.866,3.03-20.113,3.422-4.872,9.906-9.199,17.171-9.198l103.382.02c12.464.002,21.755,10.48,21.947,21.991.205,12.274-8.942,22.207-21.499,22.995l-25.13.26.058,25.337c31.516,1.996,59.495,11.534,86.306,28.022l33.56-32.832c7.077-3.978,14.981-4.095,22.463-1.071,9.529,4.01,16.794,11.222,21.462,20.488,4.347,8.629,3.624,19.339-3.364,26.22l-27.873,27.45c26.76,33.477,42.22,71.32,43.199,114.747,1.5,66.527-34.449,124.859-91.8,156.739ZM116.44,29.072l12.258-11.746c3.785-2.585,7.52-4.922,11.157-8.221-7.184-2.524-6.503,1.983-10.347,3.531l2.502-3.776c-9.256,2.058-16.96,10.24-15.57,20.212ZM214.068,17.142c-5.883,4.78-11.106,9.373-17.356,12.831-.78,3.042-3.506,4.508-6.159,5.432-1.525.282-2.666,1.125-3.404,2.489,2.315.09,4.556.147,6.528-.619,1.092-.716,1.766-3.388,3.937-2.957-.244,1.676-1.524,2.28-2.764,3.711,4.303,1.577,8.381.316,11.411-3.155l7.145-8.184,9.197-8.415c-7.74,2.728-11.793,11.496-18.499,11.508l6.823-6.176c5.001-3.568,9.753-7.16,15.254-9.985,1.367-.702,3.118-.605,4.347-.856-.991,1.654-2.468,2.368-2.697,4.168l11.642-7.098c-2.353,4.06-6.279,5.67-9.646,7.957l-7.865,5.344c-4.29,2.914-8.114,5.818-11.727,9.867l1.859.72-4.215,4.559c2.002.394,4.136.429,6.309.276,3.99-2.74,6.952-6.093,10.331-9.42,6.095-6,13.423-10.072,20.868-14.176l.87-.621c.297-.212.719-.004.791.293.078.32.025.889-.263,1.225-6.004,7-13.433,12.124-20.828,17.611-1.808,1.341-2.965,3.067-5.02,4.254,2.562,1.074,3.649-3.116,6.719-2.413l-1.538,2.238c2.261,1.04,4.588.224,6.53-1.464,5.481-4.766,10.844-9.697,17.178-13.359.572-.331,1.662,1.587.896,2.156-4.681,3.477-8.361,7.688-12.587,11.841l12.002-4.166c-.859,2.925-3.534,3.595-4.922,5.763,1.37.15,2.201.437,3.256,1.36,6.325-5.607,7.598-15.84,2.452-22.891-4.022-5.511-10.906-8.656-17.448-8.12-.52.842-.594,2.245-2.051,2.127l.743-2.188-38.726.162-28.64-.07-19.461.053c-2.671,3.041-4.79,6.638-8.112,9.03l-10.041,7.23c-3.249,2.339-6.964,3.496-10.268,6.205-.002,1.941.835,4.708,2.581,5.81.997.63,3.174.47,3.868-.116-.385-.476-1.242-1.103-1.121-1.484.12-.377.834-1.469,1.333-1.409,1.649.199,3.095.74,5.248.389-.691,1.86-1.895,2.099-3.228,3.415,5.913,3.472,9.871-6.765,16.738-10.833l15.459-9.158c.909.737,1.639,1.201,3.275.691l-4.617,4.969,1.75,1.099-12.058,9.621c-1.648,1.315-3.468,2.434-4.258,4.342,2.88-.625,4.723-1.395,7.1-.769l4.907-4.509,6.675-6.498c4.528-4.408,11.646-12.755,17.281-11.513-.94,1.026-1.578,1.479-1.762,2.581,2.016-.1,2.521-1.833,4.642-1.574l-15.312,13.626c-3.117,2.774-6.737,4.76-9.115,8.651,2.194.464,5.516,1.296,7.242-.087l16.664-13.358,13.459-10.332c.24.28.491.373.689.467l-4.574,4.361c-1.339,1.276-1.618,1.735-1.86,3.218-.463,2.835-3.657,4.341-5.327,6.293-1.605,1.876-2.938,3.042-4.698,4.694l-4.733,4.442c8.651,1.458,8.828-1.726,11.567-3.376.372-.224-.528-1.598-.215-1.857.318-.263,1.626-.09,2.005-.301,3.261-1.816,5.439-4.581,7.975-7.11,3.26-3.251,6.864-5.706,10.731-8.283.881-.587,1.263-2.122,3.044-1.687-2.31,2.794-4.578,5.362-7.618,7.567-.935.678-3.215.84-1.831,2.856,4.178-2.667,8.115-5.013,11.536-8.177,1.093-1.011,2.166-2.128,3.709-.739ZM142.916,9.903c.421-.408-.455-1.166-.981-.626l-7.408,7.623.628.518,7.76-7.516ZM134.006,17.18l-.288.288.288.288.288-.288-.288-.288ZM223.271,17.457l-.375.01.375.01h.388l.375-.01-.375-.01h-.388ZM226.629,17.18l-.288.288.288.288.288-.288-.288-.288ZM132.662,19.524c1.252-.537.256-1.798-.543-.79l-1.042.781c-.368.276-.1.666.137.696.284.036,1.001-.074,1.448-.687ZM129.083,21.002c-.106.878.669.92.894.787.311-.184.429-.529.294-.866-.107-.268-.758-.681-1.188.079ZM128.461,22.357c0-.273-.222-.495-.495-.495s-.495.222-.495.495.222.495.495.495.495-.222.495-.495ZM155.292,24.659l-.288.288.288.288.288-.288-.288-.288ZM142.948,34.524l6.914-8.97-10.769,7.351c-2.3,1.57-4.493,3.061-6.23,5.311,3.969,1.36,7.94-.909,10.084-3.692ZM196.39,26.434c-2.236.684-3.601,2.488-4.685,4.672,2.082-1.022,3.752-2.105,4.685-4.672ZM198.258,40.54c-1.82-.703-3.321-.351-4.016.291l-3.88,3.586c3.425.982,6.335-1.393,7.896-3.877ZM223.432,40.151l-6.092,4.8c6.42,1.499,8.34-6.57,6.092-4.8ZM212.132,40.915c-4.485-1.276-6.315.416-9.533,4.016,4.556,1.329,7.17.044,9.533-4.016ZM178.577,50.173c-3.419.426-4.774,3.334-6.333,5.795,2.459-1.711,4.486-3.638,6.333-5.795ZM194.412,52.854l-.01.375v.388l.01.375.01-.375v-.388l-.01-.375ZM193.597,53.995c-3.286,1.339-6.086,3.769-7.793,6.958,3.348-1.463,6.017-3.516,7.793-6.958ZM170.541,57.752c.15.31.396.296.575.01l1.137-1.18-.273-.273-1.438,1.443ZM181.756,56.3l-.288.288.288.288.288-.288-.288-.288ZM166.606,63.615c.602-1.394,1.132-2.202.74-3.508-.222-.741.532-1.334.916-2.134l-3.995,2.391.212,8.169,2.126-4.918ZM168.851,73.991c-.091.179-.242.89-.05,1,.797.454,5.405.787,6.16-2.51.832.794.679,1.373.849,1.742.243.527,5.468,1.887,8.704-4.096,1.147-2.12,3.475-3.508,3.718-6.73-4.246,1.934-9.059,6.478-9.541,6.54-.661.086-.938-1.043-1.075-1.794-2.755,1.897-5.21,4.262-8.189,5.146.73-2.849,5.124-4.977,8.794-12.309.433-.865,2.371-1.419,1.257-3.393-4.871,4.458-9.932,7.226-14.908,12.364-1.135,1.172-.286,4.658-.149,5.933,2.132-.098,3.047-1.247,4.428-1.894ZM170.25,58.601l-.288.288.288.288.288-.288-.288-.288ZM190.664,73.999l4.473-5.182c1.042-1.207,2.339-2.029,1.732-4.194-4.342,2.784-7.951,4.783-11.048,9.279,1.57.356,3.651.854,4.843.097ZM206.721,74.347c.91-1.087.468-3.258.183-4.541-1.691,1.292-2.582,2.716-3.734,4.487.664.52,2.771.986,3.551.054ZM324.113,116.395c-1.408,1.013-3.306.98-4.089,2.427l4.901,4.142c.195-2.562,1.596-2.673,2.924-3.724l19.249-15.216,8.353-6.032c.613-.442,1.274-.387,1.492.058.141.288.046.881-.259,1.207l-6.097,6.497-11.87,12.942c2.354.165,4.295-1.696,6.076-3.185,5.504-4.604,11.567-7.899,17.374-11.883,2.308-1.583,3.997-3.811,6.982-4.757-1.917,3.495-5.046,5.424-7.758,7.893-1.523,1.387-2.49,2.903-4.593,3.778.399-.998,1.191-1.423,1.269-2.937-2.284,1.697-4.244,3.884-6.292,6.259l-10.5,12.178c4.117-1.943,7.028-4.935,10.446-7.631l13.954-11.002-5.724,8.871-9.086,9.882c-3.73,4.056-8.409,6.797-11.82,11.271l1.823,1.821,10.537-9.68,9.494-8.9,5.576-4.868c5.142-4.489,8.591-11.569,7.038-18.54-1.52-6.818-5.565-12.448-10.549-17.092-9.144-8.52-21.704-12.96-30.933-3.88l-17.961,17.669c-2.301,2.264-4.317,4.402-6.611,6.686l-4.991,4.968,2.778,2.022,10.193-8.892,22.66-18.723.314.59-7.951,8.715c-1.051,1.152-.552,2.989-2.389,4.393-2.049,1.566-4.275,3.626-5.212,6.304,4.203-1.312,6.857-4.302,10.192-6.624l4.723-3.289c1.321-.92,3.222-.434,4.207-2.749,1.226,1.586-.122,1.919-.861,2.596l-6.026,5.516-19.982,16.738-.744,1.423c-.207.396.772,1.319,1.236.831.452-.476.998-2.202,2.093-1.538.224.618-.456,2.008.76,3.003,1.905-2.81,5.061-3.638,7.409-5.55l7.936-6.462,12.819-9.829-.692,2.764,9.424-6.097.628.522c-1.828,2.584-4.717,4.136-7.173,6.41l-7.461,6.907-10.985,9.519c-.596-.603-.09-1.292.173-2.345l-6.426,4.621ZM167.534,81.962c-3.224.509-6.47.804-9.678,1.537-6.361,1.454-12.786,2.85-18.993,4.943-.248.084-.521.398-.701.571l-.396-.029c-1.392-.1-2.636.725-3.928,1.159-13.668,4.596-26.783,10.837-38.931,18.623-13.957,8.945-26.669,19.95-37.754,32.531-.815.925-1.522,1.462-1.93,2.437-11.131,12.905-20.523,27.765-26.973,43.813l-2.211,5.501c-2.653,6.6-4.639,13.443-6.302,20.364l-1.225,5.098c-.336,1.398-.917,2.968-.587,4.435-.559.666-.811,1.479-.944,2.521l-1.173,9.201c-5.032,39.471,7.687,83.741,30.617,115.377l4.368,6.027c3.95,5.45,8.399,10.612,13.104,15.379,1.408,1.426,2.946,3.164,4.482,4.371,1.109.872,2.263,3.275,3.76,3.681l.671.674c.086.087.432.022.572-.031.638,1.747,2.42,2.617,3.683,3.742,15.105,13.467,36.005,25.842,55.317,33.345,33.59,13.049,69.658,16.66,105.135,9.834,27.807-5.35,54.268-15.916,76.945-32.94,19.747-14.824,36.041-33.691,47.297-55.227.312-.597.471-1.221.333-1.882.6-.211,1.056-.655,1.473-1.471,10.655-20.856,16.558-43.407,17.612-66.904.453-10.106.412-19.527-1.307-29.054l-2.235-12.387-.418-2.512-2.286-9.045-.707-2.805-3.102-9.424-1.873-5.29-1.798-4.307-1.789-4.237-5.118-10.26-6.919-12.021-3.454-5.182c-6.218-9.328-13.462-18.022-21.19-26.078l-4.228-4.408c-5.698-5.94-12.118-11.225-18.937-15.857l-9.425-6.402c-1.897-1.289-3.693-2.376-5.806-2.745.086-.409-.049-.912-.571-1.196l-10.08-5.484-6.666-3.411c-.353-.181-.72.063-.821.254,1.899,1.915,4.644,2.457,6.858,3.842l10.156,6.355,11.201,8.455,4.42,3.684c5.796,4.832,11.054,10.265,15.958,15.995l3.518,4.111c7.442,8.697,14.304,17.932,19.57,28.068l3.031,5.834,6.004,13.308,4.232,11.582,1.128,3.798,1.316,5.204,1.137,4.499,1.74,9.847.577,2.829.934,7.046c1.573,19.605.709,39.085-4.108,58.538l-6.062,19.167c-3.899,12.329-10.572,23.185-17.525,33.712-.751,1.136-1.339,2.265-1.576,3.754l-4.008,4.383c-1.26.827-2.096,2.085-2.195,3.564l-6.359,6.845c-1.339,1.441-3.171,2.895-4.045,4.422-.234.408-1.211.695-1.125,1.43l-9.984,8.897c-9.761,8.814-20.901,15.348-31.992,21.951-.939-.218-1.572.129-2.327.581l-5.071,3.036c-.701-.094-1.327.007-1.919.245l-6.696,2.698c-10.141,4.086-28.676,7.605-30.513,9.124-1.632-.713-3.247-.017-5.016.152l-4.256.407c-17.529,2.58-35.208,1.942-52.945-.861l-5.258-.831c-4.484-.708-8.783-1.401-13.055-3.136-1.275-.518-2.859-.273-3.889-.161-1.413-1.351-3.177-1.6-5.12-2.214-14.078-4.449-27.053-10.769-39.707-18.452l-20.607-14.964-4.319-3.862-2.829-2.737-9.934-10.265-5.559-6.403-2.991-4.123c-6.086-8.39-11.74-17.167-16.449-26.358.376-.253.601-.349.876-.417l1.62,2.022,1.666,3.237,4.912,7.674c.431.674,1.008,1.103,1.556,1.361.253.119.591.428.179.768,6.66,9.833,14.57,19.199,23.295,27.419,16.987,16.003,36.784,28.898,58.67,36.99l3.325,1.229,4.008,1.524,3.083.767,4.01,1.49,5.621,1.397c6.66,1.655,13.424,3.259,20.247,3.968l.523-.081c.581.327,1.231.511,1.893.509l1.046-.003,13.398,1.322c10.136.801,20.416.373,30.393-1.439l9.809-1.782c9.564-1.737,18.872-4.351,27.794-8.143l9.683-4.115c7.983-3.392,15.321-7.567,22.776-12.598,14.676-9.905,27.545-21.795,37.944-35.797,5.272-7.099,10.475-14.413,14.453-22.368l5.586-11.173c2.691-5.382,4.724-11.003,6.482-16.723,1.806-5.876,3.572-11.806,4.462-17.895l2.118-14.494.945-11.955.071-.789c.108-1.2-.077-2.48-.08-3.72l-.013-4.768-1.999-18.364c-.037-.341-.19-.757-.181-1.16.04-1.912-.371-4.167-1.089-5.866-.228-.54.214-1.656-.628-2.098.05-.39.105-.831.032-1.2-.05-.254-.35-.554-.535-.735l.011-.49c.045-2.06-.483-3.997-1.071-5.889l-4.757-15.293c-.388-1.248-.784-2.56-1.76-3.492.022-.177.053-.416.006-.588-.344-1.267-.805-2.542-1.717-3.508l-.043-1.298c-.006-.181-.318-.404-.504-.479l-1.645-3.929-1.607-3.548-8.713-15.65-2.53-3.827-9.513-12.722c-1.631-2.181-3.019-4.728-5.396-6.261-5.03-6.556-11.225-12.311-17.71-17.399l-1.591-1.248c-9.767-7.663-19.961-14.973-31.441-20.333l-10.29-4.804c-4.141-1.933-8.305-3.075-12.642-4.527-8.009-2.681-16.135-4.059-24.189-5.736-.463-.096-1.174-.079-1.625.035-14.677-2.587-33.96-3.119-48.47-.828ZM345.347,97.146c0-.273-.222-.495-.495-.495s-.495.222-.495.495.222.495.495.495.495-.222.495-.495ZM317.525,104.049l-.288.288.288.288.288-.288-.288-.288ZM315.871,105.922c1.819-.572.004-2.273-.552-.505-1.367.609-.368,1.501.552.505ZM313.368,108.217c-.31-1.446-2.451.151-3.813,2.423-.009.003.43.071.632.21,1.106-.491,1.748-1.427,3.181-2.632ZM331.333,110.953l-.288.288.288.288.288-.288-.288-.288ZM338.443,124.185c0-.273-.222-.495-.495-.495s-.495.222-.495.495.222.495.495.495.495-.222.495-.495ZM336.943,125.117c-2.729,1.306-5.32,3.311-4.745,4.513.669,1.4,3.071-1.305,4.745-4.513Z"></path>
  <rect class="st2" fill="#001E50" x="348.388" y="92.628" width=".407" height=".407" transform="translate(36.459 273.681) rotate(-45)"></rect>
  <rect class="st2" fill="#001E50" x="339.183" y="78.821" width=".407" height=".407" transform="translate(43.526 263.128) rotate(-45)"></rect>
  <rect class="st2" fill="#001E50" x="357.593" y="97.23" width=".407" height=".407" transform="translate(35.9 281.538) rotate(-45)"></rect>
  <path class="st3" fill="#F5507D" d="M252.564,390.884c-3.996,3.487-4.312,7.282-7.961,6.201l6.419-6.676,1.898-3.723c.554-1.087,2.486-1.065,4.251-1.231-1.077,2.195-2.716,3.78-4.607,5.43Z"></path>
  <path class="st3" fill="#F5507D" d="M261.277,382.437l-3.465,2.965c-.27-.192-.707-.297-.749-.308,2.423-3.304,5.154-4.779,4.214-2.657Z"></path>
  <path class="st3" fill="#F5507D" d="M263.189,380.829c-.679,1.234-2.011-.078-.571-.628.705-1.192,2.034.02.571.628Z"></path>
  <rect class="st3" fill="#F5507D" x="297.187" y="354.387" width=".407" height=".407" transform="translate(-163.63 314.144) rotate(-45)"></rect>
  <path class="st3" fill="#F5507D" d="M339.56,324.717c-3.977,7.955-9.181,15.269-14.453,22.368-2.485-1.048-3.922-.08-5.544,1.488-1.996,1.93-4.127,3.427-5.635,5.895-.489.8-1.551,1.255-2.362,1.733l1.21-3.517c4.351-3.918,9.408-7.679,12.411-12.778,1.654-2.809,3.453-4.274,5.479-6.579l7.047-8.016c.603-.686.944-.912,1.849-.594Z"></path>
  <path class="st3" fill="#F5507D" d="M57.089,153.888l-5.816,7.524c.485-.628-4.906,3.24-5.286,3.074-.342-.15-.683-1.372-.276-1.786l8.246-8.361c.853-.865,2.135-.841,3.131-.451Z"></path>
  <path class="st0" fill="#F5507D" d="M23.893,251.992l.592,10.117c-.729.006-1.491.311-2.191.866l-4.015,3.181-.186-3.324-.01-.576c.68.096.68-.67.015-.582l-.196-5.085,3.178-3.42c.799-.92,1.684-1.347,2.813-1.176Z"></path>
  <path class="st0" fill="#F5507D" d="M24.912,266.232l1.945,10.996c-1.315.707-2.169,1.861-3.653,2.322-.25-1.193-.893-2.203-1.088-3.534-.283-1.925-1.9-4.035-1.438-6.347.338-1.692,2.887-2.742,4.235-3.438Z"></path>
  <path class="st0" fill="#F5507D" d="M21.532,277.212l.014,1.725c.002.27.305.534.555.579l.053,1.124c-.975.158-1.895.071-2.791-.302l-.131-1.974c.42.106.629-.396.444-.657-.093-.132-.362-.428-.372-.626-.106-2.038-1.215-5.104.04-7.248l2.188,7.378Z"></path>
  <path class="st2" fill="#001E50" d="M19.344,269.834c-1.255,2.144-.147,5.209-.04,7.248l-.072,1.283.131,1.974.301,3.196-.857.016-.695-5.709c-.337-2.767-.187-5.319-.692-8.089-.268-1.472-.391-2.791,1.24-3.511.209,1.393.414,2.623.685,3.594Z"></path>
  <path class="st3" fill="#F5507D" d="M248.755,99.481l-5.219-2.1c5.378-1.482,7.329-7.216,8.072-3.15l2.653,1.248-4.964,2.794c-.443.25-.547.767-.542,1.208Z"></path>
  <path class="st3" fill="#F5507D" d="M256.635,102.573c-1.366-.734-3.086-.92-4.507-1.793,2.365-1.584,6.226-3.313,8.81-2.997-1.262,2.881-3.833,2.937-4.304,4.79Z"></path>
  <path class="st3" fill="#F5507D" d="M237.794,95.569l-3.925-1.229,3.175-2.024c1.764-1.05,3.132-2.668,5.46-2.715.218,3.334-4.652,3.222-4.711,5.967Z"></path>
  <path class="st3" fill="#F5507D" d="M350.711,261.743l.607-11.69c2.336.086,4.4-1.176,6.779-2.189,1.104,8.035-.846,9.705-7.387,13.878Z"></path>
  <path class="st3" fill="#F5507D" d="M306.298,136.921c-.302-.342-.947-.91-1.298-1.214,1.272-1.471,2.784-2.591,4.795-3.502.43,2.63-1.667,3.551-3.497,4.716Z"></path>
  <rect class="st2" fill="#001E50" x="175.8" y="71.917" width=".407" height=".407" transform="translate(.553 145.576) rotate(-45)"></rect>
  <rect class="st2" fill="#001E50" x="176.95" y="70.767" width=".407" height=".407" transform="translate(1.704 146.053) rotate(-45)"></rect>
  <path class="st0" fill="#F5507D" d="M350.425,225.592c-.24-.4-.355-.856-.405-1.332.72.163.375.918.405,1.332Z"></path>
  <path class="st0" fill="#F5507D" d="M27.422,280.036c1.108,5.507,3.166,10.724,4.701,16.126-1.697.686-2.244,2.306-3.723,2.162-2.097-5.13-3.473-10.564-4.609-15.974,1.209-.849,2.055-2.107,3.631-2.313Z"></path>
  <path class="st0" fill="#F5507D" d="M37.765,310.546c-1.072,1.024-1.716,2.267-3.032,2.352l-4.083-9.069c-.158-1.614,1.176-2.479,2.758-3.144l4.357,9.861Z"></path>
  <path class="st3" fill="#F5507D" d="M40.031,315.083c-1.359.303-2.085,1.235-3.096,1.861-.919-1.218-1.565-2.632-2.201-4.045,1.315-.085,1.96-1.328,3.032-2.352l2.265,4.537Z"></path>
  <path class="st3" fill="#F5507D" d="M33.408,300.685c-1.582.664-2.916,1.53-2.758,3.144l-2.25-5.506c1.479.144,2.026-1.476,3.723-2.162l1.286,4.524Z"></path>
  <path class="st3" fill="#F5507D" d="M27.422,280.036c-1.576.206-2.422,1.465-3.631,2.313l-.587-2.798c1.484-.462,2.339-1.615,3.653-2.322l.565,2.807Z"></path>
  <path class="st3" fill="#F5507D" d="M22.101,279.517c-.25-.045-.553-.309-.555-.579.238.038.543.322.555.579Z"></path>
  <path class="st0" fill="#F5507D" d="M29.142,209.987l-2.657,12.564-7.958,6.949.271-5.132.949-5.854,7.106-7.309c.731-.751,1.474-1.209,2.288-1.218Z"></path>
  <path class="st0" fill="#F5507D" d="M24.645,233.474l-.744,10.744c-2.048,1.063-3.14,3.651-6.367,5.279-.199-3.826.094-7.611.388-11.43,2.919-1.599,3.946-4.9,6.724-4.592Z"></path>
  <path class="st3" fill="#F5507D" d="M24.645,233.474c-2.778-.308-3.805,2.994-6.724,4.592.219-2.847.455-5.695.607-8.566l7.958-6.949c-.772,3.649-1.585,7.25-1.84,10.923Z"></path>
  <path class="st3" fill="#F5507D" d="M23.901,244.218l-.008,7.774c-1.129-.171-2.013.256-2.813,1.176l-3.178,3.42-.369-7.091c3.227-1.628,4.319-4.215,6.367-5.279Z"></path>
  <path class="st3" fill="#F5507D" d="M18.083,262.255l.015-.582c.665-.088.665.678-.015.582Z"></path>
  <path class="st3" fill="#F5507D" d="M173.991,404.784l.574.078c.01.943-.874.513-.574-.078Z"></path>
  <path class="st1" fill="#001E50" d="M178.485,215.307c2.374-3.843,4.733-6.995,7.506-10.084l12.923-14.396c-4.326-4.205-8.741,4.641-15.561,7.122l12.062-14.349c1.678-1.996,3.403-3.184,3.85-6.406,1.327,2.926.277,4.86.319,7.538l.245,15.783c-1.495.994-2.825,1.965-3.13,3.842l-.717-2.162-17.496,13.114Z"></path>
  <path class="st1" fill="#001E50" d="M198.809,223.532l-.554.649c-.192.164-.515.326-.663.563l-7.603,5.727-10.446,7.32c1.268-3.312,4.028-4.708,5.946-7.151l7.34-9.352,6.86-8.083.234,7.673c.034,1.103-.468,1.897-1.114,2.654Z"></path>
  <path class="st1" fill="#001E50" d="M197.592,224.744c.246-.185.447-.31.663-.563.292-.135.447-.448.554-.649.951.015,1.149.547,1.112,1.262l-.116,12.527c-3.887,3.635-7.948,6.463-12.71,8.974,2.273-4.003,5.86-6.334,7.781-10.964-4.701,2.668-7.905,9.849-12.452,8.785l-12.209,13.392c-1.316-2.791-1.18-5.294-.826-7.741,3.016-.685,4.982-2.336,6.413-4.462,1.758,1.566,3.231-.423,4.135-1.613l-.619-.639c-.434.366-.861,1.187-2.118.745l3.121-2.338c.077.832-.376,1.133-.614,1.462l.422.519c5.488-2.383,10.683-5.972,13.635-11.52-4.982,1.141-7.83,8.18-12.513,8.574l10.152-8.623,5.497-5.404c.478-.47.583-1.185.693-1.722ZM194.718,230.325c1.152.602,1.646-.305,1.627-.851l-1.627.851Z"></path>
  <path class="st1" fill="#001E50" d="M169.572,213.541c-.494-5.512-1.43-10.037,1.759-10.861,2.086-3.515,4.953-6.091,7.886-8.837l6.519-6.104c1.873-1.754,3.371-3.432,5.148-5.243l8.003-8.151c-1.669-.727-2.278.736-3.161,1.435-2.351,1.863-4.452,3.541-6.389,5.79-.572.471-1.355-.327-.878-.912l10.781-13.232c1.479,2.076.125,4.434.367,6.12.54,3.775-5.062,8.82-8.545,12.583l-7.736,8.356c-2.176,2.35-4.434,4.462-5.878,7.38-2.105,4.255-6.582,7.096-7.876,11.676Z"></path>
  <path class="st1" fill="#001E50" d="M175.301,231.327c-2.006,1.635-4.075,2.626-5.804,4.72-.643-2.102-.438-3.654-.238-5.419l6.506-3.997,23.889-23.715.353,8.802-3.752,3.196-5.454,3.778-15.501,12.636Z"></path>
  <path class="st1" fill="#001E50" d="M181.617,207.723c-3.505,5.34-6.499,11.347-12.214,14.573l-.25-6.867c3.219-1.248,5.421-3.662,7.922-5.848l7.214-6.303c.62,2.41-1.751,3.042-2.672,4.444Z"></path>
  <path class="st1" fill="#001E50" d="M183.654,260.14l-4.333,6.315c-1.555-.563-2.561-.917-3.919-2.022l9.993-7.685c-.438,1.275-1.02,2.342-1.74,3.391Z"></path>
  <path class="st1" fill="#001E50" d="M169.506,244.523c-.554-2.271-.249-4.221.044-6.085.874.551.655,1.147.628,1.491-.016.204.355.659.78.33l7.263-5.631.57.476-9.285,9.42Z"></path>
  <path class="st1" fill="#001E50" d="M172.522,261.659c-.822-.59-.836-1.214-.47-1.941l9.036-6.754c-2.308,3.655-5.448,6.183-8.566,8.695Z"></path>
  <path class="st1" fill="#001E50" d="M173.067,224.392l-3.402,4.615c-.543-1.062-.524-2.174-.335-3.592,1.069-.66,2.147-1.354,3.737-1.023Z"></path>
  <path class="st1" fill="#001E50" d="M194.82,244.247c-1.21,1.64-2.748,3.01-4.319,4.246-.202-.169-.532-.293-.738-.341l4.549-4.339.508.433Z"></path>
  <path class="st1" fill="#001E50" d="M171.692,164.341c-.052,1.377-1.349,2.421-2.097,3.017-.652-1.018-.561-2.343-.185-3.06.301-.573,2.148-.542,2.281.043Z"></path>
  <circle class="st1" fill="#001E50" cx="197.001" cy="259.954" r=".641"></circle>
  <path class="st1" fill="#001E50" d="M194.873,262.482c.205.046.487-1.432.679-1.351.449.189.391.66.295.829-.094.165-.368.657-.973.522Z"></path>
  <path class="st1" fill="#001E50" d="M192.138,254.685c-2.197.751-3.876,2.35-5.98,3.771.537-3.204,2.735-4.882,4.559-7.038,3.276-3.872,6.284-7.476,8.987-11.746,0,3.564.714,7.166-.11,10.417l-6.04,6.31-.948.518c-.19.104-.895.062-.863-.145.072-.469.552-.956.395-2.087Z"></path>
  <rect class="st1" fill="#001E50" x="190.182" y="257.737" width=".407" height=".407" transform="translate(-126.629 210.172) rotate(-45)"></rect>
  <rect class="st1" fill="#001E50" x="187.305" y="250.834" width=".407" height=".407" transform="translate(-122.59 206.116) rotate(-45)"></rect>
  <rect class="st1" fill="#001E50" x="197.661" y="258.313" width=".407" height=".407" transform="translate(-124.845 215.629) rotate(-45)"></rect>
  <path class="st1" fill="#001E50" d="M187.8,249.901l1.438-1.443.273.273-1.137,1.18c-.178.286-.425.3-.575-.01Z"></path>
  <path class="st1" fill="#001E50" d="M194.128,206.179l1.438-1.443.273.273-1.137,1.18c-.178.286-.425.3-.575-.01Z"></path>
  <rect class="st1" fill="#001E50" x="186.155" y="201.358" width=".407" height=".407" transform="translate(-87.943 190.811) rotate(-45)"></rect>
  <rect class="st1" fill="#001E50" x="181.552" y="199.057" width=".407" height=".407" transform="translate(-87.664 186.883) rotate(-45)"></rect>
  <rect class="st1" fill="#001E50" x="182.703" y="197.907" width=".407" height=".407" transform="translate(-86.513 187.359) rotate(-45)"></rect>
  <rect class="st1" fill="#001E50" x="198.236" y="257.162" width=".407" height=".407" transform="translate(-123.863 215.698) rotate(-45)"></rect>
  <path class="st0" fill="#F5507D" d="M345.014,270.212c-.048,1.873.553,3.591.52,5.888l-.08,5.582c-.939-.052-1.628.483-2.496,1.107l-9.407,6.763-18.044,11.23-11.559,8.03-17.364,11.988-10.515,7.284-13.111,10.472c-3.972,3.172-8.1,5.97-10.901,10.751l12.936-8.743,24.341-17.607,16.69-11.495,24.596-17.37,10.929-7.525c.977-.673,1.731-1.364,2.865-1.302l-2.733,11.96c-1.336.254-2.118,1.445-3.308,2.271l-13.618,9.452-26.936,18.538c-6.551,4.509-12.799,8.569-19.735,12.448l-12.125,8.564-21.019,15.752-16.166,13.248-32.464,25.53c-.425.334-.47,1.098-.546,1.447l-5.425-.283-5.425-.959c-.071-.936.661-1.463,1.276-2.179,3.863-4.495,8.353-7.567,12.81-11.421l32.659-28.243,17.639-15.216,15.759-14.108c9.801-7.662,19.382-14.833,28.572-23.196l18.372-14.477,13.467-10.155,15.532-11.481c1.293-.956,2.137-2.727,4.015-2.544Z"></path>
  <path class="st0" fill="#F5507D" d="M345.053,255.389c.768,3.371.165,6.837.077,10.265l-1.214,1.431-21.333,14.418-26.711,20.307-12.672,10.406-15.942,13.414-19.419,16.225-27.117,22.927-23.898,20.409c-6.461,5.517-12.524,10.906-18.216,17.124l-11.591-1.818c.739-2.851,3.133-4.561,5.301-6.465l20.201-17.75,21.261-17.364,56.413-47.042,45.121-36.531c7.782-6.3,15.674-11.488,24.018-16.857,1.917-1.233,3.439-2.925,5.721-3.098Z"></path>
  <path class="st3" fill="#F5507D" d="M345.014,270.212c-1.879-.183-2.722,1.588-4.015,2.544l-15.532,11.481-13.467,10.155-18.372,14.477c-9.19,8.363-18.771,15.534-28.572,23.196l-15.759,14.108-17.639,15.216-32.659,28.243c-4.457,3.854-8.947,6.926-12.81,11.421-.615.716-1.347,1.243-1.276,2.179l-6.303-.919c5.692-6.218,11.756-11.607,18.216-17.124l23.898-20.409,27.117-22.927,19.419-16.225,15.942-13.414,12.672-10.406,26.711-20.307,21.333-14.418,1.214-1.431-.117,4.558Z"></path>
  <path class="st3" fill="#F5507D" d="M345.454,281.682l-1.04,3.581c-1.133-.061-1.888.63-2.865,1.302l-10.929,7.525-24.596,17.37-16.69,11.495-24.341,17.607-12.936,8.743c2.801-4.781,6.929-7.578,10.901-10.751l13.111-10.472,10.515-7.284,17.364-11.988,11.559-8.03,18.044-11.23,9.407-6.763c.868-.624,1.557-1.159,2.496-1.107Z"></path>
  <rect class="st0" fill="#F5507D" x="308.117" y="172.018" width=".407" height=".407" transform="translate(-31.474 268.458) rotate(-45)"></rect>
  <path class="st0" fill="#F5507D" d="M231.675,101.874c-.154.601-.702,1.065-1.344,1.067-.141-.392.045-1.038.367-1.139.357-.112.769-.006.976.072Z"></path>
  <path class="st1" fill="#001E50" d="M148.01,15.185c-.654.281-1.069.033-.976-.084.219-.273.703-.766.913-.85.235-.093,1.191.448.063.933Z"></path>
  <path class="st1" fill="#001E50" d="M143.517,20.343l1.627-.851c.02.546-.475,1.453-1.627.851Z"></path>
  <path class="st0" fill="#F5507D" d="M218.627,391.663c-1.413,1.181-2.072,2.694-3.966,2.919.679-1.87,2.143-2.943,3.66-4.108.67-.133,1.115.741.306,1.189Z"></path>
  <path class="st0" fill="#F5507D" d="M222.503,388.516c-1.034,1.736-1.923,1.982-3.283,2.051.492-1.593,2.18-2.325,3.283-2.051Z"></path>
  <rect class="st0" fill="#F5507D" x="234.48" y="377.974" width=".407" height=".407" transform="translate(-198.675 276.712) rotate(-45)"></rect>
  <circle class="st0" fill="#F5507D" cx="224.04" cy="387.095" r=".495"></circle>
  <path class="st3" fill="#F5507D" d="M19.231,278.365l.072-1.283c.01.198.279.494.372.626.184.261-.024.763-.444.657Z"></path>
  <polygon class="st2" fill="#001E50" points="171.401 175.967 171.411 176.342 171.411 176.731 171.401 177.106 171.39 176.731 171.39 176.342 171.401 175.967"></polygon>
  <path class="st2" fill="#001E50" d="M176.134,166.727c.686-.244.123-1.856.595-2.335l6.277-6.366,1.214,1.039c1.033.884,2.609-2.684,5.388-4.524.877,1.125-.277,1.99-.637,3.059,2.034-.702,2.766-3.122,5.605-2.729l-9.014,9.597-11.358,9.405c-.718.594-2.615.73-2.5-.157.34-2.621,2.734-4.26,3.889-6.329.134-.375.164-.902-.557-.906.557.397,1.028-.038.457-.522.385.575.566.776.642.768Z"></path>
  <path class="st2" fill="#001E50" d="M194.718,230.325l1.627-.851c.02.546-.475,1.453-1.627.851Z"></path>
  <path class="st1" fill="#001E50" d="M195.674,163.409c.707-.892,1.524-1.907,1.046-3.191-3.757,3.042-6.374,6.683-10.815,9.159l4.957-7.374c-2.897.488-3.604,3.205-5.298,4.816-4.472,4.249-7.792,8.938-11.514,13.799l-4.63,6.048-.371-17.201c2.248-1.08,3.284-2.922,4.911-4.472l13.276-12.648c.007-1.087-.178-2.213.483-3.143,7.869,1.404,13.361,9.25,11.934,16.734-2.538,1.158-3.763,3.525-5.604,5.417l-8.169,8.398c-.286.294-1.457.591-1.455,1.13,0,.381.373.868,1.006,1.454l-16.021,16.351-.218-11.458c3.246-.779,5.438-2.699,7.936-4.666l16.099-12.671-3.356.837,5.805-7.318ZM175.591,167.387c-1.155,2.068-3.549,3.708-3.889,6.329-.115.887,1.782.751,2.5.157l11.358-9.405,9.014-9.597c-2.838-.393-3.57,2.028-5.605,2.729.361-1.069,1.514-1.933.637-3.059-2.779,1.84-4.355,5.408-5.388,4.524l-1.214-1.039-6.277,6.366c-.472.478.091,2.091-.595,2.335-.141.05-.351.317-.543.66ZM175.034,166.481c.557.397,1.028-.038.457-.522l-.457.522ZM171.401,175.967l-.01.375v.388l.01.375.01-.375v-.388l-.01-.375Z"></path>
</svg>