<?xml version="1.0" encoding="UTF-8"?>
<svg id="Ebene_1" xmlns="http://www.w3.org/2000/svg" version="1.1" viewBox="0 0 596.774 448.387">
  
  
  <path class="st1" fill="#F5507D" d="M44.155,364.323c-.068-.717.723-1.597,1.575-1.672-.195,1.594-.823,1.853-1.575,1.672Z"></path>
  <path class="st1" fill="#F5507D" d="M34.164,381.565c-.261.065-.64.379-.604.843-.242-.264-.577-.333-.8-.419.666-.853.998-2.871,2.816-3.118-.628.749-1.15,1.302-1.412,2.694h0Z"></path>
  <path class="st1" fill="#F5507D" d="M26.869,381.398c.356-.367.677-.524.717-.572-.1.222-.481.444-.717.572Z"></path>
  <path class="st1" fill="#F5507D" d="M26.205,382.737c.153-.798.381-1.105.665-1.339-.077.51-.302.98-.665,1.339Z"></path>
  <path class="st1" fill="#F5507D" d="M24.865,384.046l.669-.646c-.039.029-.553.354-.669.646Z"></path>
  <path class="st1" fill="#F5507D" d="M25.534,383.4l.671-.664c-.035.124-.276.374-.671.664Z"></path>
  <path class="st1" fill="#F5507D" d="M284.432,312.104c1.059-.143,1.706-.16,2.023-.737,1.682.075,3.546-.537,5.465.946-1.453.831-2.979.809-4.393,1.223l.816.894c1.136-.273,3.178-1.604,4.72-1.224l16.994,9.887c1.668.97,3.547.815,5.335,2.527-5.289.681-9.83,2.217-14.722,4.011-1.473.54-3.016,1.067-2.873,3.331,3.047-1.965,6.005-2.052,9.187-2.396l21.411-2.314c14.159-1.53,28.159-.079,41.931,3.798,1.174-1.853,2.638-1.985,4.409-2.546,12.331-3.904,24.717-7.088,37.739-8.226l14.398-.087c6.146-5.26,12.153-10.248,19.235-13.206-2.088,3.52-9.161,5.931-11.463,9.35-1.837,2.729-3.168,4.64-6.854,4.861l-8.642.518c-15.342.305-29.908,3.807-44.196,9.069-.546.201-1.505-.031-1.621.651-.534,3.14,7.783.278,13.348.502-5.23,2.97-10.523,3.333-16.464,4.026l2.431-2.329c-3.664.665-6.393-.381-9.626-.945-11.55-2.015-23.069-1.879-34.542,1.389,3.939,1.817,7.545-.665,11.217-.519,3.098.124,5.738-.332,9.068.429l-17.18,3.647c-2.963.629-6.515-.892-9.153,1.858l8.385-.349,23.029-4.202c2.646-.483,5.5-.599,8.284,1.093-9.701,2.077-18.909,4.009-28.286,4.692,1.716.366,1.23,1.419.065,1.679-4.193.952-8.024,1.564-11.891,2.963l-19.677,7.114.502.762,20.615-7.255,10.203-2.462c1.825-.44,5.375-3.134,10.979-1.369,6.08,1.915,13.828-5.028,18.296.246l-11.821,2.828c-3.016.721-6.299-.069-8.679,2.388,1.631,1.378,3.353.722,4.906.329l20.203-5.11c2.705-2.448,5.907-3.439,9.446-4.068l21.527-4.569,18.095-3.916,16.383-2.751c-.106-.308-.092-.6-.034-.925l-10.49,1.307c-9.897,1.233-19.304,3.738-29.631,4.125,2.102-2.201,4.831-1.948,7.052-1.941-.982-.372-1.385-.841-1.193-1.168.229-.39.577-.503,1.123-.584l5.658-.838c.09.108.306.249.33.693-.547.189-1.584-.398-2.19.759,5.54.997,9.813-2.496,11.12-1.703.237.144.165,1.15.448,1.093l10.779-2.163-.542-.672-9.352,1.336c3.437-2.844,10.516-3.005,9.783-1.549-.076.151.081.495.387.544,3.649-1.241,5.718-5.051,9.89-6.517,0,1.21-.753,1.41-1.578,2.129,1.859-.32,3.417-1.487,5.266-2.536l5.088-2.886c7.515-6.307,16.115-10.045,25.376-13.35l10.402-3.713,2.494.666,12.287-7.85c.181.253.565.644,1.024.945-.973,1.184-2.597,1.634-3.229,3.484,2.188-.472,3.339-1.813,5.414-3.105.651,1.546-.273,2.15-.616,2.903,1.543.25,2.724-.22,3.991-.922l18.491-10.245c10.529-4.8,20.923-8.245,32.646-8.836.431-.022.985-.008,1.19-.177.188-.155.182-.798.028-1.033-.132-.201-.574-.481-1.105-.388l-14.226,2.493c-1.952.342-2.186.577-3.999-.11-2.2-.834-7.943,3.75-9.155.204,5.488-2.152,11.339-3.107,17.133-3.73,6.993-.752,10.94,1.607,10.244-1.034,6.727,1.315,11.402,7.481,10.059,14.832-.313,1.715-.054,4.913-1.885,6.18l-51.185,35.433-42.499,30.913c-9.357,6.806-18.511,12.86-29.488,16.639l-52.541,18.088-39.08,13.129c-4.718,1.585-9.08,2.392-13.848,3.063-6.877.967-13.514,2.494-20.538.15l-12.682-2.609-8.837-1.709-9.816-1.749c-4.628-.825-10.509-1.753-14.238-3.813-.959,1.399-1.225,1.856-1.737,3.172,1.901-.924,3.306-1.329,5.107-.354-.941.781-1.702,1.03-1.565,2.428,2.221-2.367,4.034-1.854,6.79-1.336,1.519.285,3.151-.046,3.358,2.566.75-1.484,1.795-1.483,3.345-1.176l7.742,1.535,10.941,1.693,12.02,2.807c9.664,2.257,19.534,2.318,29.039-.376l28.124-7.972,23.111-7.001,10.69-3.334,42.145-14.502,12.985-5.846c-11.733,9.39-26.866,14.57-40.778,20.25l-64.351,26.269c-17.162,7.006-34.533,9.481-52.712,5.685l-62.349-13.019-48.94-9.865c-21.632-4.36-41.797-8.154-63.917-3.712-16.174,3.248-31.581,7.795-46.97,13.612-2.81,1.062-5.524,2.362-8.214,2.347-1.858-.01-3.427.52-6.038.658.905-1.842,3.153-.93,4.152-1.576,2.361-1.528,3.947-2.201,6.692-3.049-.945-1.228-2.107-1.062-2.749-1.311,2.147-3.664,5.239-4.847,7.694-7.571-5.079,1.492-7.938,5.717-11.44,9.364l-5.836,3.359c.497.291,1.374.667,1.501,1.211-4.463.63-8.313,1.648-10.276,4.856,2.255-.48,3.295-1.802,4.643-.741-4.244,1.858-6.437,1.208-6.652,2.564-.172,1.086-.739,1.378-1.761,1.463-.812.067-1.624-1.113-2.359-1.743-5.05,1.983-10.768,4.08-16.132,5.347-1.59.376-3.104,1.439-4.739-.069l23.589-8.248c1.867-.653,4.18-1.018,4.355-3.722-3.55,1.575-6.162,2.487-9.436,3.238-1.117.256-2.651,2.218-3.575,1.649l-1.721-1.06-1.84.772-11.161.78c-2.535.177-5.014,1.752-7.711.13l10.446-1.698c5.035-.818,9.949-1.351,14.515-3.831.331-.537-.284-2.172-2.274-1.262,3.708-.93,6.396-2.611,8.851-6.107l-10.264,3.138c-6.759,2.066-7.406,6.188-9.491,3.322-1.884,1.615-4.109,1.993-6.428,2.43-2.672.503-5.437,1.992-8.1.307,4.839-2.115,7.961-4.273,10.914-7.761,1.271-1.501,3.671-2.187,4.301-4.589l-11.316,2.8c.746-2.358,3.263-2.064,4.501-3.267,2.722-2.646,5.039-4.885,7.126-8.119-6.237,1.543-10.433,7.738-10.571,4.012,3.469-2.296,5.244-5.496,7.861-8.265l11.668-12.35c5.151-6.484,11.34-11.816,15.292-19.681l-15.854,17.774c-1.314,1.473-1.876,3.012-3.866,4.235-4.272,2.627-7.18,7.381-12.583,8.906.355-2.878,3.19-3.246,5.021-5.105-2.905.57-5.337,2.511-7.615,4.359,1.106-.019,1.844-.843,2.647.413l-6.406,2.475c-2.57.993-4.217,3.787-7.542,3.72l11.623-11.72c.894-.901,1.294-2.126,2.623-2.057-.234,1.846-1.86,2.701-3.311,4.593,4.116-1.243,7.232-4.046,11.206-6.651-.076.637.54.867.8.419.451-.539.732-.813.604-.843,1.568-.391,2.712-1.126,4.041-2.268-1.673-2.62.163-3.493,1.419-5.165,5.154-6.857,9.825-14.073,16.494-19.432-.322-1.388-.239-2.423,1.137-3.184-2.862-.935-2.17,1.717-2.699,2.445-2.136,2.939-5.517,4.985-7.497,8.251-.199.328-1.011.411-1.33.439l-.303-1.311c-3.083,2.086-5.753,4.433-8.15,7.409,3.464.267,4.071-3.459,6.879-4.426.163,1.724-1.251,2.562-1.846,3.671-1.644,3.063-3.195,5.148-6.411,6.085l-8.311,6.747c2.148-4.749,6.356-7.772,9.824-11.982-3.577.378-4.703,3.693-7.043,5.375-4.508,3.239-8.873,6.051-14.458,8.084,2.548-5.313,6.516-8.864,10.434-12.779l8.526-8.521c1.653-2.977-2.451.669-2.808.175l-1.1-1.52-.961,3.802c-.325-.485-.52-.803-1.058-1.219l-8.294,6.278c-4.08,3.088-7.791,6.542-12.641,9.219.996-3.857,4.333-5.238,6.045-7.982-.604-.262-1.359-1.251-1.127-1.511l19.36-21.742-15.677,8.54c-.02-.008-.169-.407-.172-.681l8.975-7.099c2.644-2.091,4.33-4.697,7.677-6.699l-1.524,3.259c2.252-.527,2.643-1.31,4.035-2.58l-2.379-1.28c1.217-.662,2.474-1.297,1.976-3.059-11.645,3.682-20.866,12.393-31.275,15.573,2.419-2.63,5.063-4.014,7.733-5.59l16.389-9.674c2.722-1.607,4.728-3.569,7.504-5.205l10.348-6.099-.863-.908-11.468,6.353c-2.951,1.635-5.866,3.267-9.355,3.489l2.808-3.859c-4.776,1.669-8.459,3.935-13.197,4.632,10.877-7.957,21.044-7.999,32.256-11.802.289.89-.582,1.073-.836,1.039l.849.902c4.565-3.625,13.475-5.761,9.8-6.441-1.495-.277-7.638,3.972-13.958,3.337,6.952-2.334,10.389-7.137,17.681-6.347-.646.796-1.538.995-1.057,2.269,2.548-1.93,5.103-3.427,8.46-3.674,6.54-.482,12.55-1.711,19.611-2.771-2.914,3.425-6.931,4.781-10.737,6.83l-2.728,3.235-16.783,11.965c-6.175,4.402-12.859,8.083-17.287,14.795l14.434-10.136c.137.153.04.654-.194.848l-6.392,5.282c.599.198,1.339,1.019,1.043,1.35-.254.284-1.493,1.141-.059,2.042,2.367-5.181,7.58-6.453,8.096-11.22l18.935-15.063c2.05-1.631,3.913-3.24,6.321-4.334,2.926-1.329,4.824-3.725,7.223-5.458,2.221-1.604,5.737-1.652,8.608-2.358l-11.723,10.22.67.6,9.248-6.987c1.402-1.059,2.297-2.798,3.194-3.997,2.461-1.464,5.552-1.93,8.555-2.585l-10.201,11.093c4.777-2.199,7.456-6.411,11.197-9.807.253-.229.304-3.32,8.101-4.574l-8.485,11.065c-.126.323-.058.775.232.97l9.237-11.661c1.369-1.728,2.317-2.12,4.228-3.193l16.48-9.252c-4.171,9.547-8.529,18.398-11.402,28.346,3.821-5.433,5.232-11.926,8.005-17.983,1.644-3.592,3.35-6.839,4.834-10.563.753-1.89,3.297-3.253,5.208-4.304l-7.126,17.02c.063.019-.055.197.452.676l5.843-10.914c.548-1.024.736-2.052.852-2.974l.317-.183c.636-2.876,1.589-5.947,4.686-7.158.225,1.291-.489,1.966-.848,2.557l.682.937,4.417-7.014,11.179-8.584c-4.198,8.641-14.839,16.568-16.342,25.514,4.242-7.844,10.055-13.942,15.181-20.907,4.022-5.464,7.678-10.02,14.083-12.865,1.978-.879,3.664-1.977,6.079-2.632,2.229-.604,4.181-3.524,7.307-2.574l-11.262,6.864c-2.953,1.799-5.728,4.454-7.209,8.023,2.718-1.401,3.493-4.37,6.064-5.917l9.971-5.997,9.925-5.346c4.928-2.654,10.604-2.705,16.081-3.449,2.431-.33,4.641-1.837,6.952-.665l-7.054,1.929c-3.703,1.013-7.167,1.609-10.667,3.41-4.47,2.299-9.737,3.09-13.173,7.073,9.539-4.278,18.357-9.06,28.981-9.384l-13.509,6.9c-.099-.093.175.16.369.393l14.152-5.635c4.353-1.733,8.832-2.061,13.044-.856l-9.611,3.982.456.575,7.664-2.803c6.1-2.231,12.094-3.282,18.935-1.103-2.281.853-4.8.885-6.339,3.235,4.533-.879,8.116-3.563,12.697-3.09,2.893.299,5.696.59,8.727,1.658-4.739,2.241-9.538,2.984-13.267,5.994l17.438-5.912c2.399-.813,6.535.563,8.811,2.072l7.734-.798c.452-.047,1.026-1.362.487-2.102-4.501,2.002-8.62,1.39-13.422-.201,2.902-1.699,6.044-1.701,9.488-1.19,12.365,1.833,17.734-3.274,23.805-.553l-26.56,10.754.546.818,29.076-11.411c1.791-.703,4.687.309,6.588,1.303l-24.287,11.42c1.558,1.276,2.767-.342,4.161-.97l23.427-10.551c2.543-.095,5.387.294,8.444.877-1.968,1.493-4.436,2.695-6.834,3.298-2.03.51-2.185,1.506-3.676,2.441l-9.399,5.889c4.932-1.352,8.784-4.283,13.091-6.876,2.746-.607,6.414.77,9.043-.743l-5.053-.699,5.713-3.331c2.358-1.375,4.346.401,5.941.275,2.772-.219,5.481-1.749,8.58-.578-3.273,3.24-7.619,3.528-11.002,5.449-3.426,1.946-6.834,3.244-9.334,6.161,5.862-2.228,10.013-5.58,15.707-7.226l6.832-4.136c2.257-1.366,5.193-1.223,7.998-.777-2.733,3.602-6.784,5.227-10.951,5.506.895,1.044,1.853.653,2.298.802l-10.351,6.777c-1.337.876-3.149,1.689-3.52,3.698l10.615-6.703c5.495-3.47,11.114-6.25,16.82-9.159,2.815-1.435,4.446-2.217,7.791-2.329,10.84-.362,21.342-2.756,30.637,5.513,2.098-4.58-9.532-7.648-16.198-8.013-24.084-1.32-44.906,3.992-70.798.723-4.3-.543-8.588-1.037-12.906-.516l-5.297,2.103c-.328-.989.157-1.657.921-1.593.604.051,1.414.481,2.387-.807-2.667.664-4.78-1.184-7.411-1.652-16.729-2.973-33.092-4.619-50.183-5.1-19.591-.551-38.475,2.418-56.286,10.444-11.283,5.085-21.233,11.64-31.325,18.719l-14.426,11.603c-18.44,14.831-44.573,21.353-67.95,25.209l-29.763,4.91-19.96,2.851c-3.98.569-7.738,1.474-11.908.679l11.072-2.382c3.147-.677,5.713-1.748,8.393-2.383-.265.027-.762,1.679-.434.416,20.027-1.015,38.914-4.682,58.422-8.483,17.671-3.443,33.707-9.89,47.941-21.017l17.603-13.76c11.473-8.969,23.292-16.509,37.061-21.636,16.2-6.033,32.853-7.998,50.239-7.439,16.635.535,32.821,1.951,49.01,5.329,19.1,3.986,45.538,3.383,65.694,2.519l26.047-1.115c12.6-.54,26.21,2.641,29.377,14.941,1.76,6.837-.028,13.645-4.694,18.612-6.357,6.766-14.391,11.077-23.351,13.445-43.833,11.585-75.281-.706-110.018,2.963-13.757,1.453-26.578,5.891-39.585,9.203,1.882.564,3.848,1.258,5.396.896,6.82-1.593,13.069-3.95,20.19-4.222l-14.067,7.068c-4.46,2.241-11.882.156-10.99,2.314.336.813,2.952-.023,3.234.728l.464,1.237,11.056-1.853c5.101-1.751,9.854-3.088,14.99-4.493,1.828-.5,3.553-2.727,6.025-1.895-.646,1.616-2.171,1.866-2.804,2.835l.443.652,6.203-1.581c.717-.183,1.129.2,1.307.424,1.257,1.576-3.056.719-4.696,2.052.69.485,1.154.343,1.582.459.787.212-.615,2.368-1.238,2.211l-5.402-1.36c.597-1.179,1.123-1.37,1.757-1.772l-.305-.633c-1.802.608-3.67,1.011-5.144,2.586,1.079.094,2.212-.135,2.822.371.377.312-.566,1.391-.22,2.266,5.004-2.655,6.331,1.359,8.018,1.569.923.115,1.196-1.774,3.914-2.233.939-.159,1.614,1.155,2.119,1.869,3.935.315,6.666,4.469,7.176,3.061l.833-2.3c1.8-1.536,5.177-.268,6.223,1.403.114.183-.716.944-.911.874-.241-.088-.689.498-.22.795,1.185.751,2.598-.836,3.501-.865.788-.025,1.61.382,1.959,1.398-1.67.321-2.438,1.197-1.958,2.461,2.763-2.612,5.117-1.677,7.151-.503l.61-.389c-.358-1.774-1.618-1.802-3.321-2.522l-5.357-2.265c.18-.471.421-1.065.377-1.262-.132-.597-1.232.173-2.857-.076-.53-.081-.784-.585-.32-.959.248-.2,1.269-.397.761-1.669-1.72,1.014-3.311,1.312-4.504-.168.892-1.027,1.771-1.227,2.519-1.638l-.559-.591c-1.597.751-3.409,1.675-5.215.305.97-1.083,1.995-1.311,2.357-2.041l.005.003ZM367.474,257.306l-.334.334.334.334.334-.334-.334-.334ZM348.654,271.388l13.823-10.092c1.693-.987,3.495-1.39,4.42-3.465l-6.4,2.992-2.213,2.301c-3.415,2.511-7.491,4.208-9.63,8.263h0ZM222.802,260.296l-.435.012.435.012h.45l.435-.012-.435-.012h-.45ZM278.457,261.415c-.344-1.195-1.474-.866-2.347-.459l-9.25,4.314c.104.24.289.521.577.789l11.02-4.644h0ZM220.098,266.088c.513-.683.297-1.242-.458-1.415-6.876,5.337-14.326,9.435-20.176,16.276l20.634-14.861h0ZM234.58,266.181c.417-.284.731-.43.77-.679.033-.21.169-.72-.028-.799-.222-.088-1.08.161-1.318.329l-18.243,12.901c.184.171.32.523.333.815l18.486-12.567h0ZM205.494,266.543c.318-.252-.007-1.314-.618-1.333-7.053,6.436-15.135,11.308-21.322,18.704l21.94-17.371ZM171.157,287.469c6.861-6.302,12.629-12.482,18.002-19.574-6.931,5.892-13.192,12.181-18.002,19.574ZM247.637,268.161c-5.239,1.332-9.199,4.056-12.757,7.307,4.682-2.316,9.071-4.353,12.757-7.307ZM325.267,270.079c1.281-.589.15-2.208-.82-1.099-.578.364-1.15.447-1.346.66-.241.262.027.956.345,1.004.286.043.812-.101,1.822-.565h0ZM307.055,269.745c-.122,1.018.776,1.067,1.037.912.361-.214.498-.614.341-1.004-.124-.311-.879-.789-1.378.092ZM322.063,271.803c1.032-.548.167-1.693-.627-.964-.589.231-.772.563-1.013.815-.428.447-.084.862.402.75.226-.052.637.112,1.239-.602h-.001ZM172.591,274.543c.729-.579.768-1.531-.306-1.79l-12.105,17.406,12.411-15.616ZM535.423,284.259c-8.599.994-15.734,5.211-21.919,9.809,7.765-3.705,14.823-6.862,21.919-9.809ZM145.031,291.724c-.657.634.383,1.384.686.498,1.192-1.51,3.24-2.814,2.506-5.153l-2.898,4.27-.294.385h0ZM513.572,294.43c-.209-.349-.688-.603-1.201-.25l-5.847,4.016.435.525,6.613-4.291ZM494.591,299.065l-13.055,5.946c4.885-.69,9.173-2.646,13.055-5.946ZM125.097,307.423c2.66-1.947,3.731-4.841,3.709-7.476-1.801,2.544-3.551,4.617-3.709,7.476ZM108.885,328.622l5.791-10.183c1.28-2.251,1.906-4.622,3.163-6.677l6.45-10.549c-3.844,3.274-5.867,7.628-8.24,11.91l-8.07,14.564c-.369.666.234,1.289.906.935h0ZM449.162,319.709c-2.41,1.996-5.376,2.953-6.831,5.845l13.583-8.204,20.635-9.985c1.384-.67,2.349-2.397,4.203-2.203-1.664-1.779-3.046-.276-4.404-.131-4.402.471-8.514,1.453-12.151,4.027-2.733,1.934-5.848,2.418-8.667,4.019l-20.495,11.633.554.937,12.585-6.904c.658-.994,1.705.372.989.965h-.001ZM487.646,307.503c.238-.45.332-.939.339-1.286l-9.412,3.284c.128.309.078.696-.007.955l9.081-2.953h-.001ZM118.691,322.889c3.132-4.626,5.129-8.805,6.26-13.838-3.249,4.303-5.106,9.14-6.26,13.838ZM475.977,311.82c-10.489,2.907-20.401,8.557-28.924,15.686,9.592-5.691,18.506-10.582,28.924-15.686ZM267.396,314.017l-.334.334.334.334.334-.334-.334-.334ZM294.083,314.685l-.334.334.334.334.334-.334-.334-.334ZM73.47,316.372c1.316-.56.224-1.206-.093-1.066-.231.102-.644.484-1.078,1.021-.096.119.419.365,1.171.045ZM258.722,315.352l-.334.334.334.334.334-.334-.334-.334ZM292.19,315.673l-.435.012.435.012h.45l.435-.012-.435-.012h-.45ZM290.747,316.019l-.334.334.334.334.334-.334-.334-.334ZM108.185,317.544c-.476-.938-1.606-.514-2.101.352l-8.908,15.592s11.009-15.944,11.009-15.944ZM70.791,317.508c-1.024-.166-1.802.296-3.268.847.742.513,1.798.59,3.268-.847ZM293.525,318.342l-.435.012.435.012h.45l.435-.012-.435-.012h-.45ZM64.87,321.265c1.395-.712,2.564-1.227,2.258-2.949l-7.271,2.163c2.034.717,3.432.527,5.013.786ZM81.48,340.024c6.68-6.171,11.153-13.029,16.551-19.963-2.805-.006-3.594,2.524-4.734,4.311-3.621,5.675-9.118,9.579-11.817,15.652ZM35.678,341.23l6.621-4.449,20.405-14.667-27.932,14.64c2.388,1.624,2.185-.35,3.51,1.176-1.368.614-3.994.962-2.604,3.3ZM85.516,321.883c-7.442,6.35-14.101,12.179-20.24,18.897,7.731-5.667,14.857-11.573,20.24-18.897ZM229.147,324.706c-1.455-1.501-3.929-1.366-4.874.473,1.739.115,3.14.216,4.874-.473ZM250.454,323.993l-6.629,1.206c5.366,2.644,8.971-1.632,6.629-1.206ZM300.944,325.063l-.6.672c.451.559,2.297,1.125,2.649.473-.016-1.114-1.546-1.053-2.048-1.145h0ZM441.942,326.027c0-.41-.333-.743-.743-.743s-.743.333-.743.743.333.743.743.743.743-.333.743-.743ZM242.968,326.224c-6.269-.429-10.821,2.926-16.375,4.154,1.176,1.874,2.621.777,3.504.05l12.871-4.204h0ZM265.317,326.576c-3.244-.266-6.047-.031-8.414,1.704,3.049.18,5.694-.222,8.414-1.704ZM236.414,334.542l20.201-5.84c-2.436-1.143-4.475.204-6.606.94-4.719,1.63-9.983,1.734-13.595,4.9h0ZM249.349,338.07c6.395-2.405,12.077-4.693,18.546-5.973.344-.068.315-1.141-.002-1.156-.361-.017-1.327.083-1.732.217l-18.196,5.99c-.32.751.321,1.322,1.384.923h0ZM276.941,334.11c1.349-.466,2.997.308,4.246.454.675.046.531-1.512.171-1.831s-1.732-.759-2.375-.522l-21.594,7.945c4.722.416,8.382-2.191,12.29-3.54l7.262-2.506ZM426.005,334.062c.45-.055.36-1.223-.202-1.164l-13.153,3.348c4.74.265,8.684-1.611,13.355-2.184h0ZM297.373,335.726c-3.295-1.623-6.61-.451-9.995-.65-.701-.041-1.241.909-1.225,1.328.077,2.037,6.63,1.375,11.22-.679h0ZM308.609,338.739l13.863-2.821c-2.54-1.937-5.59-.665-8.194.04l-5.242,1.42c-8.97,2.43-18.309,3.638-26.347,8.44,8.995-2.441,16.781-5.771,25.92-7.08h0ZM42.127,342.104c2.848-1.008,3.875-2.756,5.039-4.691-2.449,1.017-4.573,2.314-5.039,4.691ZM285.127,337.902c-2.021-.831-3.69.152-5.395.808l-7.475,2.879c.093.083.421.347.523.583l12.347-4.27h0ZM379.736,346.869l15.808-5.238c4.26-1.412,7.975-2.719,12.915-3.291-2.61-2.187-5.011-.161-7.371.367l-20.416,4.564c.241.883.362,1.485.258,1.781-.108.305-.947.651-1.647.563-1.024.37-.639,1.542.455,1.255h-.002ZM63.118,342.69c1.334-.33,1.537-1.308,1.677-1.935-.848.343-1.757,1.128-1.677,1.935ZM290.367,350.122c1.059,1.089,2.458.513,3.521.05,9.202-4.012,18.451-6.759,28.081-8.938-2.791-1.554-5.939.913-8.076.586-2.316-.354-1.966.427-3.34.929l-20.186,7.373h0ZM272.108,342.125c-3.297-.711-6.411.78-9.306,2.876,3.046-.632,5.918-1.063,9.306-2.876ZM31.45,344.041c0-.317-.257-.574-.574-.574s-.574.257-.574.574.257.574.574.574.574-.257.574-.574ZM32.232,345.707c1.336.699,1.909-.354,1.887-.987l-1.887.987ZM57.227,346.429c.466-.426.775-.827.764-1.289-.014-.589-.379-.52-.679-.285l-.939.734c-2.944,2.303-6.61,4.634-7.27,8.263l8.124-7.423ZM30.091,357.627c2.89-3.41,6.259-3.765,5.102-7.459.634-1.625,3.225-2.56,3.098-5.14-4.424,2.285-7.458,5.691-10.601,9.157-3.808,4.199-7.984,7.688-11.231,12.801l13.632-9.358h0ZM376.145,348.015c.405-.114.559-.863.306-1.32l-24.013,6.905.063,1.1,23.644-6.686h0ZM339.973,349.659c1.238.167,1.418-1.546.187-1.379l-12.456,3.888.466.7,11.803-3.209h0ZM43.652,351.942c.875-1.043,1.25-1.573,1.897-2.459-1.185.337-2.089,1.232-1.897,2.459ZM37.624,350.713c0-.41-.333-.743-.743-.743s-.743.333-.743.743.333.743.743.743.743-.333.743-.743ZM40.838,354.448c-2.314.764-3.764,2.663-5.097,5.18,2.561-.983,4.125-2.054,5.097-5.18ZM20.806,377.945l17.139-12.162,10.773-10.919c-2.043-.759-2.758,1.077-3.652,1.966l-8.798,8.753c-.492-.964.253-1.491.567-1.886.286-.359.016-.703-.401-.602-.208.05-.906-.315-1.235.006-5.023,4.897-10.456,9.259-14.393,14.845h0ZM33.212,357.385l-.334.334.334.334.334-.334-.334-.334ZM51.946,377.432l6.473-8.268-.601-.379-9.265,10.735c1.434-.183,2.524-.978,3.393-2.088h0ZM61.234,372.063l-.334.334.334.334.334-.334-.334-.334ZM43.503,398.661l8.833-9.164-7.145,1.965c5.437-6.288,11.445-10.966,15.544-18.277l-17.509,18.551c-1.827,1.936-4.696,2.657-6.624,4.739l-7.798,8.417c5.198-1.589,11.022-2.417,14.699-6.231ZM19.868,378.068l-.334.334.334.334.334-.334-.334-.334ZM28.228,397.132l6.657-2.407,6.606-5.994,7.677-9.068c-3.319,1.602-5.088,4.245-7.616,6.65l-1.813-1.63s-11.511,12.449-11.511,12.449ZM46.907,400.438c2.118-.247,2.694-1.581,3.607-2.759l10.745-13.859c-3.443,1.173-4.755,4.227-6.548,6.73l-5.878,8.205-1.927,1.683h.001ZM66.984,390.837c0-.361-.293-.653-.653-.653s-.653.293-.653.653.293.653.653.653.653-.293.653-.653ZM21.202,391.411l-.334.334.334.334.334-.334-.334-.334ZM39.545,410.609c4.671-.398,8.058-1.592,11.692-2.986,2.892-1.11,4.188-4.876,6.097-7.011l7.486-8.373-12.979,10.511c-.318-.979-.399-1.64-.954-2.336l-11.343,10.195h0ZM70.243,402.435c.181.365.46.333.665.013l2.658-2.7-.321-.32-3.003,3.008h0ZM41.258,406.13l5.589-4.893c-1.862-1.565-3.288-.813-5.045.405-5.706,3.954-11.186,7.641-15.623,12.992,6.139-.837,10.409-4.414,15.08-8.503h-.001ZM268.186,400.392c-.796.783.039,1.343.542,1.01.344-.228.922-.731.929-1.025.005-.199-.828-.617-1.471.015h0ZM273.509,402.408l-.435.012.435.012h.45l.435-.012-.435-.012h-.45ZM69.603,404.656c.816-.688.203-1.566-.535-1.345l-7.735,6.986.647.786,7.623-6.428h0ZM265.394,408.098l-.012.435v.45l.012.435.012-.435v-.45l-.012-.435ZM47.586,415.783c4.801-1.913,8.836-3.595,12.714-6.242-5.001.974-8.819,3.675-12.714,6.242ZM55.896,416.098l-.334.334.334.334.334-.334-.334-.334ZM50,423.091l-.435.012.435.012h.45l.435-.012-.435-.012h-.45Z"></path>
  <path class="st1" fill="#F5507D" d="M286.455,311.367c-.875-.039-1.565-.187-2.023.737l-4.021.74c-.463.08-1.195.042-1.561-.208-.314-.214-.371-.806.051-1.647l-5.25-2.117c1.731-.102,2.951-1.79,4.121-2.939l9.071,3.8c1.441.02,1.059,1.696-.389,1.633h.001Z"></path>
  <path class="st0" fill="#001E50" d="M360.043,190.764c-.254,5.739.616,10.933-.956,15.859-2.631,8.242-10.835,11.763-19.039,10.988-9.015-.852-15.101-7.787-15.067-17.062l.037-10.184-20.566-.326c-3.21-.051-5.867-.881-8.782-2.111-9.082-3.834-14.024-14.173-9.946-23.499,2.954-6.755,9.899-10.918,17.368-10.93l58.646-.097c4.565-.008,8.959-3.766,8.985-8.134.022-3.787-3.316-6.589-6.741-7.656-9.309-2.901-18.799-3.76-28.425-5.647l-25.062-4.91c-12.277-3.633-23.489-10.716-29.841-22.011-12.791-22.745-3.23-51.529,20.09-62.898,7.71-3.759,15.724-5.363,24.366-6.111.021-5.355-.447-10.243.583-15.25,2.313-11.247,13.609-15.405,24.276-11.855,5.709,1.9,9.198,6.839,9.168,12.839l-.071,14.064,16.08.111c3.619.025,6.818,1.086,9.889,2.399,6.108,2.612,9.545,7.363,10.294,13.859.852,7.39-3.134,14.382-10.102,17.663-2.533,1.193-5.076,2.402-8.11,2.401l-51.322-.021c-5.59-.002-10.589,3.152-10.597,7.905-.008,5.317,5.537,7.75,11.604,8.837l34.458,6.175c16.895,3.028,33.396,9.692,43.776,23.469,9.371,12.438,12.042,28.558,5.728,42.962-6.372,14.536-19.511,24.205-34.813,27.694l-15.909,1.478h0ZM349.996,15.594c.81-.689.557-1.343.058-1.5-.227-.072-.888-.182-.99.008l-.56,1.048-5.804,5.643.828.307,6.467-5.507h0ZM331.947,26.323c2.843-2.22,4.86-4.299,6.418-7.183l-3.737,4.137c-.998,1.105-2.203,1.648-2.681,3.046ZM337.785,25.47c.182.37.463.331.665.013l3.995-4.032-.323-.323s-4.337,4.342-4.337,4.342ZM337.98,40.653l14.872-13.128c.979-1.225,2.376-2.258,1.847-3.99l-2.523,3.295-7.252,6.143c-2.472,2.444-6.155,3.981-6.944,7.679h0ZM330.59,27.629c.808-.758.11-1.456-.648-.648-1.866.697-.051,2.515.648.648ZM348.793,34.464l-.334.334.334.334.334-.334-.334-.334ZM340.697,41.465l.761.47,6.259-5.913c-.147-.242-.62-.404-.966-.088,0,0-6.054,5.531-6.054,5.531ZM361.879,39.802c0-.41-.333-.743-.743-.743s-.743.333-.743.743.333.743.743.743.743-.333.743-.743ZM369.476,39.802l-.334.334.334.334.334-.334-.334-.334ZM318.869,54.547l15.595-14.039c-5.871,3.993-11.379,8.264-15.595,14.039ZM356.053,43.509c.219.225.842.388,1.252.014l2.983-2.716-.79-.362-3.446,3.064h.001ZM362.539,45.564c2.623-1.355,4.719-2.685,5.861-5.072-2.159,1.758-4.463,2.8-5.861,5.072ZM377.155,40.549c-2.406.953-3.324,2.333-4.336,3.902,2.35-.722,3.488-2.204,4.336-3.902ZM344.154,45.58c2.828-1.061,3.9-2.544,5.043-4.473l-5.043,4.473ZM339.44,43.675c.704-.322.396-1.096.007-1.21-.387-.113-.714.013-1.067.6l-1.242,2.061,2.303-1.451h-.001ZM383.9,43.231c0-.361-.293-.653-.653-.653s-.653.293-.653.653.293.653.653.653.653-.293.653-.653ZM356.335,44.182c-.321-.514-.824-.613-1.384-.157l-8.315,6.769.923.342,8.776-6.953h0ZM374.254,51.627c3.887-1.567,5.681-4.328,7.493-7.135l-7.493,7.135ZM296.989,53.919c4.093-2.225,7.188-5.269,10.063-8.684l-10.063,8.684ZM368.679,49.01c1.295-1.424,3.22-2.037,3.26-4.149-3.107,2.425-5.287,4.427-8.389,6.057-1.181,1.547-3.182,2.283-3.706,4.533,2.939-2.395,5.308-4.58,8.834-6.441h.001ZM331.137,50.168c.043.294.498.448.634-.027l3.984-4.016-.289-.291-4.329,4.334ZM334.416,54.817c3.567-3.096,7.146-5.471,9.734-8.895-2.696.601-3.631,2.867-5.415,4.146l-14.083,12.388,9.764-7.639ZM358.91,48.239c2.212-.155,2.682-1.354,3.349-2.483-1.995.436-2.72,1.403-3.349,2.483ZM310.096,46.474l-.334.334.334.334.334-.334-.334-.334ZM306.5,49.536c1.596-.345,2.073-1.188,2.54-2.361-1.376.563-1.906,1.313-2.54,2.361ZM348.629,56.849c.147.165.888.376,1.319-.009l9.006-8.045-.815-.41-9.511,8.463h0ZM381.251,53.584c2.023-1.677,3.838-3.146,5.19-5.224-4.885,3.211-8.966,6.971-12.594,11.362l7.404-6.138ZM305.178,51.14c1.569-1.024-.239-1.899-.792-.692-1.637.997.11,1.922.792.692ZM328.448,52.161c.174.359.46.344.666.012l1.319-1.368-.317-.317-1.668,1.673ZM346.543,51.192c-1.937.569-2.833,1.737-3.859,3.302,1.929-.593,3.042-1.297,3.859-3.302ZM297.372,56.233c.428.34.89.279,1.229.002l5.009-4.096-.831-.388s-5.407,4.482-5.407,4.482ZM373.882,51.781c-2.384,1.251-4.063,2.995-5.506,5.709,2.261-1.45,4.294-2.589,5.506-5.709ZM390.554,52.501c-2.403.006-3.247,1.302-3.947,2.76,2.18-.51,2.828-1.622,3.947-2.76ZM342.47,54.634c-4.295,2.481-7.866,5.747-10.767,9.847,3.695-3.237,7.412-5.778,10.767-9.847ZM386.585,55.25c-2.466.902-3.674,2.623-5.126,4.617,2.294-1.128,3.895-2.183,5.126-4.617ZM356.744,62.421c1.923-1.643,4.394-2.339,5.162-5.018-4.556,2.828-8.022,6.349-11.378,10.33l6.216-5.312ZM367.723,58.362l-4.931,3.758s-.07-.837-1.426,1.329c-.645,1.031-2.838,1.525-1.637,3.502,3.077-4.705,7.711-5.471,7.993-8.588h0ZM389.859,58.606c.079-1.067-1.111-1.089-1.326-.238l-5.812,5.819.873.292s6.265-5.873,6.265-5.873ZM290.807,64.27c3.358-1.32,4.877-3.476,6.452-5.811-2.643,1.895-4.872,3.586-6.452,5.811ZM341.12,64.167c.183.371.465.33.665.013l4.663-4.699-.324-.323-5.005,5.009h.001ZM373.458,67.97c3.375-2.574,5.718-5.047,8.062-8.259-3.59,2.218-6.204,4.673-8.062,8.259ZM373.72,61.152c0-.317-.257-.574-.574-.574s-.574.257-.574.574.257.574.574.574.574-.257.574-.574ZM297.806,61.865c-3.619,2.928-6.343,6.16-9.128,9.377,6.626-4.101,11.354-11.178,9.128-9.377ZM290.338,64.506l-4.823,3.786c-3.127,2.455.864,2.162,4.823-3.786ZM380.489,66.172c.174.359.46.344.666.012l1.319-1.368-.317-.317s-1.668,1.673-1.668,1.673ZM341.196,65.822c0-.41-.333-.743-.743-.743s-.743.333-.743.743.333.743.743.743.743-.333.743-.743ZM294.298,77.035c2.96-1.013,4.024-2.788,5.642-4.642-2.617,1.005-4.789,2.36-5.642,4.642ZM294.242,81.014c4.023-1.974,5.961-5.006,8.292-7.839-3.324,2.421-6.22,4.855-8.292,7.839ZM279.255,79.666c3.231-1.243,4.957-3.466,6.803-5.865-3.008,1.527-4.559,3.633-6.803,5.865ZM283.072,82.179c.183.376.47.33.665.012l8.003-8.03-.327-.326-8.342,8.344h.001ZM291.783,80.139c.498-.411.148-1.154-.458-.977l-6.798,5.652.908.568,6.348-5.243h0ZM301.091,82.183c.181.365.46.333.665.013l2.658-2.7-.321-.32-3.003,3.008h.001ZM285.295,88.184c.32.426.637.519,1.167.062l7.817-6.739-.851-.445-8.133,7.122h0ZM310.163,83.114c.761-.62-.419-1.533-.838-.521l-4.702,4.26.885.311s4.655-4.05,4.655-4.05ZM299.757,83.239c-2.05.693-3.146,2.175-4.304,3.963,1.937-.943,3.311-1.761,4.304-3.963ZM279.775,89.535c-.019-.019.152.158.308.311l4.494-4.162-.488-.487-4.315,4.338h.001ZM304.572,87.321c-5,3.01-8.881,6.957-12.523,11.336,4.798-3.272,8.75-6.777,12.523-11.336ZM294.751,87.839l-.334.334.334.334.334-.334-.334-.334ZM313.682,88.371c.475-.943-1.214-1.362-1.29-.064-1.853,1.379-3.16,2.386-4.349,4.237,2.628-.774,3.18-2.567,5.639-4.174h0ZM285.193,88.483c-1.957.987-3.333,1.96-5.237,3.667,2.221-.299,4.573-.822,5.237-3.667ZM289.748,92.19c.182.367.462.331.665.013l3.327-3.366-.322-.322s-3.67,3.675-3.67,3.675ZM319.125,92.156c.327-.54.014-.943-.526-1.039l-7.318,6.38.807.449s7.037-5.79,7.037-5.79ZM307.165,93.405c-7.055,4.271-12.217,9.91-16.576,15.711l16.576-15.711ZM328.793,98.454l.969-1.913c-.791.173-1.111.704-1.306,1.005-.33.509.33,1.029.337.908ZM334.659,100.221c.262.25.868.37,1.294.011l3.211-2.706c.15-.371.038-.706-.112-.894l-4.393,3.589ZM321.539,97.171c-3.35,1.491-5.537,3.574-7.582,6.103,3.455-1.402,5.325-3.762,7.582-6.103ZM305.022,103.646c3.063-1.451,4.671-3.546,6.367-5.868-2.755,1.682-5.134,3.245-6.367,5.868ZM287.382,102.302c2.801-.86,3.551-2.224,4.794-3.868-2.553.882-3.608,2.4-4.794,3.868ZM321.369,104.625c3.101-1.666,4.848-3.679,6.749-6.183-3.054,1.653-4.95,3.557-6.749,6.183ZM345.793,100.585c1.535-.68.214-1.847-.635-.787-1.432.768-.329,1.697.635.787ZM355.188,100.133c-4.447,2.19-8.013,4.984-11.218,8.469,4.399-2.359,7.819-4.988,11.218-8.469ZM334.635,101.454c.59-.908-.716-1.446-1.105-.572-7.498,6.767-15.591,12.523-21.932,20.302l23.037-19.73h0ZM343.743,101.261c-2.007.971-3.607,2.052-4.943,3.84,2.229-.56,3.902-1.591,4.943-3.84ZM287.611,102.833c-.621-.311-1.634-.136-2.301.626-.553.631.27,1.367.705,1.041.199-.149.567-.251,1.596-1.667ZM302.61,114.353l11.541-11.252c-5.061,2.996-8.211,7.206-11.541,11.252ZM298.354,109.565c-.193.86.92,1.056,1.025.169l5.611-5.526-.879-.523-5.758,5.879h.001ZM360.449,104.651c.245-.723-.621-.993-.937-.413-5.63,4.201-11.454,7.797-16.176,13.033,0,0,17.113-12.62,17.113-12.62ZM316.961,108.383c2.683-.839,3.468-2.254,4.628-3.926-2.509.839-3.797,2.226-4.628,3.926ZM337.813,106.513c1.687-.955-.169-1.935-.772-.688-2,.945.128,2.157.772.688ZM368.766,106.464c-.003-.36.055-.64.205-.977l-7.639,5.336.795.488,6.639-4.847ZM376.652,107.519c.683-.095.99-.706.964-1.231-.01-.203-1.065-.224-1.595.633-.871.558.177,1.359.631.597h0ZM335.902,107.304c-2.746,1.112-4.749,2.866-6.335,5.244,2.594-1.365,4.563-2.684,6.335-5.244ZM372.552,110.251c1.596-.345,2.073-1.188,2.54-2.361-1.376.563-1.906,1.313-2.54,2.361ZM343.84,108.571c-1.586.431-2.482,1.284-3.272,2.626,1.857-.153,2.762-.819,3.272-2.626ZM316.101,109.19l-.334.334.334.334.334-.334-.334-.334ZM382.752,111.079c.011-.278.055-.564.214-.923l-5.563,4.225c-.252.191-.303.485-.135.719,0,0,5.484-4.021,5.484-4.021ZM294.777,114.435c2.266-1.022,2.956-2.414,3.632-4.253-1.529,1.276-3.66,2.228-3.632,4.253ZM310.14,114.303c2.778-.709,3.583-2.108,4.63-3.877-2.408,1.039-3.335,2.501-4.63,3.877ZM371.289,111.695c.808-.758.11-1.456-.648-.648-1.866.697-.051,2.515.648.648ZM340.473,111.226c-1.6.409-2.354,1.311-3.036,2.516,1.632-.158,2.625-.734,3.036-2.516ZM360.582,112.566c1.991-.993-.213-2.147-.759-.72-1.993.925.052,2.067.759.72ZM369.03,113.448c.686-.192.487-1.103-.273-.912l-8.167,6.277.891.533,7.548-5.899h.001ZM328.434,113.295c-2.541,1.182-4.259,2.926-5.764,5.352,2.563-1.359,4.332-2.718,5.764-5.352ZM359.106,113.671c-.366-.675-.973-.671-1.495-.266l-10.436,8.094c-.341.429-.198.85-.036,1.008,0,0,11.967-8.836,11.967-8.836ZM325.918,125.256c4.529-3.724,7.837-7.57,11.57-11.446-4.71,3.212-8.58,6.918-11.57,11.446ZM309.669,115.194c0-.317-.257-.574-.574-.574s-.574.257-.574.574.257.574.574.574.574-.257.574-.574ZM376.641,115.218c-3.055,1.882-5.758,3.213-7.822,6.021,3.458-1.321,5.723-3.434,7.822-6.021ZM387.063,115.862c0-.317-.257-.574-.574-.574s-.574.257-.574.574.257.574.574.574.574-.257.574-.574ZM382.176,118.842c.151.281.707.61,1.186.163l2.304-2.145-.818-.369c-.929.694-2.043,1.305-2.672,2.351ZM342.083,117.493l-7.174,6.338c7.238-2.725,9.653-8.528,7.174-6.338ZM318.437,122.214c.182.367.462.331.665.013l3.327-3.366-.322-.322s-3.67,3.675-3.67,3.675ZM360.91,119.552c-.233-.321-.845-.514-1.293-.118l-6.866,6.062.802.381,7.357-6.324h0ZM381.978,119.34l-15.892,12.604c5.921-3.698,11.084-7.388,15.892-12.604ZM389.926,121.847l3.282-2.528c-1.815-.259-2.8,1.003-3.282,2.528ZM368.609,121.314c-2.842,1.033-4.77,2.922-6.485,5.29,2.724-1.331,4.693-2.782,6.485-5.29ZM389.529,121.962c-2.008.263-2.808,1.284-3.405,2.512,2.054-.278,2.697-1.374,3.405-2.512ZM399.178,122.185c-.004-.562-.488-.809-1.003-.368l-7.452,6.382.867.343,7.587-6.357h0ZM385.837,124.593c-1.589.421-2.356,1.291-3.044,2.502,1.646-.135,2.629-.751,3.044-2.502ZM352.538,126.537c0-.41-.333-.743-.743-.743s-.743.333-.743.743.333.743.743.743.743-.333.743-.743ZM361.905,126.618c-2.258.919-3.933,2.363-4.943,4.528,1.937-1.272,3.837-2.046,4.943-4.528ZM349.772,128.573c1.731-.636.176-2.095-.619-.706-1.697.716-.252,2.092.619.706ZM382.552,127.261c-1.63.334-2.372,1.257-2.983,2.524,1.534-.207,2.541-.735,2.983-2.524ZM386.171,132.218c.171.215.761.492,1.185.089l3.616-3.439-.783-.39-4.017,3.74h-.001ZM386.945,139.656c5.655-2.956,9.644-6.511,13.711-10.544-5.431,2.799-9.873,6.564-13.711,10.544ZM371.642,136.705c.021.166.363.673.835.228l6.418-6.058-.757-.347-6.496,6.177ZM365.713,132.541c0-.317-.257-.574-.574-.574s-.574.257-.574.574.257.574.574.574.574-.257.574-.574ZM385.195,133.346l-8.125,7.131c3.17-1.528,6.073-3.558,8.125-7.131ZM399.5,136.544l-.334.334.334.334.334-.334-.334-.334ZM398.575,137.879c0-.41-.333-.743-.743-.743s-.743.333-.743.743.333.743.743.743.743-.333.743-.743ZM396.598,138.633c-2.988,1.289-5.413,2.741-7.265,5.334,3.026-1.272,5.173-2.738,7.265-5.334ZM400.505,140.898c.174.359.46.344.666.012l1.319-1.368-.317-.317-1.668,1.673ZM382.564,143.971c1.637-1.13,3.091-2.186,3.795-4.157l-7.285,6.538c1.494-.387,2.257-1.607,3.49-2.381ZM399.973,141.333l-19.685,16.536c7.139-4.919,13.528-10.021,19.685-16.536ZM375.589,142.204l-.435.012.435.012h.45l.435-.012-.435-.012h-.45ZM385.655,147.911l3.859-3.669c-.029-.052-.388-.295-.737-.354l-12.843,9.083.997.198c1.69-1.064,3.501-2.933,5.713-3.442,1.372-.316,1.596-.469,3.012-1.816h-.001ZM383.34,159.964c5.312-2.944,9.42-6.528,13.177-10.791l-13.177,10.791ZM394.254,156.193c.144.252.648.59,1.124.169l3.917-3.464-.467-.511-4.574,3.806h0ZM307.572,157.174l-15.493,14.092c6.187-3.929,11.032-8.794,15.493-14.092ZM316.437,159.578c.18.363.458.336.666.013l1.989-2.034-.319-.319-2.335,2.341h-.001ZM393.21,157.278c-1.901.617-2.985,1.671-3.984,3.336,2.186-.325,3.355-1.222,3.984-3.336ZM319.898,168.746c1.561-.335,2.356-1.073,2.937-1.768l6.451-7.714c-2.874,1.553-4.565,3.94-6.696,6.153-1.488.589-2.425,1.486-2.693,3.328h.001ZM392.571,162.373c.591.469.983.163,1.264-.122l2.652-2.692-.332-.333-3.583,3.146h-.001ZM308.914,166.638l7.381-6.389c-.213-.177-.62-.295-.94-.267l-8.238,6.532c-2.163,1.715-4.521,2.781-5.739,5.558l7.536-5.434h0ZM383.06,160.563c0-.317-.257-.574-.574-.574s-.574.257-.574.574.257.574.574.574.574-.257.574-.574ZM318.102,160.563l-.334.334.334.334.334-.334-.334-.334ZM334.508,162.946c1.43-.532,2.289-1.033,3.247-2.183-1.322.243-2.422,1.106-3.247,2.183ZM342.962,168.398c3.598-1.999,5.692-4.366,7.709-7.187-3.329,2.084-5.682,4.51-7.709,7.187ZM299.186,177.772c6.723-4.316,13.021-9.434,19.109-15.679-3.093-.773-3.649,2.633-5.103,3.853-4.723,3.962-9.507,7.131-14.006,11.826ZM355.136,164.249c.174.359.46.344.666.012l1.319-1.368-.317-.317-1.668,1.673ZM399.17,164.249c.174.359.46.344.666.012l1.319-1.368-.317-.317-1.668,1.673ZM324.642,170.849c.264.453.682.641,1.219.163l8.38-7.455-.811-.441-8.788,7.733ZM341.027,163.899c0-.317-.257-.574-.574-.574s-.574.257-.574.574.257.574.574.574.574-.257.574-.574ZM380.344,173.294c4.616-2.894,8.636-5.91,11.793-10.205l-11.793,10.205ZM335.215,167.989c2.387-.499,3.092-1.917,4.112-3.474-1.994.871-3.053,1.705-4.112,3.474ZM394.254,168.746l4.644-3.818-.726-.4-11.069,9.97c-2.757,2.483-5.137,5.056-6.737,8.654,9.148-11.504,10.169-10.631,13.888-14.406ZM341.898,177.211c3.751-3.584,7.871-6.513,11.371-11.125-4.337,3.046-8.204,6.728-11.371,11.125ZM324.005,179.201c3.638-4.738,8.534-7.125,11.417-11.347l-7.446,6.301c-1.633,1.382-3.716,3.077-3.971,5.046h0ZM334.28,176.073c.039.193.387.67.848.233l7.806-7.397-.826-.42-7.828,7.585h0ZM308.644,179.285c4.471-2.955,7.851-6.201,10.873-10.104l-10.873,10.104ZM371.077,170.959c1.44-.956-.427-1.775-.85-.522-.967,1.206.108,1.625.85.522ZM291.186,172.483c1.692-.47.153-2.043-.517-.631-1.083.293-2.418,1.634-1.802,2.259.669.679,1.899-.722,2.319-1.628ZM297.087,175.589c.182.367.462.331.665.013l3.327-3.366-.322-.322-3.67,3.675ZM318.436,176.914c-.071.201-.163.513.187.895l5.145-5.565-.328-.331-5.004,5.001h0ZM368.809,171.906l-.334.334.334.334.334-.334-.334-.334ZM367.474,173.24l-.334.334.334.334.334-.334-.334-.334ZM352.019,186.933c.223.278.896.454,1.304.079l13.554-12.485-9.923,7.184-4.935,5.222h0ZM334.25,183.734c3.482-1.777,5.363-3.883,7.193-6.575-3.247,1.879-5.346,4.081-7.193,6.575ZM311.261,185.285l5.137-5.953c-2.207,1.583-4.253,3.264-5.137,5.953ZM349.94,180.803c-7.365,4.48-13.778,9.954-19.148,16.59l19.148-16.59ZM327.016,185.249c0-.317-.257-.574-.574-.574s-.574.257-.574.574.257.574.574.574.574-.257.574-.574ZM330.582,190.457c3.392-.745,5.22-2.819,6.699-5.401-2.969,1.363-4.801,3.306-6.699,5.401ZM330.449,187.601c.174.359.46.344.666.012l1.319-1.368-.317-.317-1.668,1.673ZM351.928,188.059c.636-.523-1.143-1.284-1.393-.154l-9.917,8.322.809.458,10.5-8.625h.001ZM355.572,194.638c.709-.765-.479-1.506-.867-.653-3.655,2.874-7.239,5.33-9.582,9.502l10.449-8.849ZM338.456,198.276c.174.359.46.344.666.012l1.319-1.368-.317-.317-1.668,1.673Z"></path>
  <path class="st1" fill="#F5507D" d="M34.447,323.269c-2.134.658-3.929,2.168-6.227,1.463-5.295,1.029-10.246,2.404-15.841,2.084l16.416-4.758c6.651-1.928,13.11-3.672,20.141-3.874-2.356.937-4.875,1.127-7.132,2.634-2.204,1.471-4.595,1.599-7.357,2.45h0Z"></path>
  <path class="st1" fill="#F5507D" d="M234.364,253.616l-5.451.127,7.766-2.715c4.075-1.424,8.581-.423,13.201.256-4.874,2.392-9.965,2.979-15.516,2.332Z"></path>
  <path class="st1" fill="#F5507D" d="M262.467,253.463c-4.773,1.457-9.758,2.733-14.994.347,5.388-2.225,10.821-2.688,16.306-1.403-.205.765-.581.99-.805,1.18l.505.548c4.392-1.048,8.907-.747,13.774.69l-5.695,1.455-10.562-.487c.615-1.002,1.232-1.122,2.001-1.295l-.529-1.036h0Z"></path>
  <path class="st1" fill="#F5507D" d="M230.541,251.532c-3.788,1.939-6.998,3.199-11.329,3.387.255-2.28,2.526-1.73,3.552-2.456,2.558-1.809,5.272-1.901,7.777-.931Z"></path>
  <path class="st2" fill="#001E50" d="M361.604,270.063l2.113,11.246c.754,3.996,4.58,5.477,8.877,4.495-.65,2.219-2.075,1.131-3.396.96-2.233-.29-4.096.096-5.678-1.421-1.073-1.029-1.948-2.837-2.221-4.888l-1.385-10.423,1.691.032h-.001Z"></path>
  <path class="st2" fill="#001E50" d="M286.455,311.367c-.316.576-.964.594-2.023.737.457-.924,1.147-.776,2.023-.737Z"></path>
  <path class="st2" fill="#001E50" d="M52.276,423.43c.214-1.356,2.408-.706,6.652-2.564l11.659-5.2c2.69.015,5.404-1.285,8.214-2.347,15.389-5.817,30.796-10.364,46.97-13.612,22.12-4.442,42.285-.649,63.917,3.712l48.94,9.865,62.349,13.019c18.178,3.796,35.549,1.321,52.712-5.685l64.351-26.269c13.913-5.679,29.046-10.859,40.778-20.25l-12.985,5.846-42.145,14.502-10.69,3.334-23.111,7.001-28.124,7.972c-9.506,2.695-19.375,2.633-29.039.376l-12.02-2.807-10.941-1.693-7.742-1.535c-1.55-.307-2.594-.309-3.345,1.176-.207-2.612-1.839-2.28-3.358-2.566-2.756-.518-4.569-1.031-6.79,1.336-.137-1.399.624-1.647,1.565-2.428-1.801-.975-3.206-.57-5.107.354.513-1.316.778-1.773,1.737-3.172,3.729,2.06,9.61,2.988,14.238,3.813l9.816,1.749,8.837,1.709,12.682,2.609c7.024,2.344,13.661.817,20.538-.15,4.768-.671,9.13-1.478,13.848-3.063l39.08-13.129,52.541-18.088c10.977-3.779,20.13-9.833,29.488-16.639l42.499-30.913,51.185-35.433c1.831-1.267,1.572-4.465,1.885-6.18,1.343-7.351-3.332-13.517-10.059-14.832l-.692.054c.258-.627-.08-1.238-.454-1.243l-2.116-.027c-6.881-2.47-18.358-1.4-25.459,1.327-2,.768-4.539.482-5.959,2.14l-11.759,5.295c-2.289,1.031-3.605,2.087-5.497,3.205-2.106,1.244-3.715,1.457-5.449,3.353-4.872,5.327-11.898,7.454-18.613,9.4l-14.493,4.199-9.473,3.709c-1.478.579-3.09.762-4.228,1.974-.155.015-.411-.056-.585.02-.304.133-.569.369-.763.635l-.575.028c-.316.015-.583.436-.653.763-.119.064-.307.072-.425-.091-7.082,2.958-13.088,7.946-19.235,13.206l-14.398.087c-13.022,1.138-25.408,4.322-37.739,8.226-1.771.561-3.235.693-4.409,2.546-13.772-3.878-27.772-5.328-41.931-3.798l-21.411,2.314c-3.181.344-6.14.431-9.187,2.396-.143-2.264,1.401-2.791,2.873-3.331,4.892-1.794,9.433-3.329,14.722-4.011-1.789-1.713-3.667-1.557-5.335-2.527l-16.994-9.887c-1.542-.38-3.585.951-4.72,1.224-.184.044-.333.039-.492,0-.748.411-1.627.611-2.519,1.638,1.194,1.48,2.784,1.182,4.504.168.508,1.272-.513,1.47-.761,1.669-.464.374-.209.878.32.959,1.625.249,2.725-.52,2.857.076.044.197-.198.791-.377,1.262l5.357,2.265c1.704.72,2.964.749,3.321,2.522l.39.072c.502.092,2.032.031,2.048,1.145-.352.651-2.198.085-2.649-.473-.101-.148-.256-.271-.4-.355-2.034-1.174-4.388-2.109-7.151.503-.48-1.265.288-2.141,1.958-2.461-.349-1.016-1.17-1.423-1.959-1.398-.903.029-2.316,1.616-3.501.865-.468-.297-.021-.882.22-.795.195.071,1.025-.691.911-.874-1.045-1.671-4.422-2.939-6.223-1.403l-.833,2.3c-.51,1.408-3.241-2.746-7.176-3.061-.505-.714-1.18-2.027-2.119-1.869-2.717.459-2.991,2.348-3.914,2.233-1.687-.21-3.014-4.224-8.018-1.569-.346-.875.597-1.954.22-2.266-.611-.506-1.743-.277-2.822-.371,1.474-1.575,3.342-1.979,5.144-2.586.157-.053.249-.3.348-.451.633-.969,2.158-1.219,2.804-2.835-2.472-.832-4.197,1.395-6.025,1.895-5.137,1.405-9.89,2.742-14.99,4.493l-11.056,1.853-.464-1.237c-.282-.751-2.898.085-3.234-.728-.892-2.158,6.53-.073,10.99-2.314l14.067-7.068c-7.121.272-13.37,2.629-20.19,4.222-1.548.362-3.515-.333-5.396-.896,13.007-3.313,25.828-7.75,39.585-9.203,34.737-3.669,66.184,8.621,110.018-2.963,8.959-2.368,16.993-6.679,23.351-13.445,4.666-4.966,6.454-11.775,4.694-18.612-3.167-12.3-16.777-15.481-29.377-14.941l-26.047,1.115c-20.156.863-46.593,1.466-65.694-2.519-16.188-3.378-32.375-4.794-49.01-5.329-17.386-.559-34.039,1.407-50.239,7.439-13.769,5.127-25.588,12.668-37.061,21.636l-17.603,13.76c-14.234,11.126-30.27,17.573-47.941,21.017-19.508,3.801-38.395,7.468-58.422,8.483-.328,1.263.169-.388.434-.416l63.169-14.971c14.133-3.35,26.061-10.166,37.645-18.503l24.469-17.611c18.1-11.837,37.621-20.304,58.996-24.048,23.579-4.131,56.042,1.902,80.646,5.342,16.998,2.377,33.523,2.411,50.63,1.951l37.352-1.005c13.755-.37,27.953,4.19,31.737,17.527,2.367,8.341.141,16.51-5.373,22.773-12.163,13.812-37.661,18.728-56.252,20.354-14.891,1.302-29.263-.07-44.097-1.485-5.784-.552-10.967-1.272-17.315-.544l15.747,8.919c6.555,3.713,13.68,7.471,21.509,7.797l26.74,1.115,14.722-3.615c13.199-4.461,26.155-7.765,39.574-11.033,8.602-6.978,17.065-13.19,26.931-17.941,6.691-4.273,15.149-4.455,22.191-5.956,15.135-12.171,28.049-27.656,48.065-28.508,4.813-4.845,9.748-10.369,15.969-13.396,11.479-5.584,21.853-4.454,30.771,4.446,6.501-.952,13.465-2.953,20.394-1.595,7.864,1.541,14.971,6.89,17.75,14.672,1.457,4.079.446,8.911-.16,12.987l-15.631,12.541c-2.29,1.837-5.733,3.566-7.054,6.065-1.261,2.386-1.49,4.74-4.22,6.052-4.667,2.241-8.631,5.243-12.77,8.571l-48.384,38.918-34.82,29.214c-7.397,6.206-15.213,10.899-24.216,14.565l-57.301,23.328-28.966,12.375c-14.661,6.264-32.374,11.003-48.073,8.695-21.79-3.204-42.506-8.605-64.148-12.882l-67.986-13.438c-25.569-5.054-44.44-3.716-69.446,2.832l-51.331,13.44c-1.306.342-2.593.286-3.407-.104h-.003ZM465.824,295.09l12.571-2.496c2.73-1.201,4.858-3.087,7.197-4.902,9.187-7.13,18.98-12.569,29.924-15.737,8.943-10.793,19.693-18.606,33.032-23.174-6.016-6.283-14.511-7.408-22.121-4.317-6.716,2.292-12.021,6.837-16.505,12.121l-3.783,4.459c-3.048,3.592-5.277,8.912-9.511,11.601-10.882,6.913-22.022,13.179-30.803,22.444h-.001ZM529.905,268.275l7.853-.727c6.277-.581,12.834.277,18.7,2.62,6.614,2.642,10.42,8.248,11.371,15.567l18.204-13.736c1.287-3.64,1.262-7.346.547-11.188-2.451-5.558-7.2-10.186-13.418-11.233-15.414-2.595-31.147,4.789-43.253,14.385-1.997,1.583-4.292,2.38-5.222,5.302,1.902.004,3.45-.827,5.217-.99h.001ZM369.912,327.264c11.457-5.319,23.036-7.641,35.137-9.23l16.64-1.035c5.618-.349,15.127-12.154,32.416-18.075,4.332-1.484,7.489-4.103,10.8-7.262,9.172-8.751,18.907-16.38,30.665-21.155l7.252-10.603c-5.457.041-10.02,2.045-14.055,4.92l-10.149,7.231c-5.328,3.797-10.087,7.906-14.883,12.482-1.164,1.111-2.167,1.802-1.329,3.955-19.232.28-34.946,9.388-48.579,22.02,1.378.584,2.553.332,3.518,1.483l-10.062.941-44.339,12.062c2.5,1.326,4.384,1.846,6.966,2.267h.002ZM284.432,312.104c-.361.73-1.387.958-2.357,2.041,1.806,1.37,3.618.446,5.215-.305l.236-.303c1.414-.414,2.941-.392,4.393-1.223-1.918-1.483-3.783-.871-5.465-.946,1.447.063,1.83-1.613.389-1.633l-9.071-3.8c-1.17,1.149-2.39,2.837-4.121,2.939l5.25,2.117c-.422.841-.365,1.433-.051,1.647.366.25,1.098.288,1.561.208l4.021-.74v-.002ZM264.986,313.263c-.635.403-1.161.593-1.757,1.772l5.402,1.36c.624.157,2.025-1.999,1.238-2.211-.428-.115-.892.027-1.582-.459,1.641-1.333,5.954-.476,4.696-2.052-.178-.224-.591-.607-1.307-.424l-6.203,1.581c-.104.026-.357.134-.487.432h0ZM276.378,314.978c.525-.375.736-1.29.411-1.671-.504-.591-1.369-.837-2.206-.52-.803.304-1.511.809-1.549,1.532-.025.483.37,1.404,1.105,1.434.504.02,1.225-.177,1.86-.407.161-.058.306-.194.379-.367h0ZM276.888,315.56l-.326.223c-.063,1.164.853,1.602,1.542,1.451l3.208-.705.072-.468c-.678-1.668-3.054-1.135-4.496-.501ZM282.18,316.852l-.429.229c-.649.467-1.514,1.027-1.235,2.199,1.429.372,3.961-.438,4.139-1.833-.032-1.076-2.104-1.062-2.474-.595h-.001ZM459.547,373.397l-.334.334.334.334.334-.334-.334-.334Z"></path>
  <path class="st2" fill="#001E50" d="M268.186,400.392c.642-.632,1.476-.214,1.471-.015-.007.293-.584.797-.929,1.025-.502.333-1.338-.227-.542-1.01h0Z"></path>
  <polygon class="st2" fill="#001E50" points="292.19 315.673 292.641 315.673 293.076 315.685 292.641 315.697 292.19 315.697 291.755 315.685 292.19 315.673"></polygon>
  <polygon class="st2" fill="#001E50" points="293.525 318.342 293.975 318.342 294.41 318.354 293.975 318.366 293.525 318.366 293.089 318.354 293.525 318.342"></polygon>
  <polygon class="st2" fill="#001E50" points="273.509 402.408 273.959 402.408 274.395 402.42 273.959 402.432 273.509 402.432 273.073 402.42 273.509 402.408"></polygon>
  <polygon class="st2" fill="#001E50" points="265.394 408.098 265.406 408.533 265.406 408.984 265.394 409.419 265.382 408.984 265.382 408.533 265.394 408.098"></polygon>
  <rect class="st2" fill="#001E50" x="293.848" y="314.782" width=".472" height=".472" transform="translate(-136.616 300.215) rotate(-45)"></rect>
  <rect class="st2" fill="#001E50" x="258.486" y="315.449" width=".472" height=".472" transform="translate(-147.445 275.406) rotate(-45)"></rect>
  <rect class="st2" fill="#001E50" x="290.512" y="316.116" width=".472" height=".472" transform="translate(-138.537 298.248) rotate(-45)"></rect>
  <path class="st1" fill="#F5507D" d="M369.912,327.264c-2.582-.421-4.466-.941-6.966-2.267l44.339-12.062,10.062-.941c-.966-1.151-2.14-.898-3.518-1.483,13.634-12.632,29.347-21.74,48.579-22.02-.838-2.153.165-2.844,1.329-3.955,4.795-4.576,9.554-8.685,14.883-12.482l10.149-7.231c4.035-2.875,8.598-4.879,14.055-4.92l-7.252,10.603c-11.758,4.775-21.494,12.404-30.665,21.155-3.311,3.159-6.468,5.778-10.8,7.262-17.289,5.921-26.798,17.726-32.416,18.075l-16.64,1.035c-12.101,1.589-23.68,3.911-35.137,9.23h-.002Z"></path>
  <path class="st1" fill="#F5507D" d="M537.758,267.548c.664-2.032,2.869-2.229,4.359-3.393,5.461-4.269,11.188-9.029,18.435-9.428-4.252,4.691-13.924,5.544-17.375,11.659,7.213-4.523,13.811-8.148,21.851-9.348l8.913-1.331c1.873-.28,3.604.107,5.817-.349-6.173-2.624-13.623,1.909-18.484-.685,3.979-2.571,7.822-1.591,12.572-2.384-8.979-1.852-18.877-.88-27.663,3.192-5.268,2.442-15.816,9.822-16.893,12.166-.083.181.439.512.615.628-1.766.164-3.315.994-5.217.99.93-2.922,3.224-3.719,5.222-5.302,12.106-9.596,27.839-16.981,43.253-14.385,6.218,1.047,10.966,5.675,13.418,11.233.715,3.842.74,7.548-.547,11.188l-18.204,13.736c-.951-7.318-4.757-12.925-11.371-15.567-5.866-2.343-12.423-3.201-18.7-2.62h-.001ZM573.696,259.218c2.315-.398,4.752,1.166,6.792-.904-4.604-.769-8.924-.196-13.246,1.056-5.512,1.597-11.218,2.566-15.64,6.58,7.571-2.779,14.039-5.348,22.094-6.733h0ZM550.952,265.98l-.334.334.334.334.334-.334-.334-.334Z"></path>
  <path class="st1" fill="#F5507D" d="M465.824,295.09c8.782-9.264,19.922-15.531,30.803-22.444,4.234-2.69,6.463-8.009,9.511-11.601l3.783-4.459c4.484-5.284,9.789-9.83,16.505-12.121,7.61-3.091,16.105-1.966,22.121,4.317-13.339,4.568-24.089,12.381-33.032,23.174-10.944,3.168-20.737,8.607-29.924,15.737-2.339,1.815-4.467,3.7-7.197,4.902l-12.571,2.496h.001ZM537.156,245.85c-7.68,3.548-15.063,6.535-20.033,12.821,6.831-5.192,13.562-8.752,21.536-12.617-10.471-6.259-26.97,8.961-31.839,19.149,6.327-6.57,11.248-12.784,19.102-16.611,3.422-1.667,7.131-3.971,11.233-2.742h.001ZM516.258,258.64l-.334.334.334.334.334-.334-.334-.334Z"></path>
  <path class="st1" fill="#F5507D" d="M552.607,273.301c-4.827-1.169-9.929-1.377-15.262-1.006l-8.572.595-10.153,2.608c1.42-1.657,3.959-1.372,5.959-2.14,7.101-2.726,18.578-3.797,25.459-1.327l2.116.027c.374.005.712.616.454,1.243h0Z"></path>
  <path class="st1" fill="#F5507D" d="M275.999,315.345c-.635.23-1.356.427-1.86.407-.735-.03-1.13-.951-1.105-1.434.038-.722.746-1.228,1.549-1.532.837-.317,1.702-.071,2.206.52.325.382.115,1.297-.411,1.671l.51.582c1.442-.634,3.817-1.167,4.496.501.143.352.455.645.797.791.37-.467,2.442-.481,2.474.595-.178,1.395-2.709,2.205-4.139,1.833-.279-1.172.587-1.732,1.235-2.199l-.439-.552-3.208.705c-.689.151-1.605-.287-1.542-1.451l-.563-.438h0Z"></path>
  <path class="st1" fill="#F5507D" d="M453.335,304.658c-1.138,1.144-2.652,1.823-4.228,1.974,1.139-1.212,2.751-1.395,4.228-1.974Z"></path>
  <path class="st1" fill="#F5507D" d="M447.759,307.287c.194-.266.459-.502.763-.635-.137.309-.424.619-.763.635Z"></path>
  <path class="st1" fill="#F5507D" d="M446.531,308.077c.071-.326.337-.748.653-.763-.116.318-.348.597-.653.763Z"></path>
  <rect class="st1" fill="#F5507D" x="459.311" y="373.495" width=".472" height=".472" transform="translate(-129.67 434.412) rotate(-45)"></rect>
  <path class="st1" fill="#F5507D" d="M505.189,292.766l-1.006-.998c-.173-.172-.889.319-1.267,1.005-1.394.124-1.413-1.626.019-1.62.848-.343,1.712-.708,1.97-1.108.254-.392-.44-1.679-.469-2.183l6.064-3.3c2.626-1.429,4.971-3.298,8.778-2.471-3.887,4.387-13.637,5.536-14.089,10.674h0Z"></path>
  <path class="st1" fill="#F5507D" d="M373.383,339.197l-8.258,1.87-.568-1.869-7.529.659c1.932-1.282,4.141-.947,6.394-1.562,1.57-.429,2.948-1.541,4.672-.349-.945.909-2.072.619-2.522,1.556,3.112-.512,5.132-1.639,7.811-.305h0Z"></path>
  <path class="st1" fill="#F5507D" d="M356.394,340.296c-2.791.955-5.658,2.457-8.885,1.306,2.856-1.265,5.403-1.383,8.885-1.306Z"></path>
  <path class="st1" fill="#F5507D" d="M500.67,294.091c-.51,1.554-2.613.316-1.103-.772.449-.584,1.063-.842,1.373-.812.314.03.868,1.113-.269,1.585h0Z"></path>
  <path class="st1" fill="#F5507D" d="M522.149,281.244c-.693.322-1.512-.02-1.48-.228.049-.318.714-.936,1.226-1.065.574-.145,1.253.091,1.309.332.052.224-.445.677-1.055.96h0Z"></path>
  <rect class="st1" fill="#F5507D" x="519.358" y="281.423" width=".472" height=".472" transform="translate(-46.977 449.905) rotate(-45)"></rect>
  <polygon class="st1" fill="#F5507D" points="506.25 291.333 506.584 291.666 506.25 292 505.565 291.666 506.25 291.333"></polygon>
  <rect class="st1" fill="#F5507D" x="496.674" y="292.765" width=".472" height=".472" transform="translate(-61.641 437.187) rotate(-45)"></rect>
  <circle class="st1" fill="#F5507D" cx="450.54" cy="318.02" r=".743"></circle>
  <rect class="st1" fill="#F5507D" x="453.973" y="315.45" width=".472" height=".472" transform="translate(-90.189 413.637) rotate(-45)"></rect>
  <circle class="st1" fill="#F5507D" cx="452.541" cy="316.686" r=".574"></circle>
  <rect class="st1" fill="#F5507D" x="35.645" y="377.498" width=".472" height=".472" transform="translate(-256.589 136.007) rotate(-45)"></rect>
  <rect class="st2" fill="#001E50" x="267.16" y="314.115" width=".472" height=".472" transform="translate(-143.961 281.149) rotate(-45)"></rect>
</svg>