<?xml version="1.0" encoding="UTF-8"?>
<svg fill-rule="evenodd" id="Ebene_1" xmlns="http://www.w3.org/2000/svg" version="1.1" viewBox="721 346 372 304">
  
  <defs>
    
  </defs>
  <path fill="#001E50" d="M770.276,475.267v-24.595c0-2.818,1.88-2.818,2.818-2.818,28.725.753,50.691-12.203,50.691-45.434,0-22.717-16.524-43.556-39.802-43.556h-31.543c-14.081,0-19.149,9.575-19.149,22.717v93.686c0,10.512,9.198,15.769,18.4,15.769s18.585-5.257,18.585-15.769ZM777.787,389.28c6.569,0,9.198,6.946,9.198,13.141s-2.629,13.143-9.198,13.143c-5.821,0-9.013-6.008-9.013-13.143s3.192-13.141,9.013-13.141Z"></path>
  <path fill="#001E50" d="M890.432,491.036c9.95,0,21.028-3.379,17.273-19.15l-23.093-97.814c-2.814-11.641-12.764-15.958-23.279-15.958s-20.465,4.317-23.093,15.958l-22.152,97.814c-3.57,15.771,7.322,19.15,17.273,19.15,21.214,0,15.582-21.216,22.715-21.216h11.641c7.133,0,1.502,21.216,22.715,21.216ZM865.088,444.475h-6.758c-2.065,0-1.691-2.065-1.502-3.566l5.068-36.234,4.694,36.234c.189,1.502.375,3.566-1.502,3.566Z"></path>
  <path fill="#001E50" d="M956.89,491.599c20.65,0,45.619-12.203,45.619-36.423v-81.292c0-10.514-9.198-15.771-18.396-15.771s-18.589,5.257-18.589,15.771v74.159c0,5.444-5.443,7.509-8.635,7.509s-8.638-1.878-8.638-7.509v-74.159c0-10.514-9.198-15.771-18.399-15.771s-18.585,5.257-18.585,15.771v81.292c0,24.22,24.969,36.423,45.623,36.423Z"></path>
  <path fill="#001E50" d="M1031.045,490.285h36.799c8.26,0,13.892-7.135,13.892-15.959s-5.631-15.771-13.892-15.771h-11.827c-5.635,0-7.137-2.627-7.137-7.32v-77.351c0-10.514-9.198-15.771-18.4-15.771s-18.585,5.257-18.585,15.771v93.684c0,13.143,5.068,22.717,19.149,22.717Z"></path>
  <path fill="#001E50" d="M835.526,592.604c2.065-1.878,5.257-6.008,5.257-11.078,0-6.008-5.068-15.019-12.201-15.019-5.446,0-9.387,4.13-11.452,2.065-3.192-3.192-6.384-6.197-4.134-8.823,7.511-8.636,12.579-17.649,12.579-29.101,0-18.587-14.455-28.538-32.291-28.538-19.523,0-36.985,10.327-36.985,31.917,0,9.011,4.505,18.024,10.14,25.158.938,1.125,1.123,3.19-.563,4.694-11.83,10.512-19.716,18.211-19.716,34.92,0,21.216,16.149,39.99,38.49,39.99,15.019,0,23.093-6.946,31.917-18.774,4.694,6.946,10.7,12.579,19.712,13.143,11.263.751,20.465-8.262,13.706-17.649-14.644-20.652-16.335-21.216-14.459-22.904ZM788.027,606.684c-6.944,0-9.387-6.008-9.387-12.016,0-3.005.938-13.517,9.387-13.517,7.137,0,9.765,9.011,9.765,13.517,0,6.382-3.192,12.016-9.765,12.016ZM793.285,542.664c-5.068,0-7.133-5.632-7.133-10.138,0-3.568,1.502-8.636,6.006-8.636,4.694,0,7.137,5.068,7.137,9.011,0,3.568-.942,9.764-6.01,9.764Z"></path>
  <path fill="#001E50" d="M996.689,522.199c-1.123-12.953-11.638-18.21-24.78-18.21-11.452,0-21.592,4.506-24.22,16.333l-7.886,35.86-7.886-35.86c-2.629-11.827-12.764-16.333-24.217-16.333-13.143,0-23.846,5.257-24.784,18.21l-6.569,96.501c-.938,12.766,3.755,18.211,16.52,18.211,7.511,0,16.524-3.003,17.087-11.639l3.189-51.818,11.267,50.315c1.502,6.761,5.257,13.143,17.647,13.143,9.951,0,14.455-5.068,15.771-13.143l8.634-50.127,5.072,51.631c.938,8.636,9.573,11.639,17.084,11.639,12.764,0,17.647-5.444,16.52-18.211l-8.449-96.501Z"></path>
  <path fill="#001E50" d="M1055.451,538.157h11.078c10.514,0,15.208-8.824,15.208-16.522,0-10.512-5.635-16.896-15.208-16.896h-36.425c-14.081,0-19.149,9.574-19.149,22.717v85.987c0,13.143,5.068,22.717,19.149,22.717h36.425c10.514,0,15.208-8.823,15.208-16.522,0-10.512-5.635-16.896-15.208-16.896h-11.078c-4.508,0-7.511-3.005-7.511-8.073s3.003-8.073,7.511-8.073h10.325c9.013,0,13.517-8.073,13.517-16.146,0-8.825-4.505-16.148-13.517-16.148h-10.325c-4.508,0-7.511-3.003-7.511-8.073s3.003-8.073,7.511-8.073Z"></path>
</svg>